<mxfile host="app.diagrams.net" modified="2023-09-23T13:14:08.900Z" agent="Mozilla/5.0 (X11; Linux x86_64) AppleWebKit/537.36 (KHTML, like Gecko) Chrome/116.0.0.0 Safari/537.36" etag="Ph0L7AyNloF84U1MKdG-" version="21.8.1" type="github">
  <diagram name="Page-1" id="wZWzJHtzG1EOgaf19r7F">
    <mxGraphModel dx="1364" dy="771" grid="1" gridSize="10" guides="1" tooltips="1" connect="1" arrows="1" fold="1" page="1" pageScale="1" pageWidth="827" pageHeight="1169" math="0" shadow="0">
      <root>
        <mxCell id="0" />
        <mxCell id="1" parent="0" />
        <mxCell id="OwYGUsT8iLoXy5kIygfK-1" value="" style="shape=image;verticalLabelPosition=bottom;labelBackgroundColor=default;verticalAlign=top;aspect=fixed;imageAspect=0;image=data:image/png,iVBORw0KGgoAAAANSUhEUgAABFAAAAJGCAYAAAB82HGAAAAABHNCSVQICAgIfAhkiAAAABl0RVh0U29mdHdhcmUAZ25vbWUtc2NyZWVuc2hvdO8Dvz4AAABKaVRYdENyZWF0aW9uIFRpbWUAAAAAANGB0YPQsdC+0YLQsCwgMjMuINGB0LXQv9GC0LXQvNCx0LDRgCAyMDIzLiAxNToxNDowNCBDRVNUntr6oAAAIABJREFUeJzs3XmUZOlZ3/nv+94bW+6VtS9dVb3vq1rdUqtbLQMCRiOED0YaYGAQDGAMjI/BczBibB8bBJgBDMasx4ZhQAdjDBw0EiAJSWjpTb2p9+qurl6qa6/KysqsrMyM7b7P/HFvLJkZWZFVnUtk1e/TJzqzMiMjbtz1fZ/7vM/rzMwQEREREREREZFF+bVeABERERERERGRXqcAioiIiIiIiIhIFwqgiIiIiIiIiIh0oQCKiIiIiIiIiEgXCqCIiIiIiIiIiHShAIqIiIiIiIiISBcKoIiIiIiIiIiIdKEAioiIiIiIiIhIFwqgiIiIiIiIiIh0oQCKiIiIiIiIiEgXCqCIiIiIiIiIiHShAIqIiIiIiIiISBcKoIiIiIiIiIiIdKEAioiIiIiIiIhIFwqgiIiIiIiIiIh0oQCKiIiIiIiIiEgXCqCIiIiIiIiIiHShAIqIiIiIiIiISBcKoIiIiIiIiIiIdKEAioiIiIiIiIhIFwqgiIiIiIiIiIh0oQCKiIiIiIiIiEgXCqCIiIiIiIiIiHShAIqIiIiIiIiISBcKoIiIiIiIiIiIdKEAioiIiIiIiIhIFwqgiIiIiIiIiIh0oQCKiIiIiIiIiEgXCqCIiIiIiIiIiHShAIqIiIiIiIiISBcKoIiIiIiIiIiIdKEAioiIiIiIiIhIFwqgiIiIiIiIiIh0oQCKiIiIiIiIiEgXCqCIiIiIiIiIiHShAIqIiIiIiIiISBcKoIiIiIiIiIiIdKEAioiIiIiIiIhIFwqgiIiIiIiIiIh0oQCKiIiIiIiIiEgXCqCIiIiIiIiIiHShAIqIiIiIiIiISBcKoIiIiIiIiIiIdKEAioiIiIiIiIhIFwqgiIiIiIiIiIh0oQCKiIiIiIiIiEgXCqCIiIiIiIiIiHShAIqIiIiIiIiISBcKoIiIiIiIiIiIdKEAioiIiIiIiIhIFwqgiIiIiIiIiIh0oQCKiIiIiIiIiEgXCqCIiIiIiIiIiHShAIqIiIiIiIiISBcKoIiIiIiIiIiIdKEAioiIiIiIiIhIFwqgiIiIiIiIiIh0oQCKiIiIiIiIiEgXCqCIiIiIiIiIiHShAIqIiIiIiIiISBcKoIiIiIiIiIiIdKEAioiIiIiIiIhIFwqgiIiIiIiIiIh0oQCKiIiIiIiIiEgXCqCIiIiIiIiIiHShAIqIiIiIiIiISBcKoIiIiIiIiIiIdKEAioiIiIiIiIhIFwqgiIiIiIiIiIh0oQCKiIiIiIiIiEgXCqCIiIiIiIiIiHShAIqIiIiIiIiISBcKoIiIiIiIiIiIdKEAioiIiIiIiIhIFwqgiIiIiIiIiIh0oQCKiIiIiIiIiEgXCqCIiIiIiIiIiHShAIqIiIiIiIiISBcKoIiIiIiIiIiIdKEAioiIiIiIiIhIFwqgiIiIiIiIiIh0oQCKiIiIiIiIiEgXCqCIiIiIiIiIiHShAIqIiIiIiIiISBcKoIiIiIiIiIiIdKEAioiIiIiIiIhIFwqgiIiIiIiIiIh0oQCKiIiIiIiIiEgXCqCIiIiIiIiIiHShAIqIiIiIiIiISBcKoIiIiIiIiIiIdKEAioiIiIiIiIhIFwqgiIiIiIiIiIh0oQCKiIiIiIiIiEgXCqCIiIiIiIiIiHShAIqIiIiIiIiISBcKoIhIi631AojIijC6H986/kVERETOK17rBRAREZFVpmCJiPSKTucjt+pLISKyJAqgiFzW2lstbm6DxVo/FpF1zrHgcG9SMEVEeo3aICLSoxRAEbmcGAsaI6HtB87ANf7pFv8bEelh7cds+/fzgijN/okCpyKymuafZxrnpravC5oeOjeJSI9QAEXkUjW/EwWEEKjVaiRJQr1WZ6ZeZdaMikFSr1OpG3EUkfeOvPfknKM/9uTjHPl8Hh954jheePdaDZq5FrvTL7LcGrVN2iuaObBgJPWEer1OtValUqtRtkAlMeoBZkLAGeQiTzFyFBzkI08xypHP5YiiiDiXw0fagddcL3ccdf6XC2WQJIFqtUqlUqFSr3MmgSRJCCGQJAlRFBFFnpx3DOY8Re8p5AvkcnmiOMapgqOIrCEFUETWu/kNWGt9qRkcOlfhxVMTPHN8jBcnp3h9toIFI5iRmJEAIfsDcw6f3Y52ZjggB0Te4b1nU85z83Af79i6iZs2b+Ta0X4K2cgfCwHn/Ny73GuQxRKA506eo+zqNHqWtoxvbi7N1CEE8nGOQhxRykUUPQznYkreEbWvg6yDa2a4qP02W9vvG3qpIxIgcfDqmSkmEwMHweaO9ZgTnwuB3X0Ftg/2LVt18gC8OXWOEzN1gnM4F7I3m7+iLNsoq8hcczmcdzgcG7xxzegw0Wru8K61C80m8OrEOZ4/foonjo3x4lSZs2ZppyQkc471euPPXRp7aTwiHxN5Y9B7rh0occ/mEe7etZ0bNwyQ8823XBkGdQeHxs9yvJ7gfIRhrdPJOh9qFMwThTq7h/rYUSosfUU6mK7WeXlylsQ3ziGGzV8h5gFHVK9x04ZB+vIRS36TbJd9Y3KWk+Uq5rJdfN5yWPaNCwk3b97AUC+ds84jAV4aP8dMMMK8ZXYEDIdLHM6gzyXcumVk6S9ukGCcrCQcPjtFvUd79y7beh5HyRJu2DRCzl/ksi7lWHRgWVZrzeBYJeGxt07wxJET7J+tcHymTC1AYoEqvrkPeuebWXEO8BaInCP2juHIcX1/jtu2jPKevTu5aqifUvPa5NJrT4fLQ09dW0Vk3XNmts6bJCKXsQU9C8eJqvHQkVM8fuwkB06e5NhsjQk807k8Z6MC0/kSwQKhU0fUdWp5QJS1ggqhxlBtluFahaEksLkYcdOWTdy9Ywvv2bWFnYVFYrKr2IA5A3z0zz/P4VqZ4BrBk+V588bNfge4YMTeZw07IwcUnacvF1OIYwaKBbYMD3D1cD+7h4e4aWSAbcUc3gI4v3Cd9Fojz6Dq4F995mG+NHYWF7kFARRIA23mwAfHT9x0Jd971w3kl2kRZoFfe+x5PrX/IJU4wlwWCrNo4cKmoYFV4xZsLMc3bSzx77/lQfoIrOgkd9lmSBwcKSc8cniMh44c442TYxyv1JiOc0zkipzN91NxaU+4PRQRGdQWXbwIbwmR1RmsVdlYm2XY6uwsFdmzcYQHdu/k/p2b2bKct1/a9v1p4A+++hR/8OZxfBQRsuVe78ETAO8iSuUZ/sWD9/KRq3cs+e8M2D8+zff9zVeoRu0/nSs9Ahyj5Rn+6Du+iT0jw0s/pWTb4C9eO8p//vLXOFfso9YMs7VL96fYwc/dfxffuntrz9+JC8Ak8L1/9QWOlaskbSvFkZ7DcOAsolSt8sHr9vCx+267sPcw438cOslvfelRzkbLdQZcXunHNjyO3aHGf/3I/8ymxa7Z3Zyv6Gt2oZwN8PCpCb7y5iH2nTrNsZkqZ4iZiPJM5gpU41y2zxrWdr5c7FD3GLmkxnC9zGC9wiYLbCvluWHzRu7fs537toyyIdebwSsRubT0+nVPRM4nuxmZEHitAl/Zd4DP7nuNFy3P0f4hZqJhagMOvOEduJBmQoTsbxc2rhc2XYy0g2zAdBQzHQ9yvDgIIb1T9MjpCp869AI3fK3Ct9xwHd940zVcUYwozl/O1WAw6+DA0AYO1KHuli94kr18MwOl2aHLgktmhvdRmmliEJeN4swUoweP0V8uc5Wrc+vWTdy8dw93797F3hzk2gJfPRU8AXDpXdvDpUGeH+nDHFnQrf0p2Z1wHN5gvNhPHZYtgFIDjvVt5MXBaWZy+eYdcdcxgLL6Pez2Teac46ZSSLuctgLbs60+QN2MVyvwxX2v8Jl9B3jF9XO4f5BqcSOhz6WBEiPNCGsEuLKvzdda9G2M4BzBx4z5iPFiiWCGt4iB8Rp/99bT3JGHb73+Gu6/7mquKi5vqCgAZwr9PD+8DR/5BfvcumaBzblZxvID6eZcYtDUgHJc4PmRLZQ9OOt8XjNnYMaO+CzVKKZmkL+Q/dBg694dnPz6KPtLQwSSeU9IMzQMT2TGV4+O8d7dWxm6gLdYCwnwymSFr7oBZoaiBaFWl53JvIvYWp5m580XFjwB8M5xIl9i/+AmTuX6l2OxV4jhzEjqM9T82+gCdAj+N8LY4wEeP3qaTz/5FI9OJxzuH2YyN0Qy4PFAaJ6fGn9MM7jbOHd1EhxU4xyn4hwnrI/XXYQLgS+fnOFTbzzFXXGdD7zjTh7Ys52tOZd2cHrtxoSIXBIUQBFZxxJgysGnHn2a/3JwnJcKI0wM7sScI7g6PpA1HhwhkLXY28b4LDEPN9Bq4KT5z5Z1sAMTcZ6zQ1t4IwS+cGiSu17+Wz68dycfvvsuNuZhwQ3TFW7MpMMUHAkGlq4AW8YunmtffdDK2nGOYAEImHNUcVSjPGdLo1jJ8ZKDT5cTBp5/k9uffJFvG8zxgXffzdUbh8ibpUOneqyx5wCzkH0uv2DZLLsbjXNgyZzhFsvFCATnsCwY0D46ai11Wo6Abw5xWFbZYRscnAoJf/7Fr/KJsTqvlAaZGtmFmc+O0gTMNRLZs20CONcasgNUFm7KOZ/Cst5Quv3TxPjg4FyU45XhzbwGfPHAOLfve5N/eu02vvWOm+k/72t2MW9Em3MeM8PmHWs9dGhcFMNjAaJG/tISIyhp4DbBrI6zXDP7aUHOVbYfGIYtGH+zNHsjuG50mANlCB1ew7LzQIzn60dPMMbNvR1AsTRT65kjRznn8nQOtvr0JoE5NsUxdwxf2OsD4NJAci+cmxZjWT5mes1qHV/L9OLMOnji4HH+6yNP8uXSJg7nRmEkHVaWnofSIcPeHOaMkLUsnPm24WKLB5/ThPn0mHEupAXwvXHG5zgzvI2XcXzm+UM8+PgT/MDdt/LgdVdRYkVzAUXkMqUAish6lDV8Hj90nF949jW+WC9SHdhG4hpBA4+zrNFiWeqJs+zn6T2gpb2NgWt0qHwWPGhrdWW9SCMdElDD8+XBHTx0ss4n/+7L/MxNu3nwqr1EUaAtlLLyXCDB4YhxLGcFlJb2tufcG/t+zs8bDceQ/WoqX+SR3CCPBvhP//AsH92Y4/uuuYLrdu7ICuP1VjfR4fHpPcNFIhcuC2ykHfflXnpPK1DjCJhb4eExS2QGPluONB8gzcIBWtkFDW93pWR//5XXD/Fzz73GI36Y2mA6bMCZYYQs+yCiEUrJurpZnQzfXCBry2RZ/O3aA2Hptm11eBx1HKcKMZ8vDPPwwSl+9OTD/Mt338HO4Yu9894KJHQMDSwhc2a9mNPJvpCAqTPSc2hjIEanv7U08OTIjpOlHyuNzLqNwO1bN/Lp18Zw8+pjtN7TqLrAG5WENyarXDXcm0NWGit6CnjsyHFcVKDTkM5GWDbnYGcpZsuFvEcjymi9HTwBmkGexnXck7As12UH5ZkyP/f0fv7b0UlOlLZRyUdtmZrp1aERAGmrapQFagNp/Z6lvp1hFmfnpSwIQ0Jwxlgux1/ndvGV54/wT46M8/G7rmd0aKDD8GQRkYu39q1QEbkAacNjBuP3Xnqd7/vqc3wpFKjl4mZxyLRREpjTSrc07bvRwWv0nxqFAhuPOUMSmv+Psu8SzIXsuWmnzVnaeAmN18PjnCPEMY+6Pn7s6Tf5tWf2U66TBXY6fpxl1XjJKPtX457Vwoc1lzm4xZ6z8LHg/VyaGRCyUI21PXNOR6mxwvEEF0h8YKw4wO9Ner7nkZf5vRcOUK8mtK3Mxd90FVnb9l3s95YF2VYiAyXtsrdCFc58tn+3P4zmLczmjs2KPlod/baHa1ShyBZlOUaQGZQD/M4Lb/BDX9vP476PWqOEjmvd2SX7GlzAEZqZCNmt9Wy5DUdI6/A0gi7tb9SWa+aaQYyo8dLZ0JG255unHuf5RDnmh77wNb42fg6StijSUneGttedH4Rs/0VjdV7og2ZIaanh1MY2bUQ4luvRWIrGS1/AzmGtwMnC8wpt+6XDWZqj4i8gC6WxKxQMbt+xjb7KuY7Xh8gar+sZzw3x5sQMjVSG5T/6l4GDsQRenkrSLLaODG/galWu27KR0Qt+j/bg31K0jrXVFTX3o8Z+ctGy/S0BXhk7w7d/5mH+6OQUJ0t9hDjCB9qCyEb6zEZ+aCPzJH1CsCjLOLPW813jfDp3GeedgVo7Z+N7ICHmTL6f/z5R5UOfe4wXjo+1QrK2FutdRC41CqCIrCcBJgN87IuP8ysvvsXxwU3MRDFJ1uBvdOHTpNn0kX7faHynjZhGsnEuJBRCkhaJNZ8NQUgfzjyF4Mll05020vrTtkcjLbdx121hR2M6inmrb4jfe/0Y/+dDzzLlfXsfIrWCN4W6v3T6YRw0OxxL6f7Mb341R0W1D49qf4e2P3ZzXgmqwJk4xyulQX7l5bf40S89zZhBsrr1UN+mRjhqpbnm+lu4bQxPSDsErrFnLm/Xt3NXuNUVau9uZ4u7DLGTwBTw0198gl/fd5ixoU3M+NzCdd0h4NbICGrdBk7PBuY8Ifuds3hO0M/hiM3jiAjZXEJkAbTmh2p2utJ3SJxjPM7zuOvnX33hcZ44V2kt01K1rajG+nTNjlYWJCNgF/mYuyWyYIpb+GgtSuOsudyRN5ftm+HC1xFuwZfF9sv0nJZ9d4HbwQM7B3KM1iod96vmtwYz+TzPHzueFiruRS7d2mcTOGqkNYEWYUBfvcr1mzdeXA2nC14F2TXZZUWSWdnzlQMaQ1ppHPPu7V1oqg4eOjrB9/7Ds3zN93E6X6SKI+kwNqjRMnG02hk0zlG0SnI3j0fS63JEIDaXDY5suyHSPM83XqP9EUicYzJX5Nn8EB996Hk+/9ZJao313ngDEZGLpCE8IutBdrGfTeDXn97HX52ucrI0QtJsAC24L9PhJQwXsjtBLmKzN7Z4Y0MuRzEXEfkcLopILJAEoxbqTM3MMm6eo/VADYfzLhsq4EjrXljrrW3h+806OFQc4M9Plxn4ytf5qffcyZYLmFlzZWUd8pCw1MHgjqyj1bh77Bqv0+iAZZ0k5zAL6c9prKfOjTYDZn3MkeIQfz1do/KZh/h333g/VxboPCWjdOZI13M9G3K2KiGd1lfnHHOm94B5EZULVw6B33jqFT45XuZkaYh6CAteb+6Rb429sRXTSwy8Y2MEo94YimEol6fg8kQ4yqFKNdSoJIHJWsIpc0zWDHz6d+2h0ebHsfb3TB8TcYEXiPjZL3yN33jfXdw0OnhRM+cYUA91qDd67GHO7y5Gq+Mc8LHLCtN26OQ5mgVaHUAIdMycu1jNKaWNVdpFl64RmHGwPQe3bhjkrXpIh/G0LWf7Fafm4dXxM0wCm83SY6CHmKXTYu87dprxKCKy0HFeocYcMFtcwg2bB1d6Di0a0VVLsuy5OUfZSr5rI3BnEJoVUS5K1cHDJyb52Jce57nBbVRdnUaNqvS9GrLbNc61gjgGzoyiJWzNR+zIxWwslCgU8kTeETkgpDMFTlUqjM3UOVQ3TtUT6niIPOmQn/Z11/450/cNOM5FOZ4tjvBvHnueXyy8kwe2DqUBsl469kRk3VEARaTXZRf6ioM/e+kAv//GKcYHNlAjYbFWwPw8iKIFhpMqVw30cdOVe9m5e4Sbc7ALGABKtEZCZ6UoqZOOHT8FHABeevMcr7z5Jq9NTHA6ylM2By5qNZo7BSEc1J3ndGmQPzl+hu0vvsH/fuuVDMx7zlpweAYs8O49O9icj+c0/s6nXk+oJwnVeo1avc7Zc9OcLZc5V68znTimfUw1ikkg7Xw4R53QcVO5tnuPwUWM5+CT1QQ+8yV++YPvY0fE2+6EXxacw5mxo7/AA9u2ENncoVQr8pbQHBKXLoLjnlw1u6hmG+1itlvb8f7/vXyQ3zlwgsn+EerYgvjMwr9NA3UFC/TXZtnbX+LmPVdx9bWjXBfBdmAUKAI50k5iLXtUgXPAy8Arp2Hf62/x/JHDnPI5qlEeM8ty11qfv32RnYOJOMfjyQC/+tiz/NoH7mf0Aj+/GeQc3LZ1I99b2oiP04Du201YSzPoYMo5Hnr9IBMuzgojz3v/LCAaO0chSbh77252L+e0qA5KM9NcPdiLs7S0TjQDwH17tvM3B07SKpqzUAAOzZQ5UIEthQUvs/bMKDvHc0eOM+Nz5JIEF80dxpUm6jhcgOtHBrgyf96PvCwcxoh3vO+qvZSsUcOjPQ9jpRhpHTRjV/0ceX/h+7ZZOmT1+cky/+ZzX+WZjTtJkpDdS2gFgVqnRmveRIgIlKzOnshz+1VXcve1m7gpStshg7TyR2JamWgzwFngILCvCs+9epJnXn+NwyHPrIfgXYemR2Ntpuu27jxPlkb4d194mN/69vdzW3/cM7uoiKxPCqCIrAOJgyePnubjB05ypr8/C55A2lBo3XF32c8caachTqpsGxzgW2++lg9uzfMuB5vaG4eN79sbIK4VC2k2hczB3gHG997Cc8BfTcDnX3iZ105PUrV4TsOpWUqvkaUChFDj2MAQv79vP7s39POPd23JGlxr09p2WZrvlmSWf3v9Nu4rckF97UD68RKgaunsA8cTOATsc/DMqcArh4/x1rHjTFQTLNdh2AVp0zJN4YbgPBAxm4v520rC1oe/zscfvJNiT/VI1tLcoRBzfmOOfEi4peD5gxs3UVqLxYM5t+ffzlZLgNemKvz8y0c5MzhMta2DFVgY6Gscfd5g2AU+cPvNfGhXifs9bG1/4rzjvFNP8T4DNsLsxt288M7dfGYG/vSJA7w5PoHF8ZwgTtYdozHUJbjAdBTz17UhbvrqM/z4A3fQd4Gfvd/gI3u28pHl3OWzz70f+P5XX+VZn6Pi/YJjshEQixJjY6XMR/ds4vuHlzGAYgZsav275w7rdAX047j3yt3kXj9NvT3LkLnZSACnQuDpw0e576rtC68ra844g+PlsXHwwwRqC7a5AyykU9DfuHUjw6TZEStZdNSbcWWo8Bs3buQKg9bAmpU1NxC5eV4NpCW+hoNp4D8+8nWeGdpBzTzeBSJLpz9vD7Gm5weIzChYws07NvPB2/byXTnY41iYCXKe/ecO4NvzULl5Cwdv3sJfV+Evv36A546dohYXszLnjRZLK6PHYdmwxcAzA6P8+iNP8dvvv5deDGGKyPqhAIpIr2rL6n0jgY899hwHC8PNcoitpzUauAlmEZBOATqcy/GDN13JP796hO00MkzSqvvN9uHCfNv0nwt6aOnCjALvBe4bgdPvuYH/fKLCH734KsdmK+Cysq1Wb83F0lxMB8E40LeZ33lmP++6YgvbbPnjJ0Z6Uuv+ko2OeNtd6AtYjkaXKgLyLr1juymCm4BvBtjqqW/dyWvVnfzh8QqffOMYb56dIPHZwKHmXXW3YJhDoM6ZQpH/cWKCvfve4idu2NUa/tMTnZLV1l5hZLGU7awIZFjjvOxmB8BdcP+r0eg34HiA//DlR9mfG6KefeZmvaFsmEl7An4wI3aeB3ft4Rdv38TNERTIjvn21bXguF5sIQMlPHcDt/fBDz94Df/+rWn+5JkXmPb5NKaavV7IUumbVUOcUY6MPzh2hvsmy7xnuNj4gJ2XoX1xGv9boc1oQOKh7Be+gZF2Dr1B1UPNgUuWeUGcW7XD+MKH07SeXwSuK8Fen+NIgIrVCYt0ts/lh3ji8GnYuxWLfG8N4/Ge/Wdr7J+uYAMJybzhSA3OO6J6jTt3bU0zIfwKfwYXNUo8g8FFJIJc3Ns2vmncIJlfOf480iCP4eqO337hIF+aqjHTVwAL6e0c137gOtIp5QKG54qBfv75rdfy0Y2OfuZdozu9/3mWqQBcBfxUHn7k3mv47aPb+O3n3+BktZquV9c52xMipn3EF85M8v/sP8JPXLcd8Es6L4mIzKcisiI9bgb45IsHeCbqJ3S4T9WoeYCl94IjC2yrnOUvvvFmfubqEbZaeqcnBmKitG1zQY2Fue/pgbzBNgf/cluBP/3GW3hPoREISKcrblRimP8I3vN8Df7jo8/jMMISa4+sjOV9b0faYY2zRxG4Lg//eneBzz+4l19/901cbwmFrDina/7V/EhWDEScLA7yh8+9wr7y/GW9XAdvr4PPvVig4gL+2Bw8dmycz5U9yZwop2VZJmnWWSPkYs4xUK/y07dexR/etYnbI+ijbXLSi+pHt6ZnzgNbMP7d7n5+8xvuZXe1SkR7IaOEdJrudJrj4AI15zjUN8QfP/EME5DOrrGUW+xva/11t9RBXSs5+Gu99NMKwHX9ET5UW1mFHZRjz0vjpzkVVn4AyoVywBvjk5yNCtke3XkGFm+ejeUZdhRz2V3FVa7ivdqntvmXnSVoBEhfqdT47/v2M1Hqn/cCjUw0hyMiCoYPCR8aLPJn77uOj250DAG5JQ6VPZ/Y0qvkCPDjOwb4w2+5ld1hlrRCyiKv7tIbJpN9g/y/T+/jzXJoBoGBdXF5EZHeoQCKSI9qzArx9MQsn3jxNaajYodnZWmqlla39w5uzBt/9J3v5b4cbAYKjZtMy30z1WCjwTuAX37/XbynaBBqWcps2pmaPxtGYsZEXOJvDh7n6fGp1bv1tkZywAYz9gDfvSnPH3zwHXxkez+WJOeZQjINiFWd41h+gN/9+iskc27LOzX2LkUGmPFGAr//2NOM5zsPRGpMFe2IwRzb6mV+/h/dyz/bM8ROIL8CO4c32IrxoQH4mQfvZlNlEqyeTvAD2dfGzD6OYAmzRHzx5FkeOjnVlpWgHXe9KAIPbN1IUqtnQzM6CzjOBs/h4DsMLltbNeClE+OcK/Rx3miBBa7pi9nWvMRe2telixWAT7x8gGP5PiouWvj75n4SiOtl/smWYX7pvTdyK2mww8+JWLwNbS8xYvBu4L98+/3ckItwoULHAFhWHLpCxPFcP5945WCritz8cWkiIl3oKiHSqwwqwKf3H+St0oZF2h2tIQ3eR2yvl/np++/ifqAv69w0D/IV6sOdOR2YAAAgAElEQVQMArcDH/+mO9gZGbEl81olrYfDUXURJwsD/Mn+w81KLpe2NDtnk8E7gX9715X84PW7yYV6x02a3iNNZ1uZjPJ8+q0TvHB6nHqzWO8qLrqsGufSbf+Z14/xXMgTxeebTDVt7Q/Xa3z3DVfxXSOOXbaSF/T0/TYB3z4a8WP33MpAvUrcYVrYZkYcxqn+DfzNK28w0/ytdt71Ig+8c9MQ3kKW+bgIc8z4PF87PrFqy7ZUU6QZKEkcZ7PHdX6ehcC9OzazofmDVVrAdSQAx8s1/vqN45yNC4ROu0SWWhlbwg0Def71vddyFVBqT+l6O/GTTqlhDoaBe4H/697bGK5VmxOwL3hi9jkm4jx//tphTs7MLJKTJCJyfgqgiPQo5+AI8OVDpzhX7MctklbssuoIhVqNH7jlWv6nfuhvnx1xRRcSwBgwuAv4sTtvJF+vp9kwpFkx7Q9IbwSdiwv85cET7D89tdrJ0qurbf1bMPLAHuDnb9jCh67dTTHU256YjYnPbusbjmocM14o8pevH6Gy2su+nq3DFrGFhCnn+PvXD3Gmb5h6bW540bL/Nwq25iN439YRfvT6LWyu12nedbWVylDymMF2g+++YoQ7C3msljRrh7TPepQNRuJsFPHEyXEONz7BollXq+n8K2cd7jorogDcsqnIjoE+YmuUOe3AO6Z9xCNHjq/m4i3JCeDozGzbEKSFn8EBOTz3771ChUUXY+msfA8dOs5hX6ISdZ7FxuPw5hhO6vzU/XdxM1BoP6AuZl7zducZdjQAfHjE81233UwxqdM6Yzb+nz6CSyjHMYddkS++8Ra19pfshdOTiKwLCqCI9Cgz+MRzb/Fa4qjVa4vUC0lzTAzHFWGaD125KZ3jwWc13C6wQNuSzWnIpN/0mfFPtw6xe2iAKFtUm/+fSxsxNecZLwzxF/veYLb5gZdhuXpNWwKOi9I78zGBLWb80rVb2Gs1fEizTcwZjflWnaUbL4RAOY755Mkqk22FO9XQW6jRN59fKHG9cM7z0JkqL52doYpRj+bNEtPYR3wA5yiUp/jh26/hKoMoirMDnpXZPxrrNquftBP4mQfuJOc9njreAo2qR+mRnp18XOCwwV/tO7JCC3Yx0loI8zWGIjW/p0fiPWvEkd7Zv3N0A8VQy7bcwiajmTHjPC+MnWWmXFuszMgqMwjwtWPTHE0ClSwA1GkgksPYnI+5aWOR3Oov6PrgoAx89sQE1QggpHWNFvDkEuPWgRIfKGVH+5x6Kyt4QFlaG+WjV42ylSrNieydw1mS3YBymDkSC5SjmL84XmF63muIiCyFAigiPWqqXuVzb7zGZCmfdUoWjjmG9JofGfzArddxpQdbo5QODwx740fecQNDtWk6tUbaayZYHPEP49Oca/6y8c0l3IoxB+aJceyO4Sfedx8j9RpmHmeGN1vQyK85z0v1wEPNLJTOHUBZ3xIcn3r5VcbiwnmelRYZtiTwkR2buaPfrXi/pJM+4O7BiDuGCsTmFj03EWAm7uNL+w9SrtllHZBYjyLgnh0byFt6znEdBl06B4n3HKmVeXXiHLZY4H61NFKigGeOnmC6eTy1Sne3iyxwTTEtcHrRhZcvdVkGyr6zs5hbtEwrOGOwPsuHbr2BUcCt5mXKQeQCt3v4zptvob9aS3/eYap2SK+rz8zUGWtPAtV2F5ElUgBFpAcZ8Eot4kQNEhdn1UM6BxYiYHPs+bZrtjFC60b0qnLgnCPG8f7hmC2LdPDNpaGg4IyKM54KnpfPVtJmeePjXcLxk/YGWuyMDwzDTQMx3hLcIiO3A466j/jKW8eybJ05lW3kUmBwplbn8UNHmYly52nHOwKOfOT5X++8Pj3e16jRXwQ+sGsjcbDzdDwclTjH67OzHCzPLvYk6VUGd20YoFCtwKKDSNNMw5rL8cJEjVr2d2uibaTOTBJ48vBRZnP5tvJfC7OgYjPuGh1Os08u5WvP22AOTtTgtbojyYrHdiyBYoHteePBrYV0Ta/mZcoAPDmD77lmlKsLLhve3HnKoeAcR5M6X3r19Us7C1ZEVoRa4SI9yIB/OHicc77QrGpvizRfYwu8c6TEFljsPvCqutLBu3bvJF+rdfhtNkwl+zTTPuazz7+cFplsVsG/lG8D2ZzbcpuB9125i2K1SsBji/WGveep0+c4dXlU3b3smIMXp2ucISbxHrIiwp1Eoc6N/Xmuzad1KtZKHrhvtERUncVC5x3TuYjgHDO5PPtmksukaPSlw5txfQkGYo9hHYN1ZmB4kijHwydP0+msv2oadbbNOFarM1atZsW3s6FlLjQqTTWfZ7Uq92weaR1Lq1E7bJ1JgDdPnWHSHMmiY4MhwnNFqZ8trMEqdK2vVwB3b9tEZCFLRlo4rsyAJIp5/K2TrSxYEZElUgBFpNdY2mB57MRppn0MzmX1MRY+1QFxtco3bRuh2PjjtWRQTAL37t7BQFKZszzt5SUbHPDY4ROchjl3Dy952biLQpJw546tjIRaFlhyzJ8K1JGO7T7q84zX1L6/5GTH+8PHxyjnSllTf/6MIS4b/mXkkjr3jfbTRxowXZPDxdLA7c3D/YzmPfH5JmkBylGOR4+OaeDZOuMdbPFw266tFJIakWvNsNT+MAIV53h6+lwrGL5WXJpd8HolYcZc2/myfaHSn3rnGIpjbhnuI16LZZ2/WD2qBhwcn6AWrLnFrcNVyAfHzsEBhljFj9XhgjgIvGv3dgYrs20ZKAt5H/PimVnG1jTqJyLrkQIoIj0mAOOzFZ4+fYZyFGNZUdFOBey9GcVQ5+4NJdJJT9e6NWb4yHP3liJbc775M6BZldG1DZI37zlYDxyeTtpf4hI2d/iNd47r+x27+3NEGJ3iZI0AykRc4MjkWRLWfivL8jLg62PjzDgHLp2xam4JWdf8z9fq3DPav7YFLx3EzjMaea7dvJE4LD64I2BUfMS+s9Pr69Beq7FRPcURGzxwxU5GqhUac6+k+YNzt3ndw/56nbfOVdcuUJZ1pgPwxPFJyrliVtDYp0ePeVrTbEPRea4eGeaq/gjfK5NE9aAacLqaFgsxF9KhuB3H8NQYKsbkOhaYXSEd4iORJdy5ucQel+CzumNuwVXTCMFxNM4xVklaryUisgQKoIj0gra7KDUHr46fZSKJSLo04s0Zg4N9XDsy0EMzCCRsA64cKKUThmStkkWSaJgs9nNieobm8J7LqBHjvGcTcNvQKFFCVqRxbuMzYJRdnWkX8fLR49SAkKyrrqgs0Lb9HExXqzwzPknZ+6zo4WJxRCNHwi0DJWLWtpRwIM2A2VsqkbfOQ44MwIy6g9enpqnVlYOybrRlBL5rex+bcjGhQ6DM8BiegOdsKPDswSM9MYzn8ROnmPWdB7V6PD44CtUq927ZRI4sm6tRSPQyugYthQHTlSrmI8CnAYkOERSHoxDn8M6taaqkM8d24PZtWyHYotV7zCeM5yKOTk8reCYiF0QBFJFe0NZoC8CB6UBYpPHXrmCBG0YGGaRZWmRtOQcWMQLsGhzAXBoAOJ8zuRKvjk9Sc5dhy9WgH9g+2kfVu441UNJZixwQODEzSwXw0WW2ni5hCfDamSnGq6THfLZpO21hb7CxOMCegX5iWLSw9GpoHK17RgeJqWMdpv9qfIaq85yoJhw5N6NhPOtFcy5n2AXs6MuTdJwGOAGXYDhi73jkyCnOrvayzjM2U+WFM+eoLHINDUDwjpILvHPbSNoQvgwvP0uVADP1Gjh33nscZuebL3AVOc8gcMu2UYILBL/4hi37IgdOjK9t8WMRWXcUQBHpMVXguakpQi6eMzFNpzsksQV2lvJrfyC3D4l3aYHJHSMjRG2NLXOd2yc+ijgyPkGVxh3rVVni3pCtq50bRsACkevU9Gx1k8emKlRXcfFkpbQO5gQ4OlujajZn/+90GOQsYXspZiB2eMIaB1DS5b1yZIRCMFyH4F+gddyXQ8IxBVDWl2z32gBcs3kTPnQ8g+MtwuEJ3vPS5Ayn6x2ethpcOt3u/vEpTtdCVvB0LsuKeDscxSThhlKsuEkXBhA7cI1sjoVFWQFwMFuuUM++X8sVWzK4ZdsW+hYpcA2NRXQcmTyb1u5ZzaFHIrKurXm/S0TaZAUlD07PkiwcsrtALgSuGd3QaqesVYNl3vvmgO1DA8SVKkZWBHfRQQmOk9Nlyo2XucxaszGwoVSkzwLpTfy5KyCdmMgRHIxXalRWfxFlJWSHRBU4NF2HXL5rOCQOCbsHS1n2ydpPZ+2ALfmIvLmOKf2QZsalFQg8E3WnmXjWk2yT5g1u2rqRvsrMvKlh2wUSMw65AqfKbWGyVc6MrALPnDlLLUqPjbbJWdqW2IgssKO/yO78ZXfJuWAe6C8UIGls+86b1KKI8ZmZ9BifXwd7Nbl0SNbmnGNjvYKbsyytwsJm6ac5PVOhgmrgiMjSKYAi0mMS4Ey1Nmc4x2I3c2JgR39/M/NjTbUtpAOGczHF0MiXSFswi3SxODVbZWo1lrHXZK26viiimNQIHe6AZRVkMOc4W08or+byycpo28x14OC5CskShuxFGCO5qLlPrDUHDHqIOmYm0LacaXHcsZqmMl53XHqduXnTIJupZ9s0Lcxqzc5oazae04UiLx0/QcK8Wk0r3ZvOXr8CPD42SYij5g8X3ItwkKtXuWnrJkbUCu7KA0P5As4smyWuU1HWdFjUyXPTzGb/Xusz1EAEmy3JsuUaDZQ0mJuOTjMSZ5yaraQZKGu+xCKyXujSIdIrsrskCTBZ7zTafKEIGMzHPTlhRDGCvNVwzZTpzlxinK3V0nHzl2EGrTPI44kTOs78kWagpN9UQl0ZKJeYBDg0M91q4J/nWPbAyEBf+o81P1bSsTlFn2acdZolLJVNeuo9p8qzCqCsM43zz9483LRxFKOteHHbLusBvKPi4ekjxzhLVqupPQVkFVSAV6YTQlRg0SauwWCocc/eXWtfr2MdiIENxXw6+05WNrjj5nTGWLnM+CovX0cOShFsLBawLAuu8QtnnpwZBauTr1aYmT7HZE0Tb4nI0sVrvQAiwpyZfuvAZIgJS6gW4JOEYdebkdBiFJNLDE+OJCs/2HHmQ++ZSgJjFaCwygvZI2IHPljHdeSguX/Uzahb+y9kXWoWBko37ekkwbxrBsoW4wls6C/OfY210LaMRcAnddwiC5/WQDEs8pyp1VUDZb1oO88Eg40O7tgywqdfPwXe4S3NPgkufTgDF9I/e3HsLMcC6bVp1fbTQDA4VfUcTBzVqBGqm3t1bAT6tuU979jgwQJ0qJUiLXng+m2bcC8fIq2C0nl9mTmOhYi/O3iaH9+zcc3bJQVg60AJm66n5U1CII4KDAwOsmm4yD1DQ9wz2sd7CnBtLt3PV29/FZH1TAEUkR5iDsrAudB5RpYFQiC/4kt1cXLeUcQomsvSYztLLFAGJmYrUCikhdwus1tBAbDILToUy5F1UhqdbFnf2jqnDqgmgUZGx/nkzLGt2NfqmKxVMM21f5tkhTk7LXxrn67jsAWFnaRnuTlfKAF37NlFYf9JZvNpTaZG0WM3788OVWvsH5/mpo39q5cp5RwVHE+9cYjJYJh3eLewzLK5dDarvYODbG8ssJxXDOwZKLAxyjGWLL5BLfFM+RJffGE/P3LFu8g50imN10ge2DMwzMDMJHeP9HH/zi3cv22E64tp4Dcm/VoA4vPMLiQiMp8CKCK9wrXKiFTdEgrCuzTO0JMz2hrEUdqATSx0bZmYeZJGw6wXP89KybZzPQTMDO8d1mHDh+zuvsvqEfREzRt5+wwSB2eD6zrdN6TlD/N+TvRizcWkd207F2DMalCYJwLKYSmfUnqNIx2mtaMYsyWZ4RCj0DYYa37u0XRugFdPTmCb+tOMj1XZTx3TwKOHjxOiKDuXdojfmCN2cO3mUYaA3szf7C0O6AOuK8ZMTJep4dJZt+avXJdQjiNemp7m62crvGukuPDFVvHaNQD80B1X8oEYNgOD2aMInYPQOjmJyBLpyiHSC7IGhQE1g+p5pt6by85XfGBNNWr1d8+kSe8SVuuXZ3WE4KAWEmrWmuGgXbN9Z8Zwvni5jnK6tLRtZgPKS5z+wQGR923Dutb+2PdZkYzFlqRRttGZUTcFUNalbPfcmoObB0vEWdHgxbblbK7AiyfGmIbVuz4ZjCXw7OmJLKK3yPOcp1Ce5frNoxTphSNofcgDd2/cQFTPBuF1XHGBmjNO5Yr87jP7mVnjS3oO2BPDu4FrgK2kgaA5HZ+24ve9EJAWkfVBARSRHmJALYHzZMku4Jzrnq2yVpaQFpvL0vxrSX3Vp7zsFdP1hHIck3QInLls1LnD2FDIUwLMLs9g0yUla7gHoB6WVjTaAbH3rX+soxa/mXXMrpL1Yxi4d8d2XFJvFbfuIOQi3pya4gznedIyC8CpsnEcf/46O2ZssRrXjJQWnd1OFsoB92/bhK8leHw289J86blpKs7xtycm+dvXDlGFudd0rXARuQQogCLSQwyoBUhc5+bJon/Ug42SxswM7V87iXF4s7SCG+d54iXKgGOTE5RzBVhsu2c/3zTQyEC5zFbSJSyBJc9MY1jz5vr6C0W4Na2HIG9fCXjX3u34HJxvDwz1hBOVhBenwuplSjl44/QkZ3IDnPcdXcK1G/q4oleLh/WoIvDglj52j47izRY5lj0QkTjPVF8fv/TSYV4rZ7M2NTfI+jtziYjMpwCKSA8x1mvnaCG3xKJsFQ81n3UiL7NxyBZgFjh65gze6jgXdVxnabPUsXOwnwJgmjXikhFYrH7IQs3pYkXWQAG4cSjHtkJfNoyscw5H1TtOecfXDr2V/mAVzukzwAvHjlLJF8+bWeLN844d2xhtLJeyoroziIAR4MPX7mEgVAnWKc8nIT2jeWp4no9yfPzvvsiRaut1FPwXkUuB2mIivSBrwzUyNZbaxGg8txebgCEbnuDIOomLPrMxfKExY8fl08By2axLRyfP0awo20ES0mFdN+7ZRQFNtXhJsNaX5ALHEvRM0pmBI8LjO5a6SIefpSHhAD1br0mWyNIslOuLkLMAFnCdtqkZM3GJRw+eoBwCYaXO6W1vPQ3sP3WWOnWMQHAB67BsfRjv3LGNQcguoD1xJPW2rJGRA75zRz+jtQRn7d2HRuC/sS4D5qDuPJ91A/zCVx7jTONXHSr76qwgIuuNAigiveIiR7D0agDlwl2eDdmTwIEzZ9NCmx1DTQ7nPKNWY2dfrmenrZaLt26zzlw6pMg1QrmNQFD2sMaDgHkIanKsa450KMcD20bxtTrO+Y47rvOOei7HwalpTlTqK7MwNucLr54zDpybzobDZSHGDsu2KVTZNZBvTUG5Lg+8NZBdnq+J4H+58yYGauUsPJreImkNPp07qfVUvsDfTlT5uS89zdS8S3zjvHd5XvlFZD3TNMYiImvo+ePTHKk7rAiLNSe99+wMNUYjNTallzjyIfCOoTxbcg5bEB9pC+/WA3tzgdwqL6Esrxxwz4YBcvU61fzi8Ye6BaajiDersLNvBe7WubYvBvvGxjlNRIQnELJkp7mzQxnGVTnHhmi5F+YykF2a+izwv129gUcP9vGV6QTzvlkcutO1KYSE46Uh/nLsHPXPPcrP/qN72JaL2l9SRGTdUQBFRGSNJA6ePnSSyfxAc7hTJ8ECd27ewKham9JjNhc8v/wt76LCws50o9PcuNPcTzoERNYpB7HBLcN9bCzkmAkJ5juMP8tGacz6mIePnOL+kZ0rt0yWZjm9eOIks4V+YiJqrV/Ne65xz9ZRNrT/TOfU7mzuP/YafPSuG3n6sw8zOzhKzRoDdRdKAHPG4dIAf3ZumtnPfJlf/LZvYIS0A9Kckl3bQUTWEeXTioiskQngiWPHmMkXACM4n6VE25yH1RM+cPWV6bh9kZ6Q3XU22AxcAew2m/PYZaQP4IpgbDRDN//XtwjYFDvu3L6NUkgWbUQ6oOIjHj81dv5phS9WdnoMGNPAq2fOcDaXo+LcolkxDrh351aK819Hzm9OcCOigPHNI3l+8p234qvVLnXbDGcGZpzOl/jTMMhPfepzHDgz1fi1iMi6owCKiFyGEswghLR6w6pMxNBe6CKktU7+4q0xXq1UCC5JJ7SwbHmcNetHeALX9g/y4JY++ue/jsiaSbtM3rV1npyb96BVGsU7Fey8FGTb9N4dmymQnDc4UnV5XjlTZaK8zHVQ2sptOAengOPlAM5wbVVQzDVmrjJyGNvzBe7aOjw3gKJdcmka68mDc47twPdctYn3bh7CAhgRDtfKOnPz/zD9vhJF/KWN8P2feZQvHBlv/epSmoJQRC55CqCIiKyG9imTPJwu1/jdR55gotTf6le6kBWSzeY0MEdfYnx49yb61mapRUTmiIB7NvfRF+od+7uNGVlqPuJYrc4Lpyabw2qWmxk8MVnhVL2eFjNuj4Zb+j9zAUeNq0qOfhQzWS5XAP/pPdfzruE8JavjmsVk2wv4zs1PMRwW97G/bwM/+aUn+cOXD6WbzC06K7aISM9RAEVEZBW0t+ureP74lcMczfUz4zwhGM48zrL0c3Ng6dSwwyR8eNeGdPYd3Z0TkTXmgKsiGPER/jw93oBRz8c8OTZJdbkXoFlE1vHY64c55+K2mWBaTwMwc/gQuHfLBhX+W0Yl4BrgNx64kduLnnw9IeCzzB+3aEJJLSRMRTneHNzArz5/gF96ch/TNes4B52ISC9SAEVEZBU0iuVVHHz2zTF+68XXmcqVMDzgs2mM02khHWltiSFL+I6br+OWPp82/F37i4mIrAGDbRHcuG0LcT057xOTKOLxUxNUVmhB6gZPHT5BOVfo+Ix0WIkjlwTu2TCkaeCXSxYdyRnc6+BX338HdwwWKNRr5KKoOcFxx5l5nGEYsz7ijdIQv3donF945OucrBvn25tERHqFAigichlamwhExcFjp6f5+JPPc2R4lHLkodnUNALWjLQUXOBKV+MHrxklpu1kreCJiKyxvIN37tpGf73M3OIVaec4HY7hqLuIl6qB8nIvQDZN8bHpMq9PnaPsFzZnDYdhOEsoJTVuHywoA2W5Zder91jg//7G27hv0zD5chUj4LO0ywWZKNb4U0+diKOFfn7tLHzsk3/P8QQFUUSk5ymAIiKXnTTrw2X1RpblBZtTd1rj39Ca2dGgXKnyx8/s44e+8DBPF4aohZi0mkB6ny7gwKWzlDjvGMH4P77h3dzefDklN4vI2sriFpjBvbsG2JrzmEvPXeDT7ALXeJIjwdiPY9+Zc2nHuHmCfPvnMwMOzCQkPp+WL+3wkuYMT8JVGzdwZV9OAZTl0p5e4hw4z/3AL99/He/duwMXPMG5hc+ldcsgYCQuvXGQEPHf8lv5F5/8Ms+emJi3KXXtE5HeogCKiFx2mrPc4EnmZHTYBT8M0tfI+hCNvkMaPAnMTs/yhTeP852ffYSPvXaKN0sb03HiFtI+hwUcCR7DmcNZxEC9zk/ddS3f0Z++TrP9qZkKRGQNtUYRGruB3QP9OLO2Gk9RVsOp9TcW4PHX3mS28QLzfn/Bsr9NgIfHJ6jmFxuYY2COYhK4Z+d28jpvrrjbgN+8Yzs/fOU2cuZJt4E1NgW2yDTTDqg5+Pu4j3/25a/x6aNj1OuGBWvtL9p+ItIjFIwXkctQWm3EO2vOuHqxrTNHmkcCaTuvEgIHxid56uRZHjo6xosTU5wyx6lcialCvjlcx2HgHBbAe08SDO8cI6HCxx94B/94Q8QQpGFuozUtrIjIWmibPjixwKiLuHZ0mM8fGsdFEViSBoWbT83+4T1PHh7j7N0wQOs1LloWoK47eHZsglqukGbBLJiP3oEFRizhgV2bdf5cBQVgD/Czt27nys1D/NxXnmK2NNBW4NeaszS1GIlLMBxTPsdLhQ187JHnOHDj1fzkzXtoTOwjItIrFEARkcuOM8PhOeML/OKXn2JXSLjYOQAMRz0JWJIwW6tRrlcZq9Y5netjLN/P2cIwdd8Yi5/euQ2QZqwAkfd4g7ha5+6Nw/zYO+/gm/thI402o9Gc57itAyMXYbnvYGo7yGXKuYgScMu2LZQOHGWm1EdwQHZunds9drwyU+XITMKOUjp88m3zMJXA8xPnqLhFMlCc4Z1n0AWuLZFm8623vOvlPGet0vkqZ3CFg49u62fw/ffxKw8/ySHL4SwCEhI3d0Eaw8KysV9MR3lec0P85vOvMXNukh9/520Mu0Z5dRGRtacAiohclgwY93k+OxvIkSfYxdVDSYslpq3yEBuWA0rpz102nSNmzSwXyyInZmlyyUBSYWfk+OA7buE79/ZxJxDPuePWnIwT9djPr4LnaIC+JL3facu4uppTTDujBAzHTmNg5fLSdjz5/5+9N4+SJLsKu3/3ReRSWfva1et0T0/P3rMvmtG+SyCZReBFYPA5Phgj8xmMMGBsg82xLR/82YA/sFmM7QPG8H0sFmBkhGCkkTQazb7vW8/0Vr1V116VmRHvfn9ERGVWVmZVdXct2VP3NyenszIjI17Ee/Hi3vvukjh3cFVfiWGt8mY2P0kSbpH42dUsvmeLJU7ML0Cpc/nOLhSFKvDSmXOcqMRUCoKqNt2j+JjRUonRiz/aBqBUxXEmhnxMYniSdbbuahIuE6pnMOeSZ8pmsJggFkaAT/eH9H/kHfzrLz/J6/MQB0noVf3TLHlGZr9KnsMVFzLWOcAvHZvi9Lmv8uMffie7csGit6c9Dg3D2ErMgGIYxjYlkfK9COVLlsbqpMb6T7WmRCTe5Y4AJV+t0BcEXLV3Fx8+sIuP9ySx4zmay9GLaogJjE0R8cSivHxukh/9wy9S8BGwfgaUxPblUvOXcmtvJz/ysffRudoPDeNtjDjY3wHX9HZypJKFGNZCNRJlOFGKp3Ilnjl2io8NXknzgsMXcmAlQnh6fJLYuZZOGs45CtUKN+zcTW+aSKod9M091ccAACAASURBVG6Pcqqq/Oznv0xXtUwkHiRmPdMSioK6gCEi/sW3f5zRMNick5elb/uA78zDzo/cwo/+5XM8N1tBcwGk+VGk7v/UJXVXlAVxLBT6+K3KAuNf+Br/9H13c6i3g8ByoRiGscWYAcUwDGMTkFSZ6I0jvnfvED+wf4SDfd3kg0RsXu8FyO2Ex1EJAk4CpzpG0kKqDaUfLhGVJPQrB0hOmQIzoBjbniHgztGdfOmtc8TEi94njYgIL54+zRRXMnzJRxXmgEfGThM1KV+cobGnM65y064dFHR9PdIuBUU4G3Tw52EBKSRzlQfcOhpQVJUQ4YZohtkw9dvYovMvAO8U+P8+fAOfefw4Xz12iqrLglmTkK/miWU94JnMh/xe3M3xLz/Mz991PbePDiEu81ZZ33neMAxjLZgHsmEYxiaQBHw4pl2O33rzNJ/80qN83599lS++fpyZctVkwEtAFPCe2MVU09Vpj+Lx6b+X9ooX/4VYY1TWqfy1YVzmdAC3HRgl0Eqa/6Q5VYHnJ2Z5M4vfuESDcRl4aRYQR/O6LomAuycn3DaYaxvjSYICMV6TRLixaJobaz1fydwnqrgtNc4nHR4C+4Hfum0333VgL52+gnhF1OGXJf9NyMIww1hRcTzqSvydv3qEL751OnVWce1jFTMMY1thBhTDMIxNIFMtIoHJfJ4TXb18Jc7z2Udf4VNfeIB/88TLnF2obHErL2dk0S08c+eRdXul7uWSebbYo9MwIMnXtL8nYFRjoLVdJAZOxfDc2MQlG4sVOBfDm7HgUw+UZrt0IlzR08kO2s1PIZlDstQnous9XyV7S+xUW+3aGJBmOSGPsgP4ucPDfPa26xiK55FAkaB5zyTXR1KPQmXahbzRM8xPPPw8v/D488xu4lkYhmHUYyE8hmFsY7LYa6Xp2ukako4sbqG6KKyKgHpNMy0qImn8eXYshUiE8bDAeFjgiI954dWTPPra63z3zYf5xKHddJEmmm0fqb9tqaWqlKQf04SE61rAQiUplVqXJNMwtjsOGACu7gg5Vml9z4lXZjo6efrUGfzuvgszQTbk7qgATxwZ46w6fN193nhPShRx3Y6d9F7IsTaJpKaMT59AWa36dSy6I6npN3uGbeWEVZfEKwAOKvzAni56c7fyy488wxHNoyJIk1LUQpJkNxkCwkKY5yXXw3987SRn58t85p5b2R3SHsltDMPYNpgBxTCMbYkg5LynMy5TiCMapS8VWroWN+LEEQM+CPDiKIsQ5XLE4kBj1AsqfrFShJMsJj3ZfzUIGCv28Kd08cxjL/LUG2/xDz94D0MOWhToNJZQW8HV1AtlsefWRaiWpKtUcJIoPuaDYhgJXcDdOwa4743zaOCQppmwPdNBjufOjDMLdMvFa7zzwGNvnaTiwrp9LD9mobrA9SNDlC7qKBtNvdlHasnG18sIoEneGVrkF9lUZPmfexS+f0cn+z7yDn78fz/IW/mO9JJkxqTMoFQ/ThRUqQoc6R7iN8emOfWlb/AvPnovu8T8Ag3D2DzMgGIYxrZE8QxKlZ/5+D0cLl78yp8CVYVJYCGGMwvw2hy8ODHNy0dPcWLyLD6fI1r0ZpFFoTDzf0k+BS+Oo50D/MZsxLH/8zX+xbtv5WBv16Wd6DYgU0GcKs7HZNe2sVdd5kGyCt63znESIji/jivFhnGZ0wHcu3sHuTcnqbbYRgOHKIzPlzlHkoB5zQpvwy17xsMTp8ehqx/woEHDbJowpBH7ugs41bYrYZZTSarJaIxfNJ/ES7YRQFZIkpuhqmgTY3+oAWEUJzlQ2ugaeAGnMAh8ax5Gvu0e/u4Dr3Hk/Dl8kK/zBm08pyS/C+LAK6eKJf6wXOHc//4K//f77uTKniStd3ucpWEYb2fMgGIYxjYkcfvORxHXOriL5kLXWlKFOhK51AOE4Lsg7gI/0s381d18efIqfufEOPe/9RaTlSpOQgSIiRcrxSg1N+WKQJQL+NNKnvH7HuPXP3Q7u7u7Eu+VNhGA2w1ByKmypzPPt1wxSqB+XavwZOuhDpDYc30uJrcuezaMy5+iwuGhEkNFOLPg8eISRbee1LvgTCQ8fG6e/YMdF36gdJdHZ6q8VY0paJ4KVWhiPFFVburt5Yp8Fi5D6pVx4YddbwSlN3B88uqr6NYq4NNKNMufOM0MI8v3x7ITi31MzoXsjqt0tFcCmCVJbYvAXQF8/t6D/P3HhYfGzlF1iYemLGu0ILjUcTNJLDsdFPkrH/BdX3iA37z3Bm7Zt7udTtUwjLcpZkAxDGPboeIRrwTK4quZ0NUit11LsrXCzOm4BHy8F+7pHeDYdQP8pyeO8EdHzjIXBiguS6dR165EuIxRZnN5HosDfuivHuf3P/4OigUL5mmFkjzMDhTy/MTBYS5CNVt1/5kBxZOsuBfX+RiGcVkiyVzXBRzuLnL/wgxRk9k08yqYdgEPHTnKXx+4+sKV+nT7Y9OzTJS6iJI6M4vpUhu5dfcOemgr2wGQzCM7qfAjV/Wym5r5p1k71+LpttL55Unmq7ROcntQSz2GSNLGQyH85l1X8s8eUf702BkWwnzTE8v8N1UEUY8XmA0CXuvo5e88+CL/XgPee8Wohb4ahrGhmAHFMIxtiGdxSZJ08e4SYzKkyXtR6BKlS4UhgZ+7dT/vv3o///Krj3G0qqgEWeKOxQZknhNe4HwY8lDZ8bnHn+Mn77mVkiXKa44IeE9eY/qBzo3KKNg4Rqwv3sZYkNaFkAfuGRrkG6cmWUg9CDKNfXF2E2UmzPPAsTHmbr6KUniBGr16FsTx7IlTzOcKxNQq/9RuxSSRdAm4a+8uupdv0AYIeY3oBYYgnf9l/duYnbfSHq439dQ1xwF5hSsFPnfnQfYPDvBrjz3PfLETFb9okKuzu1B/fyowG+R4paOXzz78PD9RrvCpq/fR0Xb9bhjG24V2sUcbhmFsMrr8/fJakGum6eaS/k8SN/f9Ct/ZCT//0ds5mEuS2CbbJWKhaCYoJv9GKJP5Iv/txCTfHBunulSCNBbRJnkANuAiXcL4MC4z7B67IELgzv4ugkq5Tt2tf3lAqQQhR+cj3pqZX1OIJFCb88QxAbxyboJIkmSj2RRbn0sqFGHEwf6edJVQ6r5sC5KJXOr/bJZ4dz0Os7j/9d/9uiJJXx1E+eEr+/kn77mTHVG5dllE0fry9Lr4jsxoVnYBz3b0828feYE/fPk4C+k5261sGMZ6YwYUwzCMzSAV5nqBTzr43EdvZ6gyR+g9tXKTjkZJtyoBJ/O9/PIDj3FmzRrH9kPNsmQYW0YOuKEnpDNN5tyIQxFVUKgEOV6cjxpSpq4BD29W4I3p2RXyQSnOR1zT4bD025cjyj48f3dHnn/5sbvZoTE5vbAH38u9O/n5R5/nD55/kwrtbzsyDOPywwwohmEYm0UqyXUAn3Lw8598N8M+RghAcwRNFA8FIoGvBV08fPLc+pW5NAzDWCccsDuf45Y9e1Oj8FIUhxKgKFoo8OWxs2s2oPjU0UDxPDd2jrOZ414TI4oCsVfuGuhKwneMy4bk6ecAxzDw6Q74jQ/fyaFSnkKk5NeYdSCSmGe7hvhXz77Jn710hDXk4TUMw7ggzIBiGIaxGdQ7SKT/fksBPrJvFOIYUCKRJmk2FIdnMizwPx9/hrHNa7FhvK1I0h6ZNrXupHNboPCOfSOUdHkx4yTIIgnjKbuAZ85Nr9mAUjOTOJ49c56pXJMUziJpUIwSaJnbRnspXMy5GJtPllC24e+CKh/ogN/54GHu7isS+1ZFshuJ0UB5o6Obf/TYq3zljSMX7u1kGIaxAmZAMQzD2GxSSbEf+Myt+7jJVRE8IssLNwJ4EWIcj017vnlsYjNbahhvK9ZSFta4SATeuauLfo1BFRVZ9JjLMn4IwjzCU9PzHJ+tZF+2RmvpQSaB506fZSFXwKfhQIu/T98HCjs6itwyOmCVWC4XllcrTlKHCeSJuRr41ffewKd3D0OlgmrNGNd8dwEoVAVOdfXx9558k0fOzRBt8GkYhrF9MAOKYRjGZtAskZ/CIeDbr7uSIPagy9fJFAF1KHCus5uvHTtBxcJ4DMNoF7IQGw/7HQyEYVJaWH3q8ePrNgSPMOMCnj55hkr68VoyGI0LnJ6vEstS0TVLIwoQ4Lm6u8QAECzfhdGutMjCrjiKeA4C/+S2ffxfhw/S5eOsfl7LnWVLEWUX8Fq+m5/9yqO8Mm8mFMMw1gczoBiGYWwVAt3Ae68Ypr+6QLMEJzW7i1LOhTxy8jTHN7eVhmEYrcmKmIkyAhwY7CNQj5OaIrv8J8KjZyaYY41VhhVenoVpXVlszccxdw32mvfJ2wFNK9KpIwdcBXz20BCfueka+lGCC3Amezjo4Ofv+ybHLJbHMIx1wAwohmEYW0gIXBXCuwY7cdo8SZ6iiSDp4VgV7j81u7mNNIy3Ca2rtxgXRZ0S6yVJkH3L7hGK1TLOhbQyoahzPHRuimlqITqtS8En/97/xlEmmuSJyjZwCIVqxN2DPVZ55e2CgpNkGOSAvcA/PdDDj917B8X5KdyaimELU/kcf152/OrDz1IGy4VkGMYlYQYUwzCMLWYQ+NShK/BNhEEFEIcnpirCRK7AN984YhV7DeMCSe4lU63XlUUXuTgpwq5w+64BdqhAlPiWKCGN5hEV4a0IZmnqeLcchadPnmPBFZrqvi5Ntp3TKleX1lqvxWhbsj6WeFl8VzfwU33wMx94F0PC0i9bPhgdY/kO/vDoOT7/2qk1DjrDMIzmmAHFMAwDWYMP+cZRAO7a009f6Gm+vuoBwaswExZ5ZOwc5yNF17L4ZhgbRm0AapPXUvTyWvU1Q8sFEpDNowdzcKCniHOQjITlE5UHjgd5XhybXNWHIBY4OVvmuYnzzAfS1IsoRhGNOTDYy75SzuzLlzuLhrlgSf6w7G3g4IeGAn7ijusY8JWsxBYqMb5ZLjEfI8CRjm7+7SNP89psORkjNlAMw7gIzIBiGIaxVdSV/+wGDuSEoEHJzBbYEkd4jxdhuhIzXo0QZ/KfsdUk1TAyxab+BXXGFBVb9N0mDAHXDA9Q9VEafNis4wVwPPz6m8zBillkPfDazALzKqi4ppsJQmccc/fu3ZTAPFC2AV3A9+wo8TP33k7n3DyKI/RJKFczVJSqCzlZ6OdzD72Iz5Lv2EPUMIwLxAwohmEYW0WdplkAru3uIGjiVtLg/E4U5DgRC/Gy7wxjM3GALJYGVl3+grpqs6aobAtKwOFdI+SrldQu0nyWilV59MRpzmUftJjMKsBjk7NUc4UVjqr0+Ih7947YnLiN2KHw3UM5fuyO6+n0MdLCwAYOVPDeMxGE/J/xaf7klaNJPhTDMIwLxIz0hmEYW0aaHlYSVfSa3h5kbGJF07YC8054eXKWe7p7ax+a1mBsMgqcX6jyX//qfmZcnsZBKOiiAu1UuWGkn2+74yZyW9FYY9MQ7znQ20l/ZYGxfEc6yzXZLnC8vhDz5mSF/T2t6+ZEwDdOj1MJcmRZVZbtC6E/J1zfuW6nYVwOCIwCnznQx5vTo/zukRMQhMu8SrIRqKKUBcaLHfzKS0e55+q97NjaCF7DMC5DzIBiGIaxhWSCWwDsLeQRv3qdxQjHiel5oLf2oRlRjE0lCc6YCEL++1yelwt9LPeV8vjMwyr2fLpa5APAwKa31dhMAnHsKcLVvV2cihUVRXX59BR4ZaqjxNHZeehd2YDy8lwZL9IiRxSgys7OEjvW7SyMywJN0hUNAv/6pt28UY158PhpIle/CiFpqaead2fVCQ/EOf70qZf4/puvsbLXhmFcEBbCYxiGsWXIkneDRcFF8ap2kMg5js/OESzfjWFsDmlCk0AFceCdJ3Lx0lcQ412MioIoOVvp3RYIMAzcu2sAF0XgfdN+LwucL3bx2PEx5gH1y40jMfDq+WlemI+puNajJ4yqXDc6TC9Zzh0st8V2IB0SIbAT+A+37ONKqSKqOKklOEmmIFl8eSAOPL/5whu8HqX7sqTshmGsETOgGIZhbCWpoJ8D+oMwFfpWxiNMVqss8VUxzdRod0yh3RZ4oBO4Y99e4lAIJWi6XWKDE14/O84UNK2uUwWePXGqLk1xc7rjiBtGhpsUTDa2BUoSJhjAZ99/D0NRhNegIYFxLcW1ACEhrxS7efTEaZuaDMO4IMyAYhiG0SYUBFZYZF0kFmF+MTMnppgahtE2OIEicF1/jl3EaKt665qUH351ZoGXF8A3yTI8A3zj1HnUtQzeAYG9OeHwUJ7YartvTwQQoajwrV3wrtEB8Ema9WaPVEWICZkPSvz5869zPv3UMAxjLZgBxTAMYyupk+5ywVpXT4VKo7u7yX6GYbQJokmGpms78oi0tvKqwjgBT5w401TVnQJemKmg4lpGWAjCof4edkPLErbGNkFgBPj0LYfYGS8g2twwB0lunSrCE+NTPDVp9XgMw1g7ZkAxjDZE9MKEwHYVGVVqYcWtROjEoVZbJwfcJogHcQJubdNyVEkDt9u18401ISQJhOVyG/5Lxl2rxstirhS1e3zb0QHcMTIAUdR8A0nm/rkwz9PHT+Lrp750qEzHcNK7RAmW5SNNgEA91w7100vDfWRz4/qiDe/r/q6SeAtVNrdFTeWKAHhHB3zLruFk3LR8pnpiUc4Uijx28jS6hvBZwzAMMAOKYbQdHXnIS2Ps7nIEcEluxtqN3EbhHCrZCk/aoBanEwA5JxRyzePktwVCUq1EFe992o0rd6QLbPq+bMkqJqW5b4prXTdPV1PbR8xXRDLDyPLx6lTI6qZ48eRcO7Xd2FAkMaDcM9RDLtKmz7NsoWAml+eF89NM+rpRpOAVXjw5zvGgWIttrNnkACEQoVie5+bRIbqUJdsZ60id+4/3gEBV4MTMPA+//Br/5Svf4Kf/5x/zzNnpumTAGy+MNMuMI8CIwieuP0gOj9PmsoXT5Bk6ne/iqbFxFmzMGIaxRqyMsWG0EY5EocqjzKdrtiuh1AuT7YWPNTEIpEKU0+biVIQSq+KCbTwdaTIZ+7iWFnYlA5qiBLmAmHQSb9MxYLSgVhwi+ScAXb16dWKIiNvEQpoSo0Rx88b79DwTLwEhF2xjI+k2pADcMtLHYGeOsdgTN6zZSWomFhyTVc/RCPrzqX3RJR4NTx49Rqwen3kHaHb7JCWdImKGfZldXQWbBzcSgShWZmanGZ+Z5RunpvjLczM8ND3LmEI1zDMsnbyn6rg96wjdurJbOeDqbuE6UZ6R5sJHZhPyTjgxM8M0idHPMAxjNbaxxmIY7Ue2MF1wrLp4IwiIUPUxSkBa0KBt0LR0pVBTpJriktX3batcpdfFA5H6xeu2Uvc7lIJooo5kG7ZR3xtrIO3kACh6v6rHGYCKYz5dmXf1g2Sz+77uuLEAQRZisbQhojVbkXcQrSVDsnH5k44PBwwHcGNvN+fOThI3hFJkxY1jjTkv8OCp89y8t39xHxMCDx8bQwuDiSeTZkM98XoSFfIScE0xx678Zp3c9qMMfOHZV/kfR8/x/PnzxEFIJV9kyuWYy5WIxBNLQL5Q4uT8PGhp61d2JCml/Z4dPTw1Noc0cdhM7DtJWePxinKGJH+KYRjGapgPuGG0A6mlQUhW7TqDcNWcCFlMeKRpsEd7LUwTqyaGE2RRkWqGxp5AhM6O3Ca2rv2IgYVWuQIacApdYbh0Am+z/jdWoK6vHNAdBGvKDxID4/PzjXaKLSWG1IOsuTiRGYVDD925gtn5thk54K4dg+TiqElYYuqdKMK8y/Hw8dO1e0M9b81WOVauJrmhaCxCm7yiKOZdV+6jd1POZnsyD3zp9WN8ZS7ite4hXu8a4Gi+xESYpywhsThQx0KY463JCTTIwqi29qFUAG4c7E0szk1Jsq9Fqkx6eOH82p6/hmEYZkAxjDYjD/Rk3gWr4BHKsda8T9pEiVZgIY6oqhCkWRC0RZ6EQISuMKC/uOnNbC8EZv3qYVsADk9PIbf4O+MypG6VvjtcWw4UFZgtl1tWI9k06nJQLHgBdUgLJSW56wWNlaF8jm3qZ7a9aBjMdw72EFYriCqu7jlQy18hLAQhT4ydYT5OR7dzHJmcZiJfWrJDXXwlT8iiE+7ev4/Shp7Q9sYDnaM7mQ6LxC7Ap4aHhMxEChVxvHl+gtmtamgDBeCm3aPkXNB6AQdQB/MCRycmN7F1hmFczpgBxTDaidRToyeI17Yi7QImo4aEbW1hRFHKkeIlJNAkZ4dKi7SoXukNAvqgrYxAm40AE5UkLGs1ZdqpMtzdufTHZki5LAmBoWIe8aubRRRhenauPbo6bcQCDiFcsXKYIsTqGSyIGVC2C+mc5IBrigGFOCZEQH3dBgkKLIjjRLXKS+PjQJKA/LmT55gudLfwW1FEYSRQDnUKFsGzcYTASGeJWFxqPKkhgKhLQ3WF0/MVJpd8u3XkgV1F6M2FTVsiiyNJiQSmKtVNbZ9hGJcvZkAxjHYiLdPY25FHdHWFqipwbHY2XZFuC7UKSFys5yoRlTBHRdLWpRU5lm3rhMHODoqw9SvrW0gEnCtXkSBc1YYUAqNd3bWruU2NTpctdbeBAnt6OnG6eidGIpycSQ0oW5z7Jjv8+bKnHLokF0oDQiJkODyqET35NVYbMt4eKIR49hWFG3fvBIXYhTRaypU04XiQ47nJKhWSsJE3zk1RDZaHdgqKw+PwHCoFifHE5sANowDs6y0CEUhagqfJnayinCpXOLJoh9i6Tsk8lfJAd6gt5KnUI0ohFsf8GkNoDcMwzIBiGG1GDjjUVVrTinSkjmPj07UPttwTQfGahBqcmZmnHOYX6yy0/IXCzlKRbpIJaatzz20VEfDq7Aw+cCuKnSJQiCOuKlk+icua1AoSAvu78xBFqyaCjiRgbC4tDF7vQb9FKHBivsysalPjp09filAIcuwqdVvm+u2GOgoI79q/m564Ah5UBJV6G2DieVcJQr58booqcAI4MjOHyvKRpQgeIYg99wwN0JnsxNggQuDa3cPkgiAt/ZuF5C4l8DmmfI6Hj54iqcu1ddbd7MgOKEnctCWLYcWahM4utKgmZhiG0YgZUAyjzcgDB7t7cdEaDCginJibq4kyzdOMbDy1wHQEqABHJyeYz4WoKslU01yYilXZ2ddDZ9Nvtw8KHJ+cJV4pQ2j6Vaie/kDRLfZCMC6F5GYJUfYXCrhshXSF+7cijtenppnPShlvocE08yE4enYchyNsMm5l8V+lJ3Ts6ipaCM92om58vntfDz2SmNOAJUpuRlUCnpouUwUePT7DuSqEunzEZENNfMytg902pjYYB/Q72JXLEWjrLF3qlNkwx0Ovv7WZzVuO1EQSBxR80ETZUcCn4cXJGRVCCwQzDGNtmAHFMNqBhqocV3XmCLxfTL5av1pXT9U5Xp2YpFqvSG+FQrV43CRIZx54a3KKSEBca+MJQD6usH+gj9x2dcFOL00EHK34FQ0oooKqUAoCdoRrKXy7PqwlrS26NLWgsRrJTR0qXN3XQymXS2Lypc4a2UAswrlqxPGJqa0Pd0sNPm+MT1EVQVuEHApCqJ6dpSK9odn6tiUK+4HRQoCTZMW/2UCIRHhzrsKbU2WeOneO80FI1MwTU5VQlf5CyOHhfvJYBM9GIqqUgIMdOQL1aAsjiqpnIQh4+fw0Y+Uqa4hK3DCy8EGAqm8+PiT7T8BpTMHZKDIMY22YAcUw2glVQoVr+0t0hwFOQRaX25ZvHonj6OwCxydmtl6hyhCYAE7MzKV64MpCSef8DLs6OxZXEbeVgpXpyQKTwBuxrmBASVLe5bxycGiIkZANLWe7qMZrrWJGq3YBOFECt83671KRpErVSDHg0GA/zscrOpEpMOeV16YW2FJncwVEiBRen5pjXgLiFq1WlJyPOdBTMk+BbcwQcKCvm1CX1m+px4swGcd88/gpHhk7w0wuxDeRUp0E5FW5bqCXHSE2rjYaEQrAncM9uDhqmssMknu9Ko6z6nhqutIWD4MYmFbFL2tMYu4XBPFC6JXeju1eCtAwjLViBhTDaAcWfd2TKhVD+YBrR4bI+TT5arYw3YAXYQbH8+NTW6tQwWJeBo3hybNznJgv14w/K7A3dOzqcnU72WYIlIFHjoxxWmki6CVkinWpWuHW0RFy2Ycb16zkmKt0YW3oCm4NFYSMpYgkCuDNfZ10qNZVBW2SpBFwxSKPnpuhmn2wFQhECicmpzkyN0c1LIAsz26S5UnIq+em4T4TOLYrAh0Kh3ftIl+prLipD/P8xdh5Xp2vUg2C5vOP95Riz50DfeRog9Rf24AccFdvJ2EcE7ac5xMj/2y+g8+/dpytTMmaPS9nPZwtl5eNo+zZ5gEnjqLLsW/HwOY31DCMyxKTZwyjndBEocoBd+3opUCElzqdatnmgi+U+PLYJHOb3NRWqMDX3jzJRH6VrCaSeDfcOjrEICye5LayoaSdOgvc/8oxRHO0VAUEEKE/9Nx15cCS328IClUg8n5Fr4ikjCU4hHwuv736b51wwN17hwmjKk4CnCrSVP0Qqi7gwYkJFpI/t+iGSTylnp+cYzKOAI/4ZibcACGgI4q4c6DPEshuY0KUm0b6GIgWVvSw8gE8MuM5L0kCctEm40ocYbXM3aN9i94nNu9sLCFw+2AvnfkckSi+ybMnUyimwpAvjZ1hbHZ2q6YnRJOw2OfHzjOTJh2uJ3tuZWGTnQEcMAcUwzDWiBlQDKMdqAvlgGRF+t17h+moLuDS4JxmngkqEDnhwfMTW25AyXS5c1GFb7z1JjP5VRKyqSIifPjq/fTV7WA7riQeW4BvnjqLC5unustWz5xXrix2cP1m+KynzhDVuFVwRo2koIxSLBTsoXIROOD2UoG+WBc9zbRJYIKilIEn52JOLKQfbskNI1SAr5yZIip0JuE7zdohHhVPTjx7Cq18q4xtgQhXd8Ch/p4kf07LPBrCmHjmnaTVepokfMn/QwAAIABJREFUJ1bo8MqhQmhjajNQCBR2FuDD+3bQGVVbWKySJMExwjkV/vS1Yyw022yTqADPHRsDjWhscPZcTUQvT1+oDG9BGw3DuDwxWdcw2oUGSfDGAgzmsuSMzVVYUYgRXoocDx89S5VVU45sKAI8Ouc56QNiWW16UfaGwu07uilst2oymZKsygLw4ImTvF7spVlPJytliXUp9BG37h5haDPaKEkARiWqJu+blBPNKhl4IKfQVyhYPoKLQID9eTi8Y5hcFKE4tOnjWfAEnCfg808/z2Tj1xt179e7IKXvK8BXz04TBcEK3klKPipz43AfBwrhBjbQuBzoA64f7k0fUq2eD0qUhoII0jSG0GmVfQNdXFHIfmFsKFILNfzWq/bRGVWQBkFD0v9n4VRxkOd33zrNDGSPic1FYRy479gpXK6V71vyXA28sK+rJ1nIMQzDWANmQDGMdqCJ4WCnwHsO7qNYLadCSYskjSJMhXl++7GnGfNbZINQUO+pxPDfHn2JCVdEVjCgCEpBlTu6ivSRTkTbxXgCS3LevBHDHzz7EjPFAqqtVumTmgLdC3PcvW/nppV8XgDKsW859iAJI3MklRp6OzrMgHKRFIEPX3+QzsUQh9aBDlXn+OM3jvNWRes+3WDqkjBFAg8fO8OLc/NEi/lamuVsUbriCu8/dCUlZMVxZLz96QVu3bWTYlxdZcvaeGo2H+bjCrfv30WpdX51Y51JDFrKnZ2wuxAQ1M1SNU+OGlVxPFsN+f2nXmGubnrYjBlANalceGQq5uU4BAloHCW1hQnIVeY5vGsHXZvQNsMw3h6YAcUw2pQQ+NSNV7AvyB79zT0AVBR1jocqjodPT1LdojLGkXN8/fhpvnF2mpkgh2/qClNrXBhFfMeVuxOhZZtKwAvA7z75Mk8ugBefloZt4mpMUofx3h0D3NEj0Ky053ojwjxQjhXXIjmNZpUMFPIOirnmyY6N1XHAh4ZDru4qpiv0yy9kcrU9KsrrhW7ue+0oSyJ5Nuo+atj5OPA7jz/HdBgshha28ujfW8jxoZ1d5iZgEHo40NNJT2Uet6qHYmt6Nead+3csMdtt00fIppGZS3ar52M3XkOhmsw8ixWVJHM0SfKNxE6YzXXwX555jWcmy4s5UzajnwRhWuB/P/UsZ3LFVY4pDGuFW3cPmfHfMIw1YwYUw2hblBuAd+wYIhdr09KBSZnZJIHjWGmQ33zwCY5tQep7VZgC/v0zrzPe0UG8Uj1bAedg10AfH9nVTWkzG9oOpLqxKjx0ZpI/fv045zv7SBJuOpavlCnOKUVf5W/cfIgRSC7gBuPTPp2LNTHdNVF4MgXGC3TGVUrLF/qMtaKwD3jf/r3kfExzi4OkY0SZDIv8ztMv8/D47Ka1DxLvk8fOzPG1ecWH+axZTcmr467RUfYvfmIix/ZFEQc7O+BAwV10rKkI7CrkubEhxZbZ5zaW7M7Ni+Pb9g9wqCNHKEIg9UZzt/hS9cTAM72j/NpDjzOhNF0gWHc0eR599dQ0f3L8NHOhoCvkQHHOccfQIDeUbAwZhrF2TJoxjDZmRJWPXnslxfJM07u1lkk++eMhOvmlB55KvtxEaWAa+OUvf5O/qAbMByQJApvEriequFAql/n+a3bRR/NEgm9rUqvDM0eP8EP3PcILhS68j1bw3EhqLd5cCrm9v0CJzbFRqMDL0xGT+BVLGWdfdYuQ37KqMJc/IlD08KGrRrhCK6DNc6CgAaIOj/JEqY9//83HGV+Yx29G/hPgrbLn1x/4JsdL3eATk87iHNRAT3maDxzaR5emZTG2MkGTsbWk42gAuGffFUh08WNhV1cHg4DUKeSX3XPksrwVkjnpZuDbrzlIVK4QJP6JyfNLYpAYSZ/zkPz951MRv/DQs8kkt9HnLXCi7PlPDz3O690DTZNxp5uBV1ykfMsN17ATluV1MQzDaIUZUAyjbRFEhPf05vjUFaOId2lC2UxU9Okrc+yPmcvn+KOxCf7pN1+gGnlUWR5Kc6EyQkPySACvSUhJFHumgV9/8kV+8WwFnwvJEsnVflBrZ1KtJWaImO8d7SG3RWKvpEooaarOSxKbtOGVfVi/U639PQ/82WvH+M4HXufNjj4iFzT17kAk+dwJPqryj269jr31x9tgVJWXj52kHEOiuDcPIRNJenZXIaB7q54oCg6Hk3z6UEutVI19s96vFdqzpu0afiMCt4TwvYcPgcZoLZXmYh4klVpZ11gcD8wLf/8vHuZ8OQ3myXTKSxondX1dOzjTwM8/+BT3+w68uGVecanzPqoeFwR8YOcg9/a4RNHV5nlSjO1C0vedwL1X7EDDZgZ2afxg8Z8kXFAJo4jrdwzXKrddpmMqSu/u5H+bPF9dwtygquQVvuPKQe4qJsmkFz0n1S3ZryLEwLlCid8+ep6f+eZLVL0sGlKXNOGi2rd8o4mFiH/wha/zzbhAxSfpuJMgVFe3W0n+c55rdZY7h3PkIZmADcMw1oAZUAyjzRkE/vbt1zBSmUtklLQ6SpZYNBMgVZWKKudKXfzOsXP8yNee4o2ZMl4aUjdejIywTE5JdnIihp+5/zH+n1dOMlHsrFP3GrdODSmqjEZl/vlH3sXui2zKeqEtEl+ux56XZMxLBeRI4MmJOX7yrx7mJ594hSOdvSy4LOalsR0K6lGNyPsKH9s7yLsHCxRpsflGnIUIjx0/xUKumCj3LQ6qCsQxV3Z3JELoFiytKkkuoMta/E37tRf4+JUjXOHnyHKhtLaHCFOFEl+phPzQfU/x6KkJosYosItSlpZfyZMLFf7hXzzIn4zPMJXPNd0mqx4kkqe/XOZv3XIDw1DLd3FZd5BxSaTjuwAcHiwxEmiq0jZs0PSnqWubKF3VOa4d6k/9CkyEvWCyS36R96I4QQSuBH7yvXcxXFkA8ekyTv1zomZ5rYrjdLGL3z56ls/e/yRvzC4kFQMzI1J92y5orpJFg7EHHj8zyd/+4oM8QJ7JXAFcsCgrLe5WEllEULrjmJ9+/zuShYns+IZhGGugVW0vwzC2mlQPLwI3hPADNx7kcy8cxQfZ+rDUq+qLP5kXx6mOLn5/ssyRL3yF777lMO/dN8K+jrB2w2c/rBem6ndW/75hOw+cKEd89fg5/scjT/JkUOJUqZ9EKJG0qG1t3bxmVFE64oiP7trBxztJs/hvnUYlkgjki624FOEp8QdmyUoisOA9J8oxL0/N8sCrb3L/sTFez3dxvNCzuNq19Aok1QOcJq3Ki7Dbe37y5qtIsqQsbrZxl06TGPI3pso8c2aKcldfy4Np6iXlVLlxuJeODW5aK4RMSZe6Vd1NoPE40uL9WvclECgcEvjpd9/Njz7wNBVJwnVa7TRCOF/o5IuVmNP3PcQnrz3Axw7t4+quIrlFh7WGXml2fZZMJLU/zsbwleOn+d3HnuQr0slkoYS2cnWXJJzHa8wndg1wexd0qKKqiDPriZHMbb0iHCqGjM+UiaW1cbaebLbcEziuGypudDM3GMVl99ilzBkXQ90zXrl4p4su4N5O+L6r9/IfXj8O0lqdEKAscKxQ4PfOz/PKF77KX7/1Bt67bwdXFHLJc61Z+GejnNLkPKoCr82U+cLrx/iTF17l0dIIs/na90tnzsT7RUQpVKt814HdvL8nqFXfsSnKMIw1YgYUw2hX6h7mg8APXr2DB8erfP3UGJUgSJQqUZrlSiirUsnl+FI4zHNPv8b1Dz/Mxw7s5q5rr+GqoR46BQqaKGuLi3gtBDklEX5mgOMzVb7x/At88fkXebg0ynjHMFEQgCQ5T1Qbk90m771CEARck4/54bsOssMDW6pQJUtdkRPOB3Cq1tSL3FOy+j5bUSZm5xifmuaNY8d46eQJnplc4GhXP2OFXmY7d6ASpy7PK+1TCBH6Fub4Jx99J+8J6tZaN9I4oKBeiQPhz4+dY6bQRSwBpCp8s0ukquSBW3YMU4AWW20sSYFcx7wEnAE6awuTm0oO6CYxDjqVizai9AHfMVjgi3tG+MKxs5QDl95bzfECs6Hj610jvHxknD964lk+sX8n77/pMAeGuuhE6CC937PjNJIpJMCswEQMj7x0hD949AkeKfRxtNRHJDlcq4sqgCqBevZ3hPzUXQcZzb7Kkh5vrc3UaANEhBxw13A/j0yfAIJVx0RWADuUgBsG+9m5Ce3cWJSqC5gAxuo+3ehbI/UDJQBykoRTFS5hfwPAD9+wi0dmyzw4dpaqa6ZS1LxMosBxJsjzl4zw/JOvceNDj/Lhfbt4xw03cmCwRIdAiVQx8Vqz7tRdmIgkbGgGeOXsLPc9/hhfOn6WF3pHmegcIRaHpFXrsnNO7CbZ/OnIxRE3lPL81M17GCCdF21eMgzjAjADimG0KUrNGOGAYeBzt+3hb3/1PK/MVZMV3RWyeyoQOeWtUomjpU7uG/cMfv15rlfPjW6OW7vy7OzsoKenl1wuh3OJNwEkwob3nomJSc7NzvHkxAxP+DzPSYETLkBHrsKrWxJEpE20o0W3XnEUoio//eE7uS47IRJhbiucsCW9uuclxz//wjfowbdMhLkaiqPqAxZclWqsnBPhvDoqYYG4tBvpSKxUWdS34BoU2KUaqahDUDqiMj90zy18umuTjCfZ8QPhhVPj/NqLrzKV60pCY7TFQqAoIcq+nk4O9RYpbJELtAfmVXlq/Bzf9ycnCDUx+Wx2TsCDgfJzn3wPo9nFuhB3+bqVYUlDeX7u5it4bWaOZyfniJ2Q5KFxdbuthfc4krCr07kOxnZcySPTVX75q09ziIjDbp47e0rs7CzR29tLPp9bcmj1yvzCPBPTM7w6NceDMxVepsQbkmei7wAESe4V8R5NR2N9G2rru0qpusC/evfd7AFymfaS/cCUlO1L2v9KoiS/c6ibX3mxgiuW6lTsVgMkLd/tY27csTPJf3IZ44GT6viBP36ATvVoGmbrNnjCSkoJx4QeBqtVfuoTH+C2UnBxt6UmRphdwH++7QDf8/V5npmaI3bB0o0WpQMBDUiytXmOdXRzotTLfeerDNz/FFf5iOty81xTzLGnmKO/mKdQKOGCZH9xHHN+dpqTc/O8OFPlGXp4XkLOBF34HX2Iz3KtRYCgmYdnmn8sKbOsBN6zV5R/9YE7OACE3tM0B5lhGMYKmAHFMNqURrfmHHB7Dn7jg4f54S89zrNlj5eAWkYUSb1S0jDfVFrN9lJ1jtMuzzlVvqE5gqkYNxnBiXN4nyaNTP8VkfTlUAnQYIA454jTVnlfiypOfpGocVmJVV87PKKOXBjy2+88zAc7WFK2eOtyjiZXZcbleFbD1MhzCftzAGGSQ0+S/Ssg2YWgeRnqrDUJ6XbOUYqr/MjNh/gHuzop1VuZ1tDGRGSt+WfX9Nb6kbLsB4vvn5mY50e/8Ryvhh1UU6+C+lY2nnjoPfcMpuE7F+F0sR4IoM4xjvAgxbQvN78lkV+gTFKQ+qIPn/4uD1wTKP/xPdfxmT9/hOejEJUwMaJkYTmLq6rZ3ajJHKAQBQGngoCzqjysHfz3yRg3UYHjZxbv96DBaKhAnCsS5zqJJUkJK5KE4NR7utXsIul36QDtieb5x++8k+/sC9OkjMvPy9imZM4ECqHArf1FRvI5zkaJx1tVUiW7YaZRQMUjqnRWIm7ZOULnpjd+fVHgPAFTrlg/9W6KBwoozsGeeI7ZFhVqLmSHOeBQCL/5vuv5zF8+zcOzFbxzII4k+FCoPXPqn0YQqxIvzlN5HtEirqzIgibGJD+99HAi+KALDYTYBUSJrwn4ePHZlmyX/Y90AaBmyLm2EPBv3ncbHwrTWcuZ8cQwjAvHDCiGcTmhcIuDX/zIbXz2C4/wZBSmek0iJDRWCWxU2j3gJUnqJkGTGjh11WIWP5Kk6o6ILLpSN2lWYoFIQ3gkPVghEHrjBX7pnXfxwW6h91LOfV2pE+K2PPO+LL4Chf7qPL/wkbv5UAf0k3RJpi8v+1mLvZEq8Jl3wqp6rMKCwP/70hH+w6Mv8kb3EFXnFvfTyvNFRAnLM3z73mvogFop5i26pIoQySUqBZdA3JCw+VKVIqdwq8CvfOxOfvyLj/Fo2UOQ1Y3SJWrJcmTJ/e4W7/fWnjn1TjON+1o2hrTm+QJK/8ICP3L3LfzgjnwtLMC8Towm5IHhQp5rh/p54MwUkWTm3ZZPF5SQYV1gtBS+DYZUMk9EW/jsiRqTy18odZafEM+1OH7jQzfxj+57ivvnYqoSp8ZcYfniwdLZpH6eqsc1XB9NDbbLQ4Ub9q3J1sk8leyzCNygVf7NB+/gHUEyt74NBpJhGFuEGVAM43JCoOQTI8ovffxOfvXxI/zRW6eYz4VoJnzo2gJjfJOytK7JyrlPYwpWFbZUE1dkr+ACOuIK7+jr4h+/42bemaOWqM2o+YIohM7hvZJfmOe7Du7ke27azx0htaSxF7NAlnaWZPaP1GUgk0e9wrzC8bkFXjw3ziNjkzx+YoxXKp6TPYPMBAE1AbR5+wWhGEXcPTzIuwY6aw8TE0rXDUHoVrhd4Bc/cju/8PCrfP74OHEul7idi7LWOKWl9/sKoX+NX7UIbROgQ5PcLLt0gR95z+18ajjPUF2oxpbbJo32RCEvcPPoEA+dnkDJZ/6TLbZPrHXXdxcYMqm1/VBHB3BQ4N994Gb+64un+O2XjzArIRGk8YUXvFPiFZJVr04aOqQx4mP+5t5hfui2A1wL9GRfG4ZhXCT2KDKMywxxiQBwm8DP3b6f63eP8ntPPccLsxWihtwGK+5njRLEmiokiKQVVxPt6Uoivv3Gq/j+g31cl7r5LmMbrwBJZmiKYcRXOdzfzSfecysf74UrSAwni6Kj1P27BiFUgeko5v43TzJDQERS3nquUmV+YYHZmVmmZmY4MzfPsbkFJoMcJzv6mcz1UO7M/Ow9skJ+neQ4yqgo//CeG+j3MeJWTwZpXBjZ5ezycKeDz919FVe9OcMfPfcyRyqeKMwGxVoVivVrmfPQEVV450A3P/ieW7nLwVB6mG18axurkQ4MB9yzq5/ferzMdJhb/GrZFCfp1h7u3jNC96Y11FiVpdGndHi40cFPXruDq4aH+J2HnuCpSkQ5lQDkgiyqa5VQmvxSBFQoVCscLAX89Ttv4/sGQnYB+Vo0j01ShmFcNGZAMYzLEAE6gP0KPzZa5MOjt/OfXznPnz37PFMupBLmk9jgJdLoWmJAtOH75r9plD2cCi6KGdQK9x6+iX9wVRe3AX11zjCbKa80hlFsyhElyfey9KhZutraX4F68gvzjBTz3Hz9Dfytq7u4F9hN3TXSJots9YLfyi3h1EKVn33waU51D1IByqJUAodXQTRA6SUu9iIdQtF7IvE1l27RxfOob3t9JhUnjkJ5nr92w0HeW4AsselG9G8W4LRmC1K70KwPL4b0AuQ1KW/8z67o4iNX3MZ/feEM9738GuMqVMMci3l3WvRE67u9IehPl88Cmc+UIASqdMRVdocBf/NDd/H3epIE12Hjb7Y4nGt1Gq9T/T2b/d0e4y3JA1L3x2LAS5N+1mTAtEfLm5Nd+escdPoFzkqJWFsozAqoJ1THbbtHKdbvoM1owyY1kN3F60TjlOySeWC3wmcGA97/LXfwaycW+MOHn2BChUquwPI8N7W5pfERt9Z21m8vQL5aZsg5vvWma/m+gz28gwZHzna+OQzDuCwwA4phXE40SBQiSRnCOxR+/VA/T175Tv7gXIU/ePMUY2fHma1Ucc4lHg9AJjn4Fk75Hr+oCi8K52kVliRTvSShACKIKr5apSNfYM/gIB88uJcf7IPDOQgy19u6UsXLjrgB0qYAMRBHEeJDRGopbjceDz5I3c09guK9kCsIpVyenlIn/X29HBrs5Vt6Aj5WghGBsK5xkv2vVcwELb5r2MyLMB4WOJUZ0uq/rNNuFWUuyaRX27XWHUh8ahuS9Aw1CRuJIv7WwT382DUjiTv0BqkOAkgUI3EMxKj4VNxeHn62+cgyA4mPq8mbrE8vVdFrTDyiSSjcBwTed90wDxwa5vdOzfNnR04ydm6csvcEuRCvpCF9teu0RCnReuU77dPFvzN/+8T66URQX0VjT1e+wKGhEf7GoZ38zT7YW2vW8lNtN21SklsziqoQRjSNjRPFaUCM4jVOwyHbA4+gsU/zQmSmzcaLnBrAophYfTJlt6GymLV8Xw4ODA1zZKoMQYim1dCWbpuUdN+bE67vzZOnFkK45dS1VYUkNjKOIYi3rEkr49MqbwJRtOxaXxTNnkuSKBeHgV/cVeT7PnEPf3g24vdfH+Pk2XEW4gUkF2ZBNiRzUF3uqpaLBcnISeYwRYIA76NkmSKKKAQBu4aH+bYrRvn0cJ7bQmpl19f4/DQMw1gLZkAxjMsdTZa6xcPNAVwzkufHR/ZytLqXz5+e5f8cO8WrM3PMRUocKZEqSgwaJzKKkC6VpwaSzAefpPKBZn8ruCAgLyE9xZDrezt590AHH909xLX5JElbkaSyR6J8b83lKAIfPXSQ8z6Hl/pCrxuDkK34Crmcp9vl6Q4cA6GypwB7Oors7RC6Sa6wIzF6FTO9NRMW20qwqxkphIDEw0QJRREP37unl5+6eS+7NrgVAXDLzkE+VeikGuQXV+Jls+sTr0Lmmn6gOldLoLoRDjN1Y8QBd4dw6+4Ofnb3lTw3e4D/dXKSb56Z5I2ZeaajiMhD7KPkByqQ3Q9CahwTHA71HlWfNDg1lAbiKOQCukPHjb2DfGC0j0/s7mKPJElAi9nJZZ4DbTV+m6DQJfDha67h2qALpIWSq4lhrLc6y+6OtYdEbiQOGMjl+K7r9uMlXKyytsw/ME3kPVAZpjdXXB8FeQMpCnzPTdcyOnaOalhAUgPQUhLfhKuKjh4gwNM2g63uHheFg92dfMe1VzMVFpps2Mjmd47HLZoN+6tz9G7C8A4UbgnhhtGQHx3dwwuzo/yvk3N88dgZTpfLlH1MOY7ROJmXVBSXjQMVfCaOLF6u1EXOQYijlC+yu5TjfaMDfPfOfg53Ch0kcoBro6FiGMbbC1FtM0nUMIwLo4m/qwIRMJG+5oEyMDajvDG/wJvTM5yeXuDs1AwzlYiFyDOvykIUU3SOno4CxVDoCUP6Okvs6+lmRynPnp4iO4tJKeISyWp4F6mwsnlnvCJV4CxpxaFNPG4q0+FIFP+QxFASkuSACbKNYHnkwDoKeQq8PFPmo3/6dY51D1zkNVAUJXAhPs1rI1HMsMT8zN2H+eSOIiNAXvUC49ovDA9MAnPU+rKd5eEOoJs0zr6ejWx0On4WSO71WZL7fUrhzSnPG/MVjp6f5PTUPOfnyszHMdU4ZiaukMNRDHOUwoDOQkh3R54dfZ1c0d3FFcUCuzuFHpfc691AL7V8RjXH+8uAtD/KklyjBWhZwDU1I5Ejmdt6NqF5ayECxmBN5oM8ST6aoO3DqOA8yZjNzqvxOZLZmPPAAJBrp/idhus7RXIu0RY1ZzXq08vnSBKVFzf5+GWSOX0ifT/l4ZWJMm/MRhw5P86piSnmqp65asR8VEVF6MjlKIU5uvMFhrpKjHZ1cKi/xMGeAn056CSZmwbqz2cz52DDMLYdZkAxjLcDa5QpyyQC3kL6ikkMDlUSoS8mUSzyJIp/nkTgKta9CrSPsaQly5M4bN5xpcn7+u9p8vk6N+HSDSigmiyv5nzMvnzAR/eO8teu28ldQaJMB+uV42NNjaF5uorLhfW8Tpo6k6Tvm44xhVgSg8EUUCG5v8skSkycfuaoGfjCdFchNYNJkdbD+TLQzVenqZKVhTC22bnVHH5W7vuMtmr8BdBC8W27/likrmWXw03RFoaFzFwmxCQG8mmSOalCTR6JqBkzszkqk0u6SOapfLbL1Z4J7dwnhmFcdlgIj2FsIwpAoVHIq1fI6sn8ZqVBgtUW+Q7aSXisb89mSd6tjlN/XTa6HZqlMJHFldvlZWnThgq18C9N36sSCnQ6x6AusLerkzuuupqP7u3kJmBEF3+yuf2c9We7x7HX9/VWaHx1xw8ESgqllQx6UNehdbtoYhyThhu8XbtgRRoNDCucRNudX7OQsMvNkHgJtDQatQvt9PxbK1vW1iyzvBJIUqq9u3F8N5vv088Wp6xmBsPVPjMMw1gHzIBiGG8HLkQQaty2VbqSxsQGdcJM6+3biM1uT5PruqntqBMSxSvh/CzFIIc2JBVwgJM0c4tCmAvpdDlGBgYZHOjjyj0DXN8DtwGHgH4gpGZ02bJubrfx1Qxp8X6djyF171sef63tabCUNN72q+/gMmJNp9DG57lS379dWOm82vKcZck/bU87tVMart1q81W2+UrP1rV+ZhiGcQlYCI9hGMbbjEnveWRinnIul1ZVqhE4pQB04OhwIaXAMRpAh1tSNKmtF3sNwzAMwzAMYyswA4phGMbbBK17ZYkMG40gWZLMLOEt1BJqNo1qeDvkVTAMwzAMwzCMdcAMKIZhGG9nLiZpoAJSV7PhcozvNwzDMAzDMIx1pu2LaRiGYRgXSLNkmfXuJcrKifWyRBhmODEMwzAMwzCMRcwDxTAMwzAMwzAMwzAMYxXMA8UwDMMwDMMwDMMwDGMVzIBiGIZhGIZhGIZhGIaxCmZAMQzDMAzDMAzDMAzDWAUzoBiGYRiGYRiGYRiGYayCGVAMwzAMwzAMwzAMwzBWwQwohmEYhmEYhmEYhmEYq2AGFMMwDMMwDMMwDMP4/9m77/goqvV/4J9zZvtudtNIQkBCL1KCCCLVBnZRsWFXREXFSrdhF0QEr/cq6LVcRSxfRAUE1OsPQURA6aG3JCSEFNLblpnn98fsbrLJphBA4vV589rXkt2ZM2fOnJmd88yZM4w1gAMojDHGGGOMMcYYYw3gAApjjDHGGGOMMcZYAziAwhhjjDHGGGOMMdYADqAwxhhjjDHGGGOMNYADKIwxxhhjjDHGGGMN4AAKY4wxxhhjjDHGWAM4gMJgMBuBAAAgAElEQVQYY4wxxhhjjDHWAA6gMMYYY4wxxhhjjDWAAyiMMcYYY4wxxhhjDeAACmOMMcYYY4wxxlgDOIDCGGOMMcYYY4wx1gAOoDDGGGOMMcYYY4w1gAMojDHGGGOMMcYYYw3gAApjjDHGGGOMMcZYAziAwhhjjDHGGGOMMdYADqAwxhhjjDHGGGOMNYADKIwxxhhjjDHGGGMN4AAKY4wxxhhjjDHGWAM4gMIYY4wxxhhjjDHWAA6gMMYYY4wxxhhjjDWAAyiMMcYYY4wxxhhjDeAACmOMMcYYY4wxxlgDOIDCGGOMMcYYY4wx1gAOoDDGGGOMMcYYY4w1gAMojDHGGGOMMcYYYw3gAApjjDHGGGOMMcZYAziAwhhjjDHGGGOMMdYADqAwxhhjjDHGGGOMNYADKIwxxhhjjDHGGGMN4AAKY4wxxhhjjDHGWAM4gMIYY4wxxhhjjDHWAA6gMMYYY4wxxhhjjDWAAyiMMcYYY4wxxhhjDeAACmOMMcYYY4wxxlgDOIDCGGOMMcYYY4wx1gAOoDDGTg0CoNX4SKPTkpW/O03VGp6IsdOINNKPGYwxxhhjzZggIj5lYYydMjtTduL/Fv4ftm3bBq/XC6vVhp49e+Kcc/ph2LBhkLJaHFecvnz+L/J6vHjttZlwuysRERGBiZMmnu4sMVYbQd/3A++MMcYYY80UB1AYa44I0DQNWVlZ0DS99wARhQYb/AyKAVHRUTBbzMF5AZzehggBubl5eOaZp/Hhhx/C4/UG20eKlNA0De3bt8euXbuQkZGBeXPngUB45JFH0Kp1q9OY8f8t7ko34uMTUFxchJiYWOTm5nADlTUfGrA9ZTs++OBDGI0GPProY2jVOlHvucb9YxljjDHWDBlOdwYYY+EdO3YMffr0QU5uDgQEKEz/duH/F58Qj5YtW+Luu+7GyOtGIja2BUwm4+lpLGsABDB16hR89NFHAAEmoxHJyb3RIjYWBYWF2L59G0bfPRpGkxGjRo3Cht83wCAN2JGyA0uXLT0Nmf7fZTKZAABGo6H5B09IDxQK2dwzWg//OhARpMJRgDr5D2ePP/44fl75M1RS4fP68MacNzh4whhjjLFmiwMojDVHBAgR2oiUQqKuDmNZR7Nw9OhRbNmyBU8++SS6duuK5557Dpdfcfmfkdta9u/fjwULFgAALBYLli9fjiFDhwQb8EUFRVAMCgCgvLwCwv9FUXHRackvO/18Xh9++OEH2Gw2nH/++c0/2FMHIkL+sXz8tu43tG/fHmd2P/N0Z6n5koDH44VGGqSQKC0t1T/nW3kYY4wx1kxxAIWxZow0goSExWrBlClTEBMdo38h9Iaa6lNxKPUQDh06hN279+DAgf0oKSvBxo0bceWVV+Kxxx7DzJkzg8GKPyXPILz//vtwV7oBAYy5914MGjwoZIwDV5QrOP3s2bPxzDPPAESY/ur0Py2frBnwxwM1VcMPP/yAK668Au3btseBgwdOb75OgKZpeOnllzDnzTkY99A4vPXWWxwMCMdfJg899CDKy8tgNBgx+p57Qr5jjDHGGGtuOIDCWDNHIEip4Pbbb0fbdm1rfgkivb3hU1X88fvvuPvuu7F3314IITB7zmxs2rQJK1eubPxtESd49ZeIsHHjJmjQIEjgiiuuqLqVIUy6w4ZdhGEXXQSNCFJpYMFULX/cyDp9mlJH6pqHACklli1bBimkHuz7i25b0gg+nw/ff/+9vi5KE9alOfS+aGweAg93OoH98aZRN+GmUTeFDiTL+zhjjDHGmim+05ixZk4IASEQdgBZABASgAQMRgXnDjwXv//+O15+6WUYDAYICKxavQrPPfd8/Quhai8ApDbxkaLB8R/0gVBMJhOio6ODadd6nG61hpKsHuChOt4Djqdh1dB6hPu+ellooX83Wc3560qvqctp7HwNPdG4EekQUdUjqcOtF4X5f83JVKpqJEvoQT4hoEildn3UUHddqDej4fMV9rHOTUm/xrxCCOTk5ODw4cMABKSQjd/u9SWvUu3tRqhVTmHzdbx1t44yC5duyLhMJ7p/iGrvErX2cU2tqyLhxLYdY4wxxthx4B4ojP2VhQkkOJwOTJo8Cdk52Zjz5hwAwBuzZuG2W29Fx04d9bFVas7n/1tTNaSmpiIlZQe2bd2KgoICCCkQFxePfn37onuPHoiLa1F7fv/AsXl5x3Do0EHk5OToF5MJ2Lx5E4qKCoMLMhqNGDJ0cLCxk3ooFYcOHQIAdOncBYmtE0MbUwQcOnQI6WnpEEKg/7n9YTKaoGkaUnbsQEpKCnakpKDS7YbNZkWL2Bboc3YfdOvWDbEtYusvv0CDSwO8Pi9SUlKwc+dO7NmzB+Xl5TCZTOjQvgPOOussdOnaBXaHvf706lBZXokNGzboYz1IiYEDBsJgDHP49efn4IFDSE9L839EGDJkKAzGum/DOnjgINLT0wEItGyZgC5du9SdGQkczcrGzp07sHXLVuTm5UEAsFqtOOuss9C5S2e0b9++3tu+BITeyCV9m6enpyHrSBZSdqSgtLQUQgiYTWb06tULnTp3RudOnSANoQFAoQj4vD7s2b0H33z7Dfbt2wdN0+D2eLBq1aqQ8X6EEOjduzdckS4cF3898nl8SE1Lw5Ejmdi7dy+OHMmC210Ji9mCFnEt0L17d3Tp0gVx8XFN6/UggIryCmzduhWzZs1CeXk5AIGso1lYuXJl8ElaQghYzBYMHDwwOKvqU7HmlzXQiNCvb184IhwAgKLCYmzYsAFr165FeXk5FEWidevWGHv/WL0sq+eT9EdW79m9B7t378a27dtQVlYGo9GEtklJ6JWcjN69k2Gz2xpdZh63F7t27QzuExUVFTAajejcuTO6d++O5OTesFotoT1GjhcB+/ftR1p6OqQQ6HZmNyS0TKg1DfyHrB0pO3DgwEFs374NpSWl8Hq9MFvMSExMRI/uPXBGmzOQ2DIRFpulCZlhjDHGGGsEYow1PypRbk4utYhpQVJIinBEUFpq2nHNr6lEXbt0JQFBAoJG3TSKSKtjeo3IXeGmW26+hSxmCxkUAylSIUUqJCEJAAlIinRF0if/+SQ4T0D+sQIacdUIinRGkslgIilk8GVQDGRUjGSQBlKEQs4IJ6lelUjV8/nC8y+QIhQySAPNeHVGrXxpqkZTJk8hg2KgmKgYOrD/AO3ft5/O7tOXDNIQsiwB4c+roJjoGFq1clXd61zN/n37qUf3HqRIA0lIUqSi59u/LgZpoHZt21HWkazGb4PAKqhERYXFFNcijoyKkawWK+3ZvafO7UAq0ZBBQ8ioGIOvLZu31Lvtrrj8CjIqRpJCoTdmzQ5+VVlRSS1i40hAUMuElkRENPO1meRyuoJlF6gfAoKkkKRIA10/8voG1kmjo1lH6cEHHiJnhJMMioEMUn8Fyq6qDI004soRVF5WHroOKtGll1xGZqOZBESwvgXqQvXtajZZaO2va/X5G7E9q/JJtHzZcurTuw+ZjCYyKEYSEGQ0GEmRCgnI4LIT4hNo6eKljU+8mrTUNGrfrj3BX/8C6w+gVhknxCeEzFtSVKLvc9JAP/7wXyKNaOuWrRQbE0uKUILzK0Khvmf3Ja/bW2v5qk+j84eer28H/7ID6yWhl2F8XDyt+WUNqT61gUIjKi0ppb5n9yWzyaLnAaH7mBSSWiW20uulfz8+nu1S3bgHx5Hw73MfffifsNMcTj9M5593vr4+QqmqK4FjlH8fNZsslNQmiTb+vrFpmWGMMcYYawD3QGHsf9jUKVNx1913AQA2rN+AsrJy2B21r0IfyTyC666/DuvXb4CUAoqioO/ZfdGmTRu4PW5s27oNBw8dRFFREe648w5s3rIZs2bNCl4dLi8vQ2lpKXol9wJphJ27diI/vwBCAD179kRERAQA/dYPm9WmX0H3dzBQpKLfCkCAyWwKux6KVOBTfSgpLcXSpUvxxhtvIONwBkxmE7p27Yp27dpBCIGsI1nY8PsGaKqG/Px8nHfBefh0/qe45dZbqnqbBK6U+//+9ttvMfb+scjNzQUBcLqcGDJ4CBwRDhQVFWH9uvUoKChAelo6OnfujI//8zGuGXlNo7eBEIDdbkPXLl2xes1q+FQfdu7Yic5dOoeZGDh8+DC2bt0KVVOhkQYBgRUrViC5d3LYK/3uSjf27NkDVVMhpcR5Q4eGzYfL5cLECRMxe/ZsaJqGli1bIjm5N+x2G7xeHzZu/ANZWVlQNR8Wfb0IF5x/AVauXBlaZsF1Eti4cSPmzn1HvzULGhLiWyK5Vy84XU5IIZGyIwU7d+4CQcOSpUtw3XXXYdnyZVWJSMBms6L/uf1RWenG779v0HtoWCzo27dvyPKIEKxDjUaA212JKVOmYNu2bQAAq9WGzp26o2PHjjCaTMjNzcGGDRtQWlKKnJwcXH/99fhu2Xe48MILG9+jwn9rWps2bdCmTRtkZGRg/4H9kJCIaxGHrl27VttuAi5XaC8aIfT9zev1Yu+ePSgsLMCYMWNQWlIKxWBAfHw8YmNjkHUkC/369YPBFPqzvfbXtRg58jpk52QDINhtdgwYMABxLeJQWVmJ39b9hqyjWcjOycHll1+OF55/AY8+9mitHiyB3l4rVqzAzaNuRmFxIYQ/v+eeey6iIqNQXlGONWvWID8/H0eOHMHwYcMx8/WZuPPOO5s8XoliUCCEPviuooT2etJUDRmHMzD0vKFIT08HgeCwR+Dcc/ujRWwLeH0+lJaWIiUlBUcyM+HzVMJhd6Bzly6h68UYY4wxdrKc7ggOYyyMk9ADhVSiHSk7yGQwkSIN5LA7KDMjs2oa/9X80pJS6tWzV/Aq7oBzB9DGPzZWXe33X1me9848ioqMCo6q8K9//qvWVWfNf3H7kuGXkBQKmYwm2rZ1ezCdkKvf/jy+/OLLes8HodDsN2bXSFDv7fDU1KeCV/ABQWajmUZcNYIO7D8Y7LURWEZ6WjoNHjTEP72kLp27kKfSU7uMNKKU7SkUHRVNAoJMRhONe3Ac5eUeC1lvT6WHxoweQyaDiQBQpCuKDh1Mbfy2IH0dnp/2fPDq/T2jx9R5xX7xt4uDPTqcEU4yGkw0cMCgOtNOPZRGFrNF7yHkjNR7evhV74ESeCW2TKQP3v8gbFqzZ80mi8kS7MXz8Ucf17tewy4cRrfdehut/H8rw67PvLnzyGqxEiDIIA206ufVVWXiq5rhWO6xYK+T7md2D7+w4+x9QqSX+39//C8NHDCQ3pg1m7KPZlel5Xc06ygN6D8g2HNkwLkDqvLWmOX562ggf+/OezfYY2vi+IkNzl5aUkp2m52MBiPddsttlNQmiUxGE11+6eW0Yd2GqmX4NKqsqAzJ19EjRykxITGY9+tGXkf5x/Kr8q0RlRaX0vgnxpPFZCFFKuSwO2jzps1h87J3915yOSMJAJkMJhp992gqKSoJmaYgv5AeGPsAGRUjAYJiomJo3959TeuBohE9+sijwZ4tn3w8P/RrVaNrr7mWJCQZDSa69ZZb6+wFtnnTZnr8scfp60Xf6NuvCfWFMcYYY6whHEBh7Hj4T8qzj2bTY48+Rv369qNz+59LTz/5NOXn5Z+8E/YTDaD481pwrIAcNkewQbfmlzVV6+EPOvzno/+Q9N8q0K1rNyotKQ0JSFSf9rsl3wVvy+jYoROVlpSGNIQDDb0Lzr+ApJBkMppo08ZN9TZmGgqgkEr+AErVLTqPPvIo+Ty+qmmqT09EleWVFBUZHeziv3zZ8trL14gGnjvQ3/g00oTxE0LXudpLUzW6d8y9weVfN/L6YLCoUTSivXv2EgBSpEKJLRP125iqT+JvhF9y8SUkhaTeyb1p6uSppEiFLGYLHU7PqB2w8mn05NQng7c2PDzu4ZDvqwdQpJAUHRVDBw8crF1u1fI55405wQZth3YdyBso5zDTetyeeuu8pmo0/vHxJCBJCoVuuO6GqsZttXTS09L1W0QgqUunLnUur6mN9Fq3vdRIq6igiCKdkcFbmPbvO1A1XWMXo2qkqRrNen1WcH977NHHatenGumWlZaR3WYPbiMANO2ZaSFBmbD7IxHddOOoYGDs/vvu17eVSrXWT/Vp9MDYB4K39gwaWDsgV1lRSUOHDA3eqvPiCy/q+1iY/Uv1qXTNiGuCtwldf90NjS+okEKrJ4CiEZWXlVOH9h1ICoWiI6Mp43BGrfKrmR4HThhjjDF2KvFTeBg7HgJ49pln0aF9B7z55pv4/Y/f8cfvf+ClV15Cp86dMGfOnNOdwxBmsxkGowGKVCCFQEFBgf6F/+knZaVleHLqkyDSYLVa8dVXX+kDpVZ/nGjgSShEGDJkCKKiouDz+ZCaeggpKTsgwj56uOY9H7U/aiqH3YHHHnscSmBQ1TDpmq1m3HTjjfrgnQSkpKTUmm7NmjVYu24tBCTO7NYNM2bMCL29p9pLCIH77rsPUkgYFSM2bFiP8vKy48p3p06dcE6/cwACsrKysPqX1VVfEkAa4cCBA1i58meAgN69e+O6668HAHjcHsyZPTskf+Qf+HbBggUgIpjNJkyeNLnO5Wuk4eqrR6Bdu3b6U2jq2B533X0XoqKiISCQmZlZbQDgGgRgNBnr3a5CCjz40IMwmYwACKlpqXp9aeJArU2dz2AyhD6hpXpapN+2NWCgPrArkYbMzIyq6Rq7GCH0wXXDPTGq+quOdAkEjTTcPOpmPPf8c/pgz+GeaOT/uyC/AD+vXAkpJEwmEyZNmqQPNCxDEoX+mGiB12e+jthYfVDl335bh82bNocs/1jeMf1WJwKio6Nx7733Vg0kXCMfUkq8++67cDgioGkaFi/+FocOHmp8YTUSEUFRFGikodJdifz8/Ppvy+FHHzPGGGPsFOMACmONRcD0V6fjpZdfQll5GQgEAQGf5gMA5OcX4IknnsD8j+ef5oz6CUAjghACpBEIBJ/PF/xaUzX8sXEjsrKyIKXEmWeeiW5du4FU0h9TG3w2q/4SUsBut+Oiiy7S21MELFr0Va1l6g2YU/c80fPOOw9t2yWF/7Ja46ljp44g6OtSkF9Qa9KVK1dCCgUCwKWXXQYpJDRVq1r3ao1eVdXQrl07WK1WaJqGvNw8FBeX6Ak1tKrVAlCXXXaZ/+kyAsuXrwjNuhRYtGgRvF4PCITzzzsfLRMS4HQ6QSAs/GohSkuqgjZEGvbt24fUtDQQAUlJSWh1Rqs6syEhcc899+j/V+o+9BuNRv3pKgLwer0oKw0TKAr3qNtw5aABTqcLdpsdRIT8Y/nwuD21k6NTUF/CBADDPvrXv30TEuKDs+bn5zdtmYF9pQmteEXqwYr777u/Kv81gy/VXr/88gty/OP2DB48GO3btQdpBNWngjSCpmkhL7PFjK5du0FAgEjDjh07Qpb/9ddfo6ioGFKRuPLKqxAbGwtN0+DxeKCpWshLVVXEtohFu7ZtoSgGqD5VD1KeTAKw2Wzo168fAEJ5RTlGjBiBlStXorSktGq6mgEm/7yMMcYYY6cCDyLLWGP4GzPvvfteMHASaCQJCP9n+l9z3pyD226/rZmcxOsBhECjLjIyMviNlBIHDuzXr3xrGnw+nz4wbLhUSA+nCCGQfTTb/4hiDenph8NMLUBETWpENkZyr/CDqdakafoArBB6T42a9AakHizJzMzA66+/XmdagWCST1VBIHh9XmRkHEbLmo9cDSeQTw0YOmQoNGhQhIL169cF14P8vVyWLVum1ywhMGjQICQkJKBbt2747bffkJ2djSOZmejcVR98VkrpHxxVz1ufPn1AGkHI8AVjdzjQo0ePesutehyDSE9L1dS61ynwfwJKSkqQmXkER49mITs7B3l5uSjIL0B5eTnKKypAAHyqD7ViJadqP6kegIBevj6fD7m5uTicfhi5ubnIO5aHrKwsgIDt27YHZ1VVNTSN41heYPsdb0xI0zQ4HU707devUT0pvvn6GxA0PQgoBGa98QbI/7jkcIQUKCoshAYNUsiq3mh+P/2/nyCgB1bdlZV48803oWl1rQTBaDSivLwcRPoyi4uLG7+yjSWAefPmYUfKDmzZtgXpaem4/PIr0LJlAsY9NA733X9f8LHPIb3HmsWxlzHGGGP/iziAwlgjlRSXIvNIJqpaN3rjItC41qA32Pfu3Quv16vf3nCaT+YLCwvhcXtApD/tokWLFlVfSiAnJweA3ujbvGUzNm/ZUm92pZT6bTGn0Rlt2pxYufrnzcnJCfZ8WLBgARYs+KyeGfQyCmxjTaOQJ5c0itBvy7FarPB4PNi5Yyc0jSD9AY/c3Dz88fsfEEJg8ODB6NCxAwD91qHffvsNHo8H8z+djxdeeEG/hYcIy5cvDyZ+5ZVXQtMIihDB5VVnt9trPQGmziKqr/Xvv9Lv8XqwZMkSfP31N9i6ZQtS01JRWlYGCQHNP5GAaFSdOek9UKrVj7RDafjoPx9h1apV2LdvH7KPZsOrVgXUpJDBpx0JcXpb3gktE2C31X5KVjhHs48Gg5Q/r/wZP/30U1WvsToEptdIq7VNDh065K/fEp998Rk+/+LzsOkJ//HP/1ChYI+tU9KLCHq9XbxkCWa+9ho+/OhDlJaVITU1FeMnjsfLr7yCc8/tj5EjR+Lqq69GbIvYU5IHxhhjjLEADqAw1hgC0DQVBsUADzwI9FzQvwptdBkUA6RsHnfHZWZmotJdCQEgMtKFli1bVn2poer2BhAiXZGhAZZGiI+PCySg+xPan+JExzkI9BQQVduoZcuWsNvttScN0ygMNLItVos+jUZ1jANTYz4pEB0TjYsvvhhLlizBsfx8/PTTfzFs2DAAwJw5s1FeUQ4hBCZPmRysV3feeSemTJmC3JxcfPjhR3jqqadgtphBKmH1an0claioSFx66aVVxXIqtwMBubm5uGnUTfj551VQpIQQAlFRUUhMbIWEhHjEx8XDYrXAZDTB4/VgwacLoPp7KgQCRqc0uCgA1adhwYIFGDPmHni8HhgUA6xWGxJaJiAyMhJt27ZDZKQLBsUAu92Opd8tRXp6+inKUOMoitLoMhFCBAMXUdFRiI6KhkaNC24KEdobLTDOT+CPVomtYLPZGh0cJNDxP2a6sQRwRpvW+Mc//4Gnnn4ar78+Ewv/byGOHj2KwoICLF++HN+v+B5Tp07FjBkzcMstt8BsNgfnZYwxxhg7mTiAwlgjuZwuJCUlYc+ePXU2VIQQOKvPWXpDCDjtJ/CLFi0KXl1PSEjQG0V+BIJUpP4uJEaNGoU3Zr3R+MQFqgJFf6GGChFBkD4OhH6rBWHWrFm45pprak8b5haGwC0ygUZaY4In1U2ZMgWLFy+GlAIzZryG4cOGo7SsFO+99x5AQFx8HAYOHFjVu4WA4cMvxifzP0ZG5mH898f/4vLLL8evv/6K9PR0CAhcdNFFiIqO0oNipzh4UlhUiCFDh2DP3j1QpILYFrH44P0P0OfsPoiIiIDZbK4afBTAkcwsLPy/hahwV/o/+RMCKAR88snHeOCBB+DxeiAgcNddd2Hy5Clo0aIF7HYbDMaqnz/SCBkZGac9gHK8hP92uRnTZ+CWW2+p55abavMI/ThlMIT+/GuafmsPEWHBpwv8Y4+gwW0khICmabBYLE1djUaLj4vDzNdnYtq0acjIyMA/3vwH/v3+v6H6VOTm5WL0PaOxYvkKfPHlF3+pYxJjjDHG/jqax2Vyxpo7AiCBxx5/HFKRkNV6LwR6okgpYTAYMGHCxNN+8q75NOzdsxdz584L5nXEiKtrNXISEgJjeOi3HpktFljt1sa9bFaYLeYwV6kpeHW8ORJCHxclMTERGmmQUiI9PR0WqwUWi0V/97/CrXfgu7rGGmlIn7P6ILFlIjSNsHr1KuTk5mDXrl0oKioCAJxzTn/9ar6AfoSWwGWXXQYAUISCJUuXQgiBhQsXBsffuenGm/TET/URXQBrf12LgwcOQkAgLi4OGzZswGVXXIb4hHjYbLbgYKiB4E9pSUmDPSOCPX1OdL+hqqDX3Lnz4Ha7AehBq/f+/R46duoAV6SzKniiAZqq344VmPZE6QMs0ym/HahLly4A9Pr8ww8/wGK1wGa3Nviy2qywWCwhASQIoEvnLv58SyxfsQJWmz6t1Wqt+n+Yl8Vigc1uO7W97vx1KXBMcUQ40LVbV7z9zttIS0vHY48/BrNJP7Z9ufBLfPDBB6cuL4wxxhj7W+MACmON4W8L3TtmDObOnQtXpAtSSChSb4QoioL4+Hh8++1iXHb5pacxozq32417Rt+DouJCCCGQmNgKTz31ZEiwg4jQq1ev4P83b96MivLy43+ATs12IoX7sBnxH/XOOeccSCGhaipWrPA/ESfsupxEQn/0b9euXUHQB+7du3cvVq78GT6vD0IKjB49OiRABwDDhw+DQTFASIHVq1fD4/VgzS9rAAGYjWb06NnjJGe0br+u/TU4hsjQoUNxRpsz9C8CPUqqZ13o03s8tZ+8E05gwONG3olSm6gKkKWmHvJ/JHDrrbfVOYtU9LFP9u7b18SFViHSx7TRgyd0Kh9GhVGjRum9P0jD8uXLUXCs9pOm6lx+mN3zhhtvAABopOLjjz9GRUVF4zIiaryfCoGnG9UMSgmgZWICZr0xC6+/PtP/kcBXXy06pWXPGGOMsb8vDqAwdjwEMHr0aKSkpGDhwoWYPHkSnnryKSxd+h02bdqESy+95HTnEAf2H0Sfs/tg7W9rAehd89+YNQtWmzVkj5eKRI8ePdD/nP4gaCgqLMLtd9xx2geJ/bNcfvkV+tNvIPDrml/x7Tff1p6o5uN6TwIhBS699FJISChSwcEDB/HtN99ACIG2bdviissv9wcRqhYYExOL2267Daqq4sCB/UhNTcORrCMAgDPanIEOHTrot+/8CXxeH6S/IsXG1hi0s0YZlRSV4LnnnmswzcjISJhNZgghUFlRGXyyy4lQ/U9MAgCHo9r4NtXz6LQUK3MAACAASURBVI9zzJ03F6mpqRDixAeSjY6OAaAPTltWXhb6mN2TqGfPnmjfrj0kJEpLS/H5559XfXmc9ZY0wvDhw5GQkAApJHJysvWg4omON3Sy1ZOX/v37BwctJtLg84V5ehRjjDHG2AniAApjx8PfoGiZ2BLXjrwWL7/yMl56+SVccunFiE+IPyWNDSK9MVZfw66kuATr1q7D5EmTcU6/ftizZy8AwGax4bXXXsONo24MkzBgMBjw1ltvwW6zg0BYunQJXnzxJRQWFAanCdcAKy0pxaY/Num3P/zVEAAN6NixAyZNnAghJLw+L+64/Q4s+uprUGCdSH9aCWlUFZwg4HDaYexI2XFCDeJrr70WJrMJqqbis88/w85dO0EAbrjhRihG/RaY6ttbCGDs2LEwGU3wer145pmnkZ+fDwGBe++9N/R2jFOsU+fO0PwFsmrVKpSXldcO3hBQkF+AqVOnIiMjo/6iIiAiIgIRzghopCH9cDp+//334He1AhANlbv/+6jIKAjot9v9+OOPoZNUC0799NNPmDZtWtXnTd2uUg+OJbVpAykV+DQffvzxR+Qfy6+9LieBxWLBffffB0B/AtjESRPx73f/Dc0XJvhUbbk52bnYsnlLyNdCCrhcLtw86mYQ6Y+bvvfee/H5Z5/Xmj9kXQjIyszC7l27T34AT9ODdb+s+qXqeFQtLzVjbCtWrICA/tjttkltYag2Dg9jjDHG2MnCARTGmj1CRWUFpk+fjqlTpmLqlKmYMnkqnpz6JMY9OA4DBwxE69atMWDQAMycOROFRUUQArDb7PjPxx9j/Pjx9SWNfv364aGHxkFRDNA0Dc89Pw29eiXjrX+8hdTUVBQVFaEgvwB79+zFVwu/wn333o+kNkm4+Zabw48bIULjSDWfUnTaBW4zEcCz06ahT58+EEKgpLQE119/HS4adhGWfbccubm5KCoqxpEjR7A9JQX/fOufuOSSS9CufXu89tprJxQs69ChA3on94aAPn5FkX+bXXrJJVWN0xrpd+7cGa1at4aAwKJFi+D1emEymzF27Niq9foTDBo0EFaLFUII7NixA0OHDsXmLZtRWlqK0tJS5OXkYeH/LUS3bt3w9jtvIy4uHnabrepOjzD5VAwKevbs5f9eYNRNo7B502YUFhahuKgYOdk5KC4ubtx6+r8fPGQwCPpAwQ888CDemDUb+cfyUVJSguLiYhzYfwBjxozBsOHDkJ9fgLZtk4KBoSYjoHuP7oiOjoYUEmlpabjjzjtwOP0wiouLUVhYhLTUkzNQrRACEydNxKhRo2A0GFFeXo77x96Pvv364auFXyEzIxOFBYXIzcnFzh07MfeduRhx1Qh07NgBEydODJMgMGv2LFx88cWQQuJY/jHccsstGDRgEJYuXYqsI1koyC9E1pEsbN++He+8/Q4uvfRSdOzYETOmzzjpZxMEgtfrxZgxY9CxQ0eMe2gcflu7Dnl5x1BcVIyy0lIUFRYhZVsKrr3mWjw77Vlo0GCz2vDQuIeaV88ZxhhjjP3P4KfwMNYcBR6zK/QAhNfrw9y5c6u+91+F1fyPXaneVoiJicZDDz2Ee0bfg9ZtWje4HACYPv1VdOncGffdfz8EBDIyDuPRRx/F+PHjYbFYIIRARUUFiAiaqoFASGiZUEcbRe9G36ir7Zp+9ZsIgKCwT72pymdVz5DG0QdYFYGWXZighM1uxQ/ff4+nnn4a78x9GwICP/+8CqtWrYLZbIHRaITX64Hb7QYRQCfpMjsBGHndSKzbsA6S9PzFxMSgf//+gazXXBVERUXh7LPPxqFDB6GqKqSQ6NmjB5wuZ/h5oNcMIareG5u5wICgQohaAbAuXbpg+vTpeOKJJ0BE2LRpEwYOHAin0wlFUVBaWobS0hIAwJAhQ/DZZ59hxFUjsGnzJj35mgPG+t+nTXsWq1evgs/nQ/rhdPTv3x8xMbEg0lBWVoZPPvlEf1JSIwMoM6bPwLp167F79y4AwPgJT+Cll16E2WyGpmooKiqC2+uGxWTBBx98AMVgwKhRN4U+uroJjfCYmBg8+MADeP6F5yGEwLJly9C1a1dEOCKgaRpUTcWx/GPB6QPLE0LUXf/rWc95785D+w7tMfO1mXB73di8ZTNuuPEGmEwmmEwmaKoGt9sNjch/a5SA0WCsvT/4//7yyy/w9FNPY+68ufD5fFi3fh2uHnE1zBYzzGYz3G43vB4vVE2/RUYKeUIDyAr/PwrTRYcIUDUNBQUF+Nfb/8LcuXNhtVpht9v146LPh4KCAgAERSgQUmD+/Pno3r17k/PDGGOMMVYfDqAw1kxJqY+J4XK6an0XGNvBarUhNjYG0dHRSE5ORt++fdG/f39ER0c3PJZDta+FEBh9z2hccOGFeOutf+CXX35BZmYmcnPzUFZaBqlIWCwWOJ0utEpMRL9zzsGIESNgMptrNcQE9EZk+w4dYDAYYDKb6swCAXA6nejUsSM00uCKjAy7rpGRkfo4HwDsDnujGrYulxMd2neElEIfl6KOeaKio/D22//ClVdcgfmfzsfWrVuRnZ2NoqIieNxuCCkQ4YhATGwM2rdvj4EDB+LWW29tOAP1EADOP+98dOrQKbgt77vvPv0pSXWtmwDGjRuHLZs3608PEhKXBMbcoappakpMTESEIwLRMdGNy5sUaN26tf44YkWpdXuQVCQeefQRtG3bFm+99Rb27N6Do9nZyMvLAxEQ16IFunXriuuvvx5jx45FhDMCQ4YMQXFJMVxOlx6QCRPMGjJkCH7670948aUXkZKyA7m5OcjJyYHFYkZsbCwiI6OOK6DRIq4FVq9ejemvvorlK1bgSGYmSopLUEzFsFqtSGyViAEDBmDs2LEYPHgIdu3aFaxjNqutyY9ZFlJg2vPT0Kp1K8x9Zy4OpaaiqKgQlZVuREREICmpTej0QiIpKQkej0e/DfA4ORwOvPjii7h4+MWY/+l8/PrrWhw9moWCggKoqgYQwW63wxXpQps2SRgyZDBuueXWsEE6AHC6nPjHP/+Bq666Cp8u+BTr169Hbm4uCgoKgoMBOxwOREVFoV27dhg69DzcfvttTSsvoS+vbbu2EELAbq8aq0ZIAavVgtdnzsSirxdhw4YNOHbsGEpKSpGbmwsh9EBQQkI8EuITcMGFF+Dhhx9GUtuk4y5DxhhjjLHGEhRyuY0x1qzoF4xr8w9+Gfw/6vj7OHodhHsCTV5eHjweD6RU4LDb4YhwhOYhXFIaBZ+E0uBiNf8tHYH18T8uOmz+amrMupH/kbJ1PXK4nsDD0ayj8Pl8kFIiPj4eiqKc3NsCqpd5PfmoNU9AoMzC1YXqNOhl2pj6UFf69U0vgIJjBSgvL4fBaEBcXJxe3vXVx0bkJftoNnw+H5xOJxwOR7BOkVbP9qxnfbxeL3JzckEguFyu0LpcPU+N3RZ1La9muRFw5MgRCAjEtmgBo9EQtudHrbJvynL9VJ+GnOxsaKRBURRERkZWBecau5xq5eDz+pCXlwefzwdFKmgRF6ePMVJtsOOmPtY7sCzSCEKpI43AcVAARYVFKC0thSIVWG1WuFwuvl2HMcYYY38aDqAwxhhjf6Ym9m752+FyYowxxlgzw4PIMsYYY38mDgo0DpcTY4wxxpoZDqAwxhhjjDHGGGOMNYADKIwxxhhjjDHGGGMN4AAKY4wxxhhjjDHGWAM4gMIYY4wxxhhjjDHWAA6gMMYYY4wxxhhjjDWAAyiMMcYYY4wxxhhjDeAACmOMMcYYY4wxxlgDOIDCGGOMMcYYY4wx1gAOoDDGGGOMMcYYY4w1gAMojDHGGGOMMcYYYw3gAApjjDHGGGOMMcZYAziAwhhjjDHGGGOMMdYADqAwxhj7WyIN0FQNIOgvxhj7KyMAGqqOZyd6bKMaL8YYYzCc7gwwxhhjp0N6ejpU1QchJNq0OQOKQTndWWKMsROikYb01HSQP+LRpk0SFEUC4vjTys3NRXFxCUCE+Ph4OJyOk5xbxhj76+EeKIz9FdS88uP/2+P2oqKsAmWlZSgrLUd5WTnclR6+UsRYQwgYOGAAOnXqhA4d2iMvL+905+ivg69Gn5r15yv97CQoKSnB2X3PRseOHdG7d2/kZGc3KXgCAM888ww6deqIzp07Y9GiRWGncVd6cPTIUeTm5II04jrMGPufxz1QGGvOqMY7AJ/Ph+9XfI+vv/4amzZvQkVFBXw+H4QQEELAZrWhY6eOOPvsvrjm6qvR9cyupyXrjDVb/hP8QI8Ts9kMKfl6QqP83RtGBL0x2sQGaYPp/t3LlzUrZpMZ5P9nNBnDTvPww+Pw6aefwmq1Yvbs2bj99ttPaZ5IA0Rg/zvZ+yFjjDUCB1AYa86qnRxkZ+fggw/ex/vvv49DBw9BA0GREpqmQfjPJoj0s++t27Zi4VcL8eyzz6BPnz74/vvv4Yp0nY41YIz9L/Efk0gleLxeGAwGKIa/X/DJ5/FBVVWYLeaT04jzB1AqKipgNBhhMBq4cchOAnHK69GG9RtQWVmJiooKrFu3DrffcQoDKBqgqj4YFH/zhfcRxthp8Pc762HsL+jAgQM4s1s3PPP0Mzhw8AAAwGw0ISoqCgMHDsKdd96Ju+++G4MGDkLbtm1ht9khIEBEuPLKKzl4whg7eQj4+puv0bpVKzz15JPBz/4W/L2Xxk8Yj/YdOmDHjh0nZd0JhLKSMpxzTn8kJydzw5CdFAIIXmA5VTp26ggpJBTFgC5dup7SY8Gy5ctwxhln4PkXXuAWDGPstOEeKIw1V/6TkMWLl2D03XejoLAAAGAxWTBp0iTceNON6NC+AyxWS9U8Aigvq0BOTjZSUnZgyZIlmDB+QlX38NPhRJZ9svJ9Otf/f1VzLdPqt0I0x/w1N00oJ1VV8cYbs5FfkI/yigr9w+Mt63DL/StsM6E/uWnFihXIy8uF1+vVP6eq74+Lf52FFNi3fz/27t2DmOiYEy+LxsxffZrmWPbNMU+slvfefQ+PP/44LGYLknsng4jCB21q7iPHs88QoGkaXnjhBeRk56CivPz46kdT90/GGAuDAyiMNWOHDx/Ggw8+gPyCAkghkdQ2CR9++BGGDh0SvvEBwGa3om27tkhKaosrr7wCVMdJBmmAkDi5J6k106Ian9f13lA6TaXVkZ+T2cAOd1LYyBPCek8kG5kOaQQhxalrkFa/mlh9jIYTDYwF0guX1qnId83PJUCnstdEQ+twoif0TQ0UNXa+ehrXGRkZ2L59O0AAkXYcC6+WXmM+ayiNpjTEqs97vMcf/3I2btqI/fv3w2g01m4onkDdXfztt/B4PfCpvoYnrmt/b4rAoJ/V9++TFfQ+kX27oXp6sn+7Asusb5rjCUqFS7eu8jie40VdeQ1u/2pfiFPfAyUqOgqDBg2qfzsF3huqCzXrcLXvDx48iA0bNgQ/1zSCVOpZt+rp1zxW1PyMAyuMsePAARTGminVp2LkyJHIPJKp/03AihUr0Klzp/Az1DgBEP7urXWdO4UMwqYBqqZC0wg+rxdCSihSwmgy6leTZMNnF6QSVE2DlAJSkSEnJT6vClX1wedTYTIZIYSEosjQdP3Ta6p+huN2u0GkwWQyQQihD/jZiBOdYEAB0Lv4+q9cqT4VBMDr9cBoNMKgGPSBQ5sQRFJ9GogIRPr4M0QEKSUURWnUybCmaiDSt4FUpF7GENA0PV2fzwdFMehlJOq4h52q1pc0QkVlBaSUMJlMkP6N35jt1iiEYDmRv9GsqqqeN9KXQ0QwGBoet4G0qjNYIYQe5JJ6mYD0eujxePSBXf3rIY93jA0NUDUNAMHj8UDTNNhs9loDD5LWhMZ/farVYU1TIaVEZWUlhJAwKAqEFJBS6uvVwCppKkEIwOv1QdNUAICiKPr8UtYdNKuRH1VVq+plMG29rDUieNxuKAa9rin+PAKh6ZK/ga1XbcLu3btRXlYGDRqsVquelqoF5yUifR0FqpU1QdNIHy9F+PdTIaCpGnw+1T+WE6BI/zpW3+Y1Go9ejxeKQYGq+stFKnoVFQKivgZVDT6fDyDAp/pARDAajMGyFSRqHxv8y3/55VdARFAUBXa7HZq/HgWOBYC+XzcK6eWl+lT8+/33ISCgKAp8PhWyxv4rpQzJS3BfIlStt/9zVdWgqj5omgaDYtDrTphH2WqqBqnoY2lpXg2aqkEjDWazWd+OigSp1Phy9f+eaJoGAsHt9kAIwGg0+rcTNapsAvUDAtB8Grw+fT9QpKIfZ4BavzMnxL9tVX9dDPYM8h80GnNsA/RtCRIQMjS4rfpUEOnHIyEkzGaTXoca++j0ao19TdX032tVg0/1wWw26/s49GOxPMUBk3CC+2KNY42eKf2NNIKmalCMCirLK4O/fYpUACH0c4dAHa+xXVVVxfr16yH9477p60sIxG/1ckdoHa9WZkTkz6OAx+Ou2if8yxOo43eWMcbCIcZYs/TH73+QyWgiKRQyKAZauuQ7Iu0kLkAjKi+roDfnvEkXnH8BtU1qSxEOJ9msNnLYHeSMcFKP7j3o3jH3Usq2lHrTIY1oxvQZ1KtHLxoyeAjl5uRSZUUlzZwxkwYNHEQtYuMowhFBdpudIp2R1K1LN7rrzrsoZfuOYDIlxaU0/ZXpNHDAQIqLjSOHzRHMR8cOHWnktSNp/boNdedDJZr/yXzq1bMX9U4+i8pKy4k0ovfmvUeDBw2mlvEt9TxY7eSwOyipTRINu2gYfbVwUaPKtay0jOZ/Mp9uveVWSu6ZTPFx8eSMcAZfCXEJ1L9ff3r6yaepsKCwznR8Xh+NuGoE9erZiyaMn0BERF6Pjz75+BMaMngIxUTHkt1mJ6fDSe3atqOc7Nyw6axbu45uuflW6tK5C0U6I8lmsZHNaqOYqBg6u09fmjB+ImVnZTe8Yo2hEa37bR099shjNHDAQGrfrgNFuiLJYXeQ3WanqMgoOrNbd7p51M20beu2epN6+cWXKblXMvXs0Ytyc3LJ6/HS2/96my4Zfgmd0foMckY4yWF3kMMeQXEt4qjv2X3pxRdepLLSskZlNS83jyaOn0h9zjqbYqJiyGa1kc1qpyhXFHXr0o1G3zWatm/bTqQRdezQkaSQZDFbKCc758SLSdVo/ief0qWXXEqdO3Uml9MVrMcRjghKapNEgwYMoscffZwqyitqzKy/eT1emjd3Hg27aBi1b9uenBF6GhEOJ0W6IqnHmT1o9N2jacvmLSHzhcvLv9/7N/Xs0ZOGDh5Kx3KPERHR5599TpcMv4TatW1HLqeL7FY7OSOcFBMVQ2f1PosmTphI7kp3rbQKCwppzuw5NHTwULJb7SQgCBAUGxNLvXomU+/k3pTcK5mSeybTwAEDSVOrMlZRXkmDBw2m3r1602cLPiNN1aiyopJmTJ9BvZN7kzPCSRH2CIpwOKnPWX2otKQ0pFwqyyvpi8+/oLvuvIv69O5DLRNaUqQrklxOF7kiXJQQl0D9zu5HkydNobzcvHo2kP72/r/fpyGDhlBSm7b6NrI7yG7TjzWJLROp79l96Z7RY+jLL76kygo3kUaUdSSLJk+aTD269yBFKiQgSJEKderYSV/vwKtnMg2/aDhVVlQ2WF+IiH779Te647Y7qFViK5JCkhSSjAYjndX7rGCavXr0op49etLLL74cXA9N1WjSxEnUs0dPunrE1eTzqkQa0dYtW2nktSOpdWJrstscZLPayBnhpPkfz69dFhpRcVExTZo4ic5KPotiomPI6dD3v0hnJHXp3IVuvOEm2vjHxpDtWV/5Zh/NpofHPUzJPZMpOjLavy/rZdut65l0x+130K4du+o+5vo/371rN429byz16plMMdExwXQiHE6KjoymLp260LCLhtFz056j3bt2n9Bv44F9B2jaM9No2IXDqEsn/Xga4YgIvjp17ERXXH4lfb/ih3rzvX7dekrumUy9k8+i4qJiIo1o2XfL6JoR11CHdh3I5XQFf1+jo6KpV89e9ODYBykrM6vhTKpE5WXl9OILL1Kfs84O/kbarLZgHm+84UZav249lZaUUmxMLEkhyeV00dGso00um0fGPRLon0QLPl0Qdprnnn2OevXsRb169KIli5fUWUbLly2nEVeOCD022hzkjHBRXIs46tWjF91w3Q307rx3qaiwiFSfRgX5hTTr9Vk04NyBZLPYSEKShKT4uHjq6d8vAq9ePZP13/1qcrNzacL4CXRW7z76b7a/fkc4IijSFUkdO3SkIYOH0ORJk+mX1b80uZwYY38vHEBh7ESdzKBGtTQff/Rxgn4ti87sdmbwhOxk2bVzFw0dMpT0a62SBARZzBa9MeOICDaQBARJIWne3Hn6SXqYvGoq0aSJk0kKSQ6bgzZt3ES33XpbMP82i01vrNkcBICkf3kJ8Qm0Y/sOOrDvAA04d2DwRM1sMgcb0oHlA4IcNgetWL6CKEw2SCX6x5tv6ekLSb/9+hvdeMNN+vyQZDFZKMKhBzukCDSADKQIhR575DHyuD3B9anJ5/XROf36B9MCQIpUyGF3kMsZSbZggxIECDqnX38qyA8fRPF5fHRmt+4kIem8IedRRXkljX98PCn+PAEgk9FMUijUoX0HfbtXK2t3hZvmzJ5DVos1OL3ZaA5ut0DjDgB17tSZft/wO2m+E6s4c9+eS1JIf13R07bb7ORyRpIzwkmKNAQbf84IF3296Os605rwxIRgvfp/P62kW2++lQzSQAKCDNIQDEiZTZZgPQFA/c/pT5mHM8PvAxoRqUSbN22mrl26BuudgKAIewS5IlwhZeOMcNH3K76nfn37nZwAikaUlZlFI68dGVxuoN7arDaymK0h9b5nj561G9ga0cEDB+miCy/yz6vo9dZsIadDDzCg2j6pSIXemDWbPJWesPlRfRrNnjWbAJDVbKU9u/bQw+MeDu5jBsVIDrveQDQajMHPBQS1b9ee9u3dF5Lk+nXryW6zk9ViI5PRFLKeFrOVLCYLWS1WslqslBCfEDJveVk5xcfFk4Sk8U+Mp7zcPBpx1QgyKkYS/gZRoP4PHDCQvB6vvo/7G/mXXnJpcNsFjktOh5MinZHBY4SAJEUqlNwzuXY98dePvNy8asc8/eWwOfRAjNNFZpO56pgHSS1iW1Bebh5pqkYvvfiyvp5mS8i+YDaayWax+b/TXx3ad6CKshoBsnDVRtXo4mEXk8VsJbNJ3+cDxxCT0UwWk4XMJjOZTfr/J06YqM+o6vPeefudJIWkpDZJpPpU+mzBZ+R0OIPbUZF68F1A6kGGGnVk5f9bSfFx8SF10xWhl4XFbAk2VqWQ9K9/vl3Piuhvi75aRDHRsdXqmIFcES5yRjjJZDCR8B87pVDo448+Jk0NnT/w/yWLl1CEveo3yGwyk8vpCgY2qtcFg2Kgt/9VT97q3QB6o95qtup1UCokIMlqsZLT4SRnhCt4XAts85kzZtaZ1qqfVwWnW7J4CT059Un9t8J/ESTC4fTXM4v/N00vi1aJrWh7Axcp0lLT6Jy+54Qcg21W/Xc1wuEkgzQEj8vvznuXenTvQVJIioqMOuUBlHvH3Bsso5qBOk0lqiiroPFPjK91XIz0/37YbXb9OOD/nY90RQb34WXfLSObxUZmk5mMijFYvopUyGFzBPcPs8lM0VHReqDdf9z4ZfUvFB+XENyfFamQ0+EM/m4ZldDj3h233dHkcmKM/b1wAIWxJtJUjXxeNXjl76QEN/xpqF6VktokkeI/oZ4yeepJSLxqGemp6RQdFR08cXY5I+nll16hrCNZ5K50U0VZBf33x//SBedfEDyBNkgDjX9iQu301MDV0MnBk6gWsS1ICkkRDie98/Y7lJOdQ16Pl4oLi+lf//xX1YkUJLVudQZ169qNAEE2q42mvzKdMg5nkrvSQyXFJfTFZ1+Qy+kKnnhFuiKpsKAobD6qB1ACeYh0RdIzTz1Dhw4eInelmyrLK2nN6jU0cMDAkHxcf90N9V5lffWV6SQgKOmMJHr6qWdo29ZtVF5WQV6Pl/KP5dPTTz0dPLGVQtLIa0aGTad6AKVj+470xONPkCIUUqRCA/oPoC+/+JJ27dxFP/7wX5r/yfzQPGlEzz7zLCnSQAZpIIvZSveNuY9SD6WRu9JDmqrRDyt+oB7dewS3bWxMLBUcKzjOSlJtkf7ARCA4NuqmUbRk8RIqyC8gT6WHvG4vLf9uOSXEJ5Ai9fVIiEugvJzwPQECARQAlBCfEAxGTZwwkXbt3EUet4fclW7au2df8MQ8UK6333Z73RlViRJbJgYbVbHRsfTPt/5J5WXl5PP6qLLCTcuXLae+Z/cNBs+cDudJCaAUFxZTp46dgkEARSp0zYhr6PsV39PRI0cp43AmLf5mMY0ZPYbiW8TThvW/VzUe/dLTDlNMVEywkWk1W2nas9MoPTWdvB4vuSvctGb1Grrw/AuDdUwKSQ89+JC+nXyh9aR6AEVCUpvWbUgRChkVIz087mHatnUb+bw+8ri9dOjgIZoyeaq/sa3vZ1ddeVVIupUVlZSemk4Z6Rn06suvBoMWt916G2UcztBf6VWv6qoHUMaMHkMjr6kKNF1x+RX0w/c/0M4dO2np4qW0Yvn3ep0PBFCIaM7sN/VjRWJrmjRhEq39dS1VlFeQx+2h4qISevWVV8loMAUbQlePuJpUX2gBa6pGt916ezDfiS0T6cvPv6TiohLyerzk9XgpPS2dFny6gC664CKSQtKSxUuC659/LJ/SUtMoLTWNup/ZnQCQ0WCkH1b8QEcyj1BmRiZlZmRSxuEMvcHamN8DlehI5hFKS02jrVu2kslgIqPBSPFx8ZSWmkaH0w/T4TT9dejgISopLg2ui+pTgwGUuBZxdHD/QXL4gw6JLVvRjOkzaOMfG2nD+g308X8+DunxpKl6jzKr2RrcDgP6D6C1a9ZSZUUluSvclJaaRteNvC64f5oMJpr+yvRawdjAtlr8zeJgnQQEDR82nNavV1ZxIAAAIABJREFUW6+XrdtL27dtp2EXDQ8uT5EKfVKzVwwR7UjZQYo/oAqAbrj+Btq6ZSt53V5SfSpVlFXQ2jVraeqUqZR0RhJ17dKt6b+9GpHqU6nNGW3IqBhp+LDh9MXnX1JuTi55Kj3kqfTQxj82Bn8rAr2D9u3ZV/s33x9ACQR3WiW2JqNiJIvZQnfdeRdtWL+B3BVu8nq8lHE4g154/gUy+AP4AoLOaH1GVRC/Rh5zs3Mp0hUZLBNFGujZZ54N/q56PV76eeUqOv+88/0BeBPFRMX8aT1Q6gyg+I9Dr7z8SvCihcPuoBeff9HfS9VN7go35R/LpyXfLqGbbryJzCYzjb1/bHD+8rJySjuURpmHM2nihIn6ciBp3EPj9H3ucNUrJzsnuF2O5R4jV4QreEwYPHAwrVu7jiorKqmyQj/H2bxpM73y0it0ZrczKa5FXON6WTHGGHEAhbHj5z8v37N7D3218Cv6etE3lHoo7eQl71Mp9VBq8ITEIA30/9k787gqi/2Pf+Z5zsImoIi4oKKA4AJuCAqimZqZVm6V2u9a3srubbutWt72ssWs1DKzLO22WLaY3tTrUq6gIKsgiyiKIiiy75xznuf7++M55+EcOIfFJa3m7eu8EM48M9/5zvLMfOc7M0fijlyx+EkmumnCTeaVVoHGjB5DBfkFzVdsSZk8rf98vTrhdXVxpeSklCYCK4PoRQsX2azsTpo4iQoLCm3is/xMT0sn787eqoFIgEDhYeGUf/ac3fCnTp4i/77+6irS2k8/az5obmJAESBQUL9gOplz0jZOM7U1tbT8/RXqaqCT3okSExId6qzkYgnt37u/+dYLKzb9uImczJMSr05edgeu1gYUZ/O2G58uPrTtl2223gTWA3Tzz/37DqjbJzzcPWj3zt3N8yYTlZeV0+233a56ddw47sbLGhwaDUbavm17ixPDgvwC6tHdVzUG7di+w244awMKA6PwsPBm3g7WaXz6yaeqkatzp85UW2Prok2ktJkJ4ycQzOH6+PVpHqeZ6qpqeu/d98xePsKlG1CsZHzk4UfU1UyfLj6057e9tuGsytHuViSJaNbMO0g0e52MGD6CzuadtatrWZLpi/VfqIYlVxdXOnjgYDPZLAYUSx5FQaTQkFB1+1JTuWSTTP/b9j9y0jmpHipH4o/Y5sHc1ld9+JFqiHj8scft68fKfmExoDAw8vToSBpRS/2D+1Pc4TilXjap5zZpykRFFy7S3t/2KmVvp58iItqyeYu62t+tazeqqbLV8/nC86TT6kgraik4KJhKiktbNHznn81vbDPWtimTTMOGDiNm9hJJS01rJm+7MIcvKS4hrUZZYW/qwdM0bFMDilajJa9OnYlBoMXPLbb1WmsiPxFRVWUVBQcFq3XjrTffplrzlkeLR6El75+t/Yx0Wh1pRA117dKVKsormnkAlhSXqMZLrUZLH6/+mBrqDc3KSjJJ9N6776ntuW+fvs22XLyz9B0SBeW98O/FzzvMA8mKUe/0qdP2ddVWZKLEhEQ6fep0M6ObJc3K8kq6deqtajt6cMGDduPZt3ef6qHIwKhb124UczDWofyJCYnU2VxuDIy2bd1uN/3nnn1Ofaf18etLqSmptu3GKuzqj1ar/avAxGtrQDETNSpKNSz99utvjhOTiYouFFFpcWljnqz6njffeFPt955d+KzjeMzbeS1jiwX3L3CYHpHyfjtz+swV9fDlcDh/brgBhcNpCxbPEJNM6WnpNHXKVNJpdeogxdnJmebOuZtyT+ZenjeKrHif7N+3Xx2Eubu5N5sMXA47/reDREEkgQnk28OXqiqr1LQd8fzi59UB0oD+A2xXysyD7WcXPtu4ushEijsU1xivncHjrJmz1JVInUZHsTGxNqvOTXnh+RdU9/bH/2Vn0tbEgOLq7Ern8gsaZZCsPuY0DPUG85YJZXD6t//7m/3tQY5okrfqqmoK6BtAGlFDLk4ulHEss9kj1gYUyxaC7du2N8bnIB2jwURjx4wlUVC8CD5f+7nDZySjRJJJUlb9za7icYfirqynlJ3J7tNPPaNupXj5pZftPmptQHHSO1FSQlKLSUkmiQL9A9X2sON/TQwzElFKUoq6QtzBrQOdyj3lOJ/mswRGDB+h1pXL8UDJysxS66Wzk4uyj74depYlmQ7sP6DK39mrMxWdb0UWiWj5+8vVrT69e/Wm+lqrLUFWBhRLvAITaMvmLY7rt/nv06dNV1e6V65YaVfeDz/4UDWg/MtiQGkhv9YeKMrWmC6UmZHZ6nMt0kTH9XX15N3ZW13lLjhXYBM290Su6p00YfyES0xUaVtDBw81G1B0jWfRXCYlF0vULQoODShmmhpQLFugFj+72Px9y2lt+mmTWi/Cw8IbjZJW26YsfaahwUiDQwer4Ve8v6JZma1YvkLt92+edDOZjCaHaddU1yjnvUDxVPnx+x9tvn/1lVfV+udowv67YjFe791PWo1W3WbWLI8WA4rV9tBNP21y2BdYymj+vfPVvu2NJW80C1dbXUtdfbqpBoj/rP+PjVzNkIjunnv3dWNAkSWZhg8brhi3maD0zfZorR+Q22FAIaK1n65V+/dl7yy7cu8+DofDIaJ2Xm3A4fy1STt6FJGjIrF161YYjUYAgEYU0dDQgG82fI0hQ4YgJyfn0k9zNz9XX1+v/snZxQXOLs6NN1FcJj/+8CMk860ed915l3KLhlXazSDglVdegU8XH4CArMws5QpTh8EJQ4YMwYjwcNvbM6xhwNChw8AYA2MMw8OGY1TkqMZbL+wQMigEoqABA1BQUNBqPoODg9G1q49ySr/lNhDB/DHLo9Vp8eqrryq3Z4Dw008/oaKywqEebH42/T8AZydn9OjRA0QEmUi9PcUuZhnuvfde3Dz5Zpu/2QtbXl6GlJQUyDLBzc1NecbBDRSCKEAQBUREREA233KQmJTYchrtoWkZmW9NGDt2jPplaUlpi1FoNVpEjorE0OFDW0mM4aabbgKDUldO5Z5qlvbhw4eV/zIBQwYPQa9evVvUpZPeCQ8++GAr6baCWQfbtm2zRIsxY6IxOmq0ze0zrcXBGMPG7zYCAGSSMWvWLHT27tximgTgvvvuQ8+ePSGThMKCQqQePeogEUVv3bp2w82TbnZ4+w+BAALCwyOUdgmG8vLyNmSifRAIS5YsQXD/YABQb7BpRwSNHyv0TnpER0eDABgaDKiqqmp8hAieHTvC2dkZJsmEPXv2YP269ZeTjesLBuj1evzr8X8pv7ZS9yx9HmMMH330kfJ+aRKfpb8UBIZFixYpt5QAWP/FepugRoMRS5cuBYGg0+vw6aefqjfC2MPF1QUPP/SwEl6rxeqPV9t87+HuAcYYNKIGS99eivq6hrZo4OphvgWoY8eO0Gg05puFGtRbZxzh6uqCkSNHqnE0i9bcZw4bNlzt24qKipqF+3nzzzh/oRBEhN69emPu3LkO47T8/ZGHH4FG1LY9j1cRxhjc3T2Uy5lIxooVK696mrIkw83NDSJT6uHy95ejuLhYvannSo2lOBzOXxduQOFw2gCZr5l84oknUFVdBTL/AwCDyQCZZDAwVFVV4/XXX7+8tEDqVZhK2nL7JxktkJaeBgYGIiBqdFSLg10Lgiig/4D+kM35Pn48x2FYURARPWaMeo2yo4Ge5YpOSZIwdIjVJNrhBA+A+brftgyCBgwcoFxJ2sq1wiMjRqJnz54AGOrq6pCenu5YABk2hhQyy19bU4eS4hIUXSyCTMpVxLIktTzINk+eZ8yc0aYBXVZWFqqra8AY4NvTF85OzigrK0NZqe2ntKQMpaVlKCstR48ePQBzfcrKym7MR3uwYzAiy522AOrr6lFeWo7i4mLU1NQAUPJVUeHAEGVGlmWMjh7dqjyMAaJGNJc/UFJa0kwui3GIZBnRY6IhiKzFeBljuGnSJOh1etDlDKYJSEpKgmC2yk2YMKF9BipzvUwz1zmBCZgwYYLj66ctN9UywMXZBUH9giBAgNFkRE7O8ZYeQfSYaGh1jidVljStr0BtrQwvBcYEjI6KUn9v83W/agSNH+u2V3yx2Gx4JpgkEyorKq3SZOjY0RNvvPEmdBodJFnCgwsexOSbb8G333yLuto62zT+YBMsgQmYe/dcdPHpovyhBWN4wblCHDUb2zp37oyAwABzv1GK0rJSlJaWKv8vKUVZaTkqK6vQP7i/Wj+OZx+3qRfHj+egoKAAWo0W3bp1g5urG8rKylFW6uhThhHhI0AgmEwSMjMzIZka+8k5c+bAz88PkiTj6NGjCAwMxDNPP4OUpBRb49nVLiMCTAYTKssrUVJagsoqpT4xMNTX17fwTlbeUb1790aXLl1a7g8Y1CuZAaUvbYrFOExEuPW2WyFqW3lfE9C9R3c4OelbDvc7snDhM9BpdQAYVqxYjhFhI7Bi+QqcLzivBLCo8gqVq8AETJ06FZFRkZBJxrmCc+gf3B+PPPwIDh482GhIsfAHa+8cDufao2k9CIfDYYzBZDIhKTkJAhMgkeOJ8c4dOy8zLQFenbzU32tqalFZWYmOnTpeVrwWSoqVCShBRs+evVqf8DEAMtDHrw8Y9gAATp3KdWiUkGQJ/foFNj7bWvSMwcPTo83ytxXfHr5tkoEJAvz8eiPvzGkITHTo3UIg5Obm4tixDBw8cAD7D+xHRUUFqqqqUVtTg6rqKsiyDJlkCBBUA1tLEBG6du3a4oTHoufU1FRYjCGZmZnw9vZWPYls8qNOgBk0GhECEwEiSCbTpXmfmJ8pLSlFTk4ODh48iP/973+4ePEiysvLUV1djerqGhiNiiGxzRDQt6//JcmiRiErEZ04ccIcJaFfYL/WB8QM6NnLF15eXjh//nz7ZGjC2bNnlSgZ4Ofn1z4dm8OeP39eNZxaPL1ai0fQCAgKCsLuX3e3atQEgJCQkHYIdvXQaDTo1r1bm/JoQZZk5OXl4Vj6MRyMOYg9e/aisrIS1VVVqKmtQXV1NYwmIwQIqqeEDQwgifDIww/jeHY2vvr6a1RWVeB/O7Zj544d8O7SBfPmzcPMmTMxaNBAuLq6Ks+1Q8ZrCYEwZcqUVuWVZRl5eafVfqO4uBg+Pj6QTJKdJtNoyBcFEaRs+YZJMtkYD06ePGE2hpiQeyoXXXy6tGKUJAiCYjQjIhiNRkgmCaJGMQx4+3hj3959mDZtGlJSUnDuXD6WvbsMK1esRNiIMCxYsABjxoyBX28/MPHKFE5NVQ1yc3NxMOYgfvvtN5w+dRqlZaWoqalBZWUl6urrITBms7DhCMYYZJLRt69/u42DTd8ZJBNyjueodXro0Na89RQ8PDyg0+lQ29QweC0g4ObJN2P1x6vx/PMv4ML580hKSkZiYiL+/e/nMX3aNNz/wP0IDu4Pn65drowxgwGurq74fuP3mDlrJuLjj6C4tBgfr/kYH328GoNDQ/Hggw9i/PgJ6NOnD7RaPhXicDjtg/caHE4bMRgMqK2pVb1Nmg12zLPdisoK1NfVw8nZ6ZLSYVBWBkVBhCzLqKurRVpaOqJHj74iA0aTlVeEXt/GVSoG+HT1UX81Gk0tBndycmrX5KMtA9P2otPr2mjAgbqNSZZlm+1TACCZJFSUV+CBBx7Azl07UV+nrD4SSNn6Y5adMUHxeCEBkmyCiNY9ewgEjdi2brihoaFx4kKwazwBrHVJMBobJzqtuZzbEQ6yLEMQBXyw8gO8/voSVFZUwCSZFI8sWYLIlIkVmLLqZ5t+y0gkQaMR21xHGKBuO7D8gQEAY5Clxny6urqqW4ocRmRGYJfvhGmpCwIE6HS69kdgdq3RiBqYJBO0Ol2j/C3pRga8OiuGVo2oQUND89VrazSaNrj0M8UThagt5j+z+BajWRvLUa/XtcnrDVAMZIaGBjzwwAP45ZdfUFlVCVluvkwtMAGiYI7TgQ2PiQyiKGLVR6vw9NNP45VXX8G3G75Fg9GAoqILeGfZUqxYsRxeXl5YuHAhHn/8cVWGK1BNriqyTHB3d2+5DEhpm9bGD0mWQEZlu6G155H6iLktmyST2u6MRqO5DMxxSJL6rmIQYDKZrIy4juSVVaNMRUVls3epby9fxB6KxfZt27H434uRkZkBo8mIw4cPI+5wHFxdXTF02FB8+OGHGBQyyJy39pWTpVy3bP4vnnrqSRScK1AMJQIz64hBFAXIsgyNKIKBKX1fay3D/LWTUyvv/7a+ylWvM2UrzB8Oc182/975mDZtGlauWIlVH61CSUkJ6uvr8M2GDfj2u2/h7u6O2bNn4+2334ZbB7fLN16axyy//bYHhw8fwpNPPomjqUcBWUJ6WjoeevghuLm4Ibh/MJYtW4axN4y9QhnmcDh/BbgBhcNpA0QEJ70TOnl54ULRBdibnTEwCIIIX19f6HWKYeJSBt9MZPDt6Qt/f3/lPBUAP/30I8aMjb7cbChQ4/YjuS2TavNAprKiUh3TaLWaVgfr13rlVp1Uy2hxsyIRQZJk1VNDa5lomudpFeUViBodhazsLAhMQPfu3XHHrDsQGRUJHx8f+Pj4oEOHDtBqtRCYgOjoaGRmZbVZzrZMVC0ux4J50jFu3Dg8/fTTbU4DAHr26glZktu+KkrKxHTBAwvw6dq1AAh6nR5Tp07FzTdPhr+/P7y9O6Njx47Q6XTQarT46uuv8MQTT7RdqCthNyPblVuZ5N+v/pmTZUxQtm7J7c+QZWXfYuAymc9WahGmTBjr6upBUCbFrRtvrA5QuYK6sevx0RptVNPFi0UYN24cssztqUsXH9wxaxaix0SjS5cu6OrTFS6uLtBqtXB2dsHEiRORmJjQmsDo498H69evx5LXl2Dnrl3Ytm0bdu3ciYqqShSeL8QTTz6BDd9swBdffIHgAcHtz9/vThsUypRJuHUd7dvHH6tXr1beA3aK0dYYyiAIDIwJ8PBwtwknyRIEJmLAgAFYtuydtktNBJ1WZ7fuarU63D79dkyZMgWHDh3C7l9/xZYtm3Hs2DFUVldi3/59GDlyJP75j3/inXffaXctZAxYsXwFnl30LOoN9RCZiLFjxmDa9GnoF9gPXbt1haenJ5ydnaHV6pCdnYUbb7wRBoOh5TzB0iau/KJAi2dqXa9YVCEAHTt2xEsvv4R//etf2LN3D7Zt24ZfftmKoqILKC0rw+rVq7FlyxasXLkS02dMbx7XJahUp9dizNgxOBJ/BImJidj966/YtGkTEhMSUF1bjcTEJEyYMAHz5s3D2rVrla1q18H4hcPhXN9wAwqH0yYYtHotxt94I7759hsbDxQGAWRe9iSScdedd6n7xS915VLUiLhx3I3IyckBEeHnnzfj1VdfhXuTgeul0MHdXV0xLC4ubjU8mc8dOX/hvDqmcHNzu2w5rjYFhQXqwM0h5knF+fPnIZOyktrB3V39TpZlTJs+HdnZ2WAQ0LdPXxw4cABdu3e1G53RYAQTWKuHOLYZq9XHLj4+ILO3Q31DPSZMnNDqSq9NVO0VigFxcXFYt24dAIJOq8emTZsw+ZbJjWGsBpqyJEOvd8LvOvI0J+Xewd38K1PqdBs8OEgih148bU7b7CqumHAI5RWXcugqg6eHJwRBgCRLqK6ptjlnR03LTvIFBecAKEajDh06tE3mVichbSm/xjAOz2u5Ajy76FlkZmYCYPDz640D+w+gh28P+yISWnfFt64TDOjRswfm//1ezJ9/LwrOFWDJkiXY8O0GVFVWIT4hHhEREcg5cQJdfLxt47lKWW53G72E+C19t3IOlozx429Ut89cCh3cOkCr0ZqN0Aw3TbypfZ6SDuqjRRUanQbRY6IRPTYaL734IrZt347XXnsNCUeOoK6uHu+9/x569uqFxx57tF1yJycn4/EnHgeDAJ1Gh5defhmL//1cM9mICExgcDvXqLffD6ac0wRlbFFYWNimp0imq2G/uXQsKjO/jz07eWL6jOmYPmM66mrrsHz5cqz5eA3yzuYh/1w+7rnnHgwfHoZevXvatFlFD20zFqo/zc8zkSFsRBjCwsOwaNEixMQcxCuvvIqDBw/AYDBi3br1MJlMWLduvXo+G4fD4TjiOndM5XCuDyyDuVUfrcLoyNEQmKBuvRCtVvSn3DIFzy1+zl4UbcMyNpCBv//97+oWm3PnzuGnn35Sv7scAgMDzC76pK7stgRjikvz8eONh1T279//+hqg2SEnJ0fZatSKnAXnCpCdnaVuARg4cID6XV7eGRw8eAAEwMXFGTExMQ6NJ4By+0dd3VXYdy4D4SNGQKvTgjGGjIwMlJaWqrelOPzHmGLQEZg64W8Pr776GiRJgkbQ4J575mHSJPNtQXYn9gxnz5y5csajdjB48GDVqJmamqq0kVbkOHXqFIouNL/1os2YddAvsB/IctNRYmL7Jy9ECAgMULZLMQHHjh1rk6FDkiRkZmSq25BsDmK+LFpOuOkEkq7SgZ5lpWX4ZsM3YIxBq9Xgu2+/Q4+eDownULZY5ufnX5osDOju2x0ffPgBkpOS0cPXFwwCqqqrcGD//mbBBUFs0xlH7ZUBDJCvwnZGNQmBwT/AXzU45uefQ0ZGxmXFOWDgAKXuCgw5J3JQWtry7Vv2BWvb3wSNgKm3TsH+/fuw6qNVal+zaNFCVJS348BjAvbs2QsBAgSBIXpMNBYvfs5u3bEYtcrLyhUvsd/TPsyA4cOHQ2DK2T777dTFpkiShOLiYjQ0XOPbixzRRMfOLs54bvFzSD2aivE3TgAA1NTU4MUXX1ACWOlbaSLtXwhomi4TgNHRo7Ft61Zs2rQJzk5OYAzY+N1G5Obmti9+Dofzl4QbUDictmB+CXt29MTWbVvx3nvvITIyEj2690C3rt0wYfxErF27Fj9t2gQXF5fLS8u8YjJw0ECEhoaCgUGWJTz66KPYu2fvZbfayTcrHgQiE7Hh2w1teiY9/Riys7LBGINOp8PAgQOvexfXrKwsGI2G5gOoJqfvv/POMphMypkuw4cPVw4CNVNVVaVcqSmI8Pb2RievTspjUpNRoPnXs2fPKoeSXsk5EAMgAF27dYO3tzdAynaqvXv3NQ93JWFQJqRgkGQJs2bNUm63saTVJI8GQwO2bd/WvoNkrwQyEB4Rrp6PsnfvXpikJmf02CmPzz7/7LJlJZkwOnq0eh7O1q1blbrU1vJniu/K5Jsnq8awr7/+utFzqoUyzcrOUreV6bV6BAX/TltNGKDTaqFuVLiCN4RZU1FRqerSw8MDI8JHNH5pR7/ZWdnIP5vfcqQOPFcsCKKAXr17Yf78e2HxKipsesgwg3omxpWEgUGj0dieRdKkr7oS/YqbmxtmzpwJAOp7RTJaeWI1TaeVNLt3646bJt4Ek2RCQ0MDHn30UZsziZo93/T31raC2gmj1+tx3333ITCwH2SS0dDQgNKydhhuGFBSUgzLwc0hISGNaVjfCGPF9z98rxhQfueFg9tuu828SMOwa9dunD2Tb1c+y99EjYj09HTU1VsM+b/zi7ql5Oz1aaT0ox6eHnjvvXfh7OQMIsLx7OPNtkRqtBrIbVlBaqobB2Wq1Wkxfvx4hISGgMznilVWVl73YxsOh3Pt4QYUDqeduHu447HHH8O+/fuQfy4fZ/LPYNfunfj7fX+HRite0kq/Cmv8uLi44Ntvv4NnR0/IJKO2thbTpk3D9m3bYWgwOB7Ima/atayEy5JsE3bmrJno2rUbJJIRGxuL9997v7lBAOY4JEJJSQkmT56MBmMDBEHEU08+pdwcc5kotxVc2dGo9dzj4sWLWLhwIUxGSbmtpWmZyIqR5Ysv1oOBQWACnnrqaZtwzk7KlhRZllFWVqZe36nukwbUn7XVtfjHP/+J2rraqzIAc/fogNl3zVZEl2U89NA/cezYMdWbyLruQEDjYJXM12O2V9UEeHp6ACAwJmDnTse3S8mSjG3btl32avYlIQCRkZHK4Jpk5OTkYM2aNTAZ7U92SCacOX0G69evvzwvAnMZ33brbejdqzdkWUbuqVzcf//9tgYcAiAr5yGp7dJafEHA7Dmz4e/vDyJCSkoKXnrpJVVWNQ40tumqyirccccd6i0b8+6Zh56+vq3L3KYDd1oP0tm7MwSBgQAcPXpUnViSTC164LRH287OTqoHVXl5ObKzs5tPqM2T/braOrzx5puQW0iBZEJ9XX1jX2cvLigHslZWVKoGrabnfQiCgK7dlP7PZDIh4UiTM1cu0dDh1sENnh6eAAHFxSXIzsxuHugK9CuMMTz/7+fh4uIKSZYQczAGP/z4A4wGc52lJtskzH0IyQTJJDfPnwC8/MrLcNIrB4f/tOkn/Lr7V1s9W/WVFo8lksjm+mILRoNRbTM2WKVJpOjeYGgAg3J4d3sXLixbmYiU29VAStmrxmGrrSO//fobVq1aZTap/b4WlNDBoRgZMRIAobKqEsuWvaMYvKyN2FY6rq6qxosvvaScyUSy3cOBry5NPNRkQkOdlTdM0/rDGr1Kampq1D6vY8eOtlvaGODjo7Q7xhgyszLtL4qY0zQalNudZElWDNXWW4Gs7XsENNQ3AFDOknJq68H6HA7nLw03oHA41zF9+vhh9erV5v3qhIrKSkyfPh2TJk3Cl19+iarK6sYBiXkQIckSzp45i3Xr1uHhhx6Gqckg1d3dHRs2fANnJycQCIsWLsITTz6BivLKxkDmwUZcfDzGjx+PwsICMAgIDAzACy++YGtAuE5hjGH16o9x/333ocL6bArzIOqXrb/gxnE3oqy8DADQo0cP3Dxpkk0cvf384OPTBQSgqqoaN0+6GQXnCkGWSQYpxozU1FRMnDgR+/fvM5fV1cnTq6++isioKEikuGmPHTMWS5cuRZ21gcRqsp2akorFzy3GhPET0NBgsPm+NYgI8/42TxnEEmHVqlXYsX1Hs9Xp+roGPPbYY7j77rthMBquyM027aWzd2esX7ceDAIYY3j88Sfw738vVj2LLGUi6J1SAAAgAElEQVQuSzL27duP6DHRKCgsuDwvAlIG/jqdDp9/9jlEUYQAAV9++RVmzpiJkydOgmTzpExQ9FlXV4fNm7fgmaefsZmkiYKI9evWq4dpvvnmm1jwwAJlO4S1Q4KsGFgmTJiIzKwsMACB/QLxwcoPrtzbvA0qCQgIUA/Kjj8Sj++//0F5tNWzA9reMLy9uyA8PBySLMFoMmLGjBkoulBkY4AiUq6wvummSdj43XdACxPc06fzEBkZiQ8+/BAlxSXNz1JggGSU8M03X+Ozzz9X/zxk8JBmk76JEyYqfyLCU08/hZTklGb9cHvRaDSIGBkB5VBgCXPvnqushsM2zks5qNgGBvTs1QsLHngADAwm2YR777kX8+9VzoFR65GVoaOoqAhr1qzB1KlTUFpa1qyODB82HLNmzgIYg8FgwLTp0/DQww+hvLTcxuuAzDcoFRYWYsXKFZgyZQpqa2pt8rdy5UrceeediImNsfXmsoqj6MIF3HnnncjLywMDcMMNNyjeeW2EZMKwYcOg0WjAGMOOHTuw+qPVjdkyG6Hr6+qxbNky3HHHHYDZyP67YaWTJ558AowxCGD4ZM0nuHf+fJSXldvUYZKVLbnjx49HWvpRdQvn5Rp8yOEvTcKZv2tqr5EkCbPnzMHi5/6NgvwCc6AmcQnA/n37MWPGDNQb6iEIAu67775m9czPr7c5LcLOHTvxww8/NBraZOVjMS59880G3HLLLdi2dRsaGhoUuczpWoqxvLwcCxY8gPT0dABAz549ERgYeN2PbTgczrWHHyLL4VyvmAcPd955Jzp6dsTjjz+OrOwsNBgM2L9vP/bu2wtXF1f49faDVqeFJEkwGo0oLSlFSUkJGGPw8PTE0qVLodNr1UEBA0NUVBSWL1+OZ599DuXl5Vi58gN8/fU3CAsLQ58+fqipqUVqagoyMjIhSSYQgKFDBmP9+vUOr2duPFS3PZNSAhFr0zMMlumR+cJoaj5Ys+aOO+7Azz//jP98+R9s+e8WhIYORqD5rImU5BSkpadBkiQwMAQEBuD7jd/D3dN2tVmn12Ljdxsx+ZZbUFNTjeSUZAwdOgTjbxyPTp06obauFkdTjyItPQ1GoxHjx4/HyJEjsWTJEkXmFgRU5s6sXSuEzq7OWLduHe69914cOhSLkrISLF68GO8sW4aAgAD06N4ddXV1KCgswMWii7hw4QJkkuHi4tKoqzYmxwSGe+fPxwcffoijR1PR0NCA2267DSNHjcSQwUNgMplw8uRJHEk4grKyMnh7e+PHdT/innvuRVlZ80mWbb7Ni8xt2kLTpH44GNzOnjsbsbGx+HDVh5AkCUvfWYqvvvoKUZFR6OzdGZWVlTh6NA3ZWVkwmoy452/3IP/cOfz226+XPmBmip7Gjh2Lt956G6++8gqqqquw5Zct2LV7Fwb0H4CePXuitrYW58+fx9mzZ1FeUY4A/wC8s+wdm8lh5OhIrFmzBk88+QTKy8vx6dq1+OmnnzB8+HD06dMHDQ0NSEtLw9GjR2EymSAwhuDgYHz+2efQOzdfNWXMqv419SpoAfVabjiovwwIDAjEsOHDcDDmIOrq6jB37hx8/vlnCA4KRl19HY4fz8HWX36Bm7vVYdNNVp1bQxAY3l32LiZMmIDaulpkZGYgKDgY48ffiB49fFFTU42jqUeRlJQEmQjjx9+I++67D3PnzlXqi5VnCRGBMSA5JRmpT6TiueeeRb9+QQgK6odOnTpBq9Wi6EIR4o/EI/dULhgYnJyc8MILLyIkNKSZbAseXIDlK5bj5MlcVFVWYcL4CZgwcSK6dPFGaWkZ8vPP4r9b/osOHm042NcsI2MMTz35FLZu3QqD0YDk5GQMDh2MG8ePh7OzMwrOncOAgQPw+pLXVSOKco26OYp21GGtVoP33n8PMslYtWoV6g312LBhA77b+B369+8PP78+0IgiCgsLUVxSjNzcXOUmOidn5dpqq9V8QNk2sv6L9dDr9fh83TrU19fjk08+wbp16xAUFITevXpDEAQUni9EcXExTp06BcYYOnp2VIwkVnFVVFTgxx9/xI8//ohu3bojIMAfAQEBcHZ2BsmEtPQ0JCcno7q6GgAQGBiIDRs2QBDabtxgYBg37kZMmjQJ27ZtR4OhAY88+gjWfrYWEeERYALDufxzSE5ORv65fDg5OePdd5fhjTfeRHHJRbXMmqKcVXJp3YlMTZRqtaVo2rRpWPL6Erzy6iswGo345uuvsXPHDowYMQK+PX1RV1eH9PR0pCSnQAbhhrE3wNnZWfEatDbsXYK9mFn/r8XnCYDQ7F0uCALOnj2DzZt/xltvvYV+/QLRL7AffHv6QqPRoKamFslJSTiWcQwGo2LknzNnDmbMnNEshREjRiBseBgSEhNQ11CP2XfNxvgJE9CvXyDq6+uRmZmJH374AT4+PjAYGrB7927s3LUTXby7IDAgEEHBQXB2dgZjDNlZ2UhMSkRpWRkEMPj4dMWmTZug1bXhuncOh8MhDodz/SMTyRLRs4ueJW8vb3LSO5EAgQQIpBE0pBGVj8AEAkACE8nF2YUCAwKpoa6BSLaNy/IzKTGJBocOJmcnZxKYoMRjjg8AaQQNuXdwp9l3zabK8kr7sklEsiTTwqcXkiiIJAoa+mztZ7Zp2uGNJW+QyEQSmEjPLXquVRV8u+FbEgWRNKKGZs2cZVeOD1Z+YM6/QO+/9z4dTTlKAX0DSK/TEwDSaXUkMIFEQSQBAjk7OVPUqCg6l3+OZEm21Y+qd5m+WP8f8nD3VHUsCiLpdXrSiBoSmUgdXDvQQ/94iIiIMjMySavRkouTCx1NPdpMTJPBRAP7DyQGJZ6c7BySpVazbyOTyWCiRQsXkaeHJwlMJAal7LQaLWk1WrVuaEUtdXDrQLfdehsZDcZ2JNJI3uk8Gj4sjHRaPQGMNIKGGBhpROWns96ZBocOppMnTpIsyRQVGUWioKH/u/v/7Mb3r8ceV/X4xfovWq0nsiTTo488qtQVCLTk9SUthl/1wSpy7+CulrWTzol0Wh2JTCQA5O7mTv948B9kNBjpicefUOvUhcIL7VOMTM1k37d3HwX0DSAXJxe1nih13FznmEBOeicaGTFSedZOuScnJVNEeAS5OLkQg0ACE9RyVfSupQ5u7jRj+gyqLK+0X3fMcb/37nskMCWON5a8YVfmprz15luqrE8+8aTD8CajiSJHRZJOqycGRlqN1lwnBHJ1dqXy0nI1bG1NLXXr2o0EJpBOo6PKCgd9SdNsSEQ/fP8D9fTtqZafJQ5L+3HWO9PcOXNJlmSqqqwidzd3EgWRjsQfUeORTBIVXSii4KBgta8TmNI+LPWEgZEAgfRaPfn17kPffL3Bvr4kIsko0W+//kZdvLuoZau2PSZQN59uVF5WTu3CnNZbb75F7m7uaj+uETUkCiIxMLpn3j1mvcgkmSSaf+98VfZdO3e1Wrb20ty+bTv59e5DLs4uSprmvsTyYWAkMIFcXVxpcOgQqiivaJTXDl99+RX5dvclvVZPIhOV94mgUXUDMBKYSG4ubhQ9Oppqa+psnv9kzafUqWMn0ml16tTfIovIRLM8yvvtlsm3UGFBYTsz3Zj32po6mnb7NKVOmOuTpT9gYKTT6si7szft+W0PERFNmTyFGBiFDgqlutq6ZjrYu2ev+g69Y9YdbRJj9UerSSMoZfyPBf8gyWSnQZvrxpdffEk9uvcgvVZ5n1nkZWDEwKiDaweaM3sOERG9+vKrJAoieXp4XrqOiOiRhx9R291XX35lN8w/Hvyn0leheRjJKNFdd95FHVw7qHXV8tGIWhIFkWDWdZfOXeiF519wXI9loqrKKhoyeKj6DtEIGjVejailc/nnyGQ00X+3/Jc6enYknVbf2L6ZqLwLzP2yKIjk7ORMEeERlHEsw25/zOFwOPZgRFfxyHcOh3NlsFo9qiivQH5+Po4fP460tDScPXMWBqMBsiTDw9MT/fsHIzAgED18e6B79x7o2MnTdvXJ2gWAKXvOT+ScQEpqCvbv34/amlpodVoE9QtCeEQ4evfuDb8+foqLrKC4dNtcUykrniEnT55E7slcgAEhg0LQrXu3FlesTuWeRk6OcrOPv78//AP8W1RB0fki5YYVBnTr2g2DQgfZBpCBD1d9iEcfexQCE/D888/j5ZdfQXVVFXJO5CApKQlHjhyBwWCAi4sLRo+OxuDQUPTr1w8arcaurCSTul3pwvkLOJp2FDExsTh96hQkWYKvry9GjRqFAQMGoG/fvhBEAbIkY/++/ZBkCeHh4ejg3mQVmoDY2FhUVlZCFEWMHj0azi7OLebd+llrOYsuFCEvLw/x8fFITU017+VWDpwNCRmEgIAA9PTt2Xj16yWuQtbV1iEzMwtxcYeRcCQBkizDxcUZYcPDMGz4MAQG9oOrmwtAypkYF85fUGRoWkYAco7n4PSp0wADBg0c1Go9IRnIzs7Gmbw8MIGhf/8B8O3Zw244824jXLhwARkZGYiPi0N2djYIhG5du2HsDTdgwID+6NW7FwAg73QesrKyoNfpET0m+rKuc7Xotq62Drm5uUhJTsGRhARUVlRAJhnu7h4YNXIkQkJD0LdPX7i4udh9HgRIJgk5J04gNTUFBw4cQFVlFZggIDg4CBEREejTp4/SJq2faxoXgDN5Z5CVrZylERQUhN7mfLek77zTecjKzIIgiujTxw8BgQEOw1ZXVSMtLQ0xMbHIyFDO4/Hz88PIiJGYNGmSuh1ElmQcOHAADQ0GiKKAcePGQRBb8RiwylfRhSIcSz+GQ4cP4fhx5XDJHr49ED4iHEFBQegX1A+iqJw/FXMwBnW1dQiPCG927buhwYgTJ04gJ+c4srKycOrUKdTX14MxBh8fH4SGhmJA/wHo07cPPDw9WpXtYtFFJCQkIDY2FmfPngXAEBoagvDwCERGjmo9jw7iPpV7ColJSdi7dw+qqqrg4uKK4cOHYcyYsegXFAjLWSKZGRk4e/YsCIQRI0bAq7PXJaVXVVWF3NxcZGRkIjExARcvXoTABDi7uGDQoEEIDg6Cr68v/Pz8lG1mrfQhZaXlOJWbi/T0dCQkJqC8vByCIMDD3QMDBgxAcHAwevbqiV49e0Gja+IITUBBQQHy8/Nx7NgxnDhxQr2+V2ACgoKDMHToUPTu1Rt9+vZR+u5LhZQtJjk5OYiPj0dsbKx6i1rY8DCMCB+B/sH91bpw6tQp5OScgJubKyJHRdpumyOgrKxMOROHAV26+GDwkNBWRcg/m6+eHdW7d28EBQW1qN/iiyXIyTmO2NhYpKcpW0+8u3RBVGQkgvsHI8A/AKJWxIXzRUhNSYFWp8XYMWOVutjOvt+yLejMmbMACINDB9u9hS4zI1M5wJkxDBw4EN17dFO/k4wSCIQzZ87gTN4ZpKWn4dSpU6qXrIuLK4YMGYyQQSHo7eeH7t0bn7XbrzHlDKi0tDQcPBiDDPOtZX379EXYiDBMmjRJ7ceLLxbjzJkzOHYsA7knT+Js/lmYTCaIoojAwECEDAqBf4A//P39odVolej5wQYcDqcNcAMKh3O9c4mT3isa79WS4UrSxIDywgsv4OWXXm7b2RDXUsd/BN1e7/yVdfhXzvtflSbnglxXtLc+8vp7ZeH6vL7bB4fD+VPAz0DhcK53rtYgoD3x/tkHItcyf3923f4e/JV1+FfOO+f6o731kddfzpWG1ykOh3OV4QYUDofz5+VaD6SudfocDufPB+9XOI7gdYPD4XCuOny3H4fD4XA4HA6Hw+FwOBxOK3ADCofD+VMhMKHx+lW+GsfhcDgcDofD4XCuENyAwuFw/vg0PTiP0PgHfkw2h8PhcDgcDofDuQLwM1A4HM4fH/P1r85OzujaVbkGUa/XX1uZOBwOh8PhcDgczp8Kfo0xh8P50yCbZBhNJjAAokaEqBGvtUgcDofD4XA4HA7nTwI3oHA4HA6Hw+FwOBwOh8PhtAI/A4XD4XA4HA6Hw+FwOBwOpxW4AYXD4XA4HA6Hw+FwOBwOpxW4AYXD4XA4HA6Hw+FwOBwOpxW4AYXD4XA4HA6Hw+FwOBwOpxW4AYXD4XA4HA6Hw+FwOBwOpxW4AYXD4Vw/UJOfnHZBMjXqTsZfT4/U5P+Xm39LHNa6lC8h/qb1+q9WLpwrA683HA6Hw+Fcc/g1xhwO5/qEALBrLcQfEOse/a+mv6YGFAGXXo8scTGAZOUPRqMJsixDEBh0el2rcRsNRiU8E6DRasAYU+PkcNoN7xM5HA6Hw7nmaK61ABwOhwMAJ0/kYtGihSCZ0C+oH1577TVotLyLajMESJKEhx96GCWlJTAajVi/fj08O3pea8l+F4wGExISjmDp0qXQaLQIDQ3FCy88f+kRWiarBKSkpGDVqg8RFxcHg8EIxhj69PFDaOhgPPboo+jRs4fNo6nJqVj10SocPnwYDQ0GAAR/f38MGTwECx5cAL8+fpcuF+cvA8mEvLw8PPXUUxAFEX379sVbS9+61mJxOBwOh/OXhnugcDjXKSaDCSkpKWgwNLT9IQLAGIYPHwYnZ6erJtvVIDkpGRERETCZTAgLC0NMTAy0Ou1VTTM25hDefPNN6PU6PP/88xgyeMgfc2MjAUQEJjAE+AfgZO5JAMC5/AJ079HtGgv3+yCZZGzZshmzZs6CIAq4edLN+O9//2tbngTk5eVh0cJFKC4pxoIFC3DnXXfajY9kQkNDA57/9/N49/13AQAMDIKgRKh4oghISUnBoJBBAAE11TV45dVXsOrDVairrwMACIIAxhhkWYZWq0ViYhIGDhpwVXXB+XNAMiEzMxODBg0CYwzDhg3HkYT4ay0Wh8PhcDh/afjyLodzPUJAWXkZbplyC4qLi9v9eFpaGgYOGngVBPt90Ol0YFfLV93iWSADzzzzNGIPxYKBoaioCHv37oVAwh/PTZ4BjP5oQl8DGPDZZ59j4/cboRE1KCwodGhAkSUZL734Et57/z0wMLi6uGLsDWMRHh6B6uoqxMXFwcnJSTGeQDGofLT6IyxbtgwA4OLigrFjxyIiIgLV1TU4ciQeHT07YsCA/r9bdjl/HgRBUI13HA6Hw+Fwrh3cgMLhXI+QMmCWZVkxJDBApradWsnA/vCHDTLGGs+LuBqYjSguzi4QmAAigk6rgyAK15fuCDAYjPjwgw/g5eWFefPmgYncUHKpkEzQajUgAJIsOd4iRkod/PGnHwEAoihi3bp1mHXHrEbjGgH19fXqI4Io4NNPP4UoipAkGWvWrMHcuXNtzj2pr6tXfudnWXAuieupc2pORXkFPv54Dbp17Yp598671uJw2goBJqMJy1csh16vx8MPP6wY63gfxeFwOHbhBhQO5w+AXq/HO0vfgVfnzq2EJBARunXv/rvI9YeEmW+rAcO7772LJUuWQKfT4cUXXry+JrYEyDLhq6++xDPPPIMhQ4fgb3/729XzzPmLMH/+fJw5cwZFRUW4//4HmgcggAg4mXsS+fn5YGDo3bs3bp92u23dYGjcJmc+J+XkiZNgjGHAgP6YM2cOmMBs4v2jbavjXEdc37YTAMDu3bvx7HOLMGL4CMy7Z97105dyHGM+O2vz5s1YuHAhOnt1xj//8U/u7cThcDgtwA0oHM51DmMMWq0WU6ZORe9evVoPLzA+cG0FJjBABkIHh+K7jd9duStvr4TereIhWcbnn38OAkGrvbrnwbSb68nYpNKyQExg8PX1xaeffqqeGWM3CgLi4+PRYDBAI4gYNSrS8Xk85rpz6NAhEAgMDJGRUcoExOog2hb5PXRpLct1V25XgD9rvv5A7PjfDuWcIPEqTr55OV9ZGCBqRHz73bcAAI1WA5nka6fjpuV7KeVt/cyVri9Wt7NxOJy/LtzEzOH8gbBsbVE/AgMTbT8Aml/nejnGAXvPN/kbycqZETbfWweX6cquoNqRh+RWwjiKx/Jca70h2X5azNPl5JU1ylR4vhBZWdlKlITmE35q/CnJTRVg/qKJ3DafprK2UW7Fg8fBs/bEuBys5WxB30TK9cJtilK2Mp40jZ8AWZbMW28Uj66ePX0dywVlBVcURQCATDK6du3aGEaGUqb2RLOokaz0aa9c2oslOskqkqbp24nfpk7ba/NtlatJ2FbbitzGeJvGb43FONTWOmytmyZ6V+VtQ11uU7/TxrjahUVms+6s26T6//ZE18IzsiQ7zpfVz92/7gaB1LZgI2eLibfw95bSbS2+lsK18I50mN+WkJv8v2l8bZXHulxbwvo91F6a5L2muhZJSUkAGERRhCiItrK08N6wqf/22nIrZWGRX43HKo1LzlvTNC26ki5hHNI0L02NOxwO5y8J90DhcP5sWO8akAlxcXFITk6GwAQwgWHu3Llw6+Dm+HkCYmNjkXY0DQDg2dETd915l028GzZsQFVVNQYPDkXEyAjIsoSkxCTExMYgNiYW1TU1EAQGDw9PjB4dhVGjRmHI0CFXLIuSJCHneA4yszKRnpaOY8eOob6hAYwBTk7OGDZsKEaEjUD0mGiIGtF+JAKQlJCE+CPKrRajRkVi8JBQ20ESAQkJCUhMTEQHtw6Ye/dcAEBZWTliY2Kwb/8+5OTkoK6uDjqdDl27dkVUVBQiR0UisF/gJa9SlZeX4+DBg/h83eeoqCgHAFy8WISPP14Dscnq7l133gWPjh52Xa4ZY5AkCRkZGYiLi8eBA/tRWVEJJjA4Oztj6NChCAsLQ1RUlOJh0QZ5ZZOMjIwMHI47jAP7D6C4pASyLKFDhw4YMSIcI0eOxOjRUfa9Oy4FpuzPj4uLQ0xMDBISElBdVQ3GGDp27IiJN03EyIiRCOzXD3q9vuW4CDh5Mhe7du0ECAgIDMSEieMb8yYTzp49g+zsbGzevBkMDARCUlIyPlnziWLoIMXgET1mDAYOGoD8/HxkZGRi586dsHigJCcnKV4uMkGWZcgkY8L4CegX3M+uWKmpqTh8+DD279+PyspKSJIEN1c3jAgfgdFRozEifESLN1KVlpTi+++/hyCImPe3v0HvpAdJhIyMDGz/33bExMSgoaEBWq0WQ4cOw8svvdTcYEhASUkJYmMP4cCB/Thx4iTq6+uh02rR288PY8eOQWRkJLp1d3CrEyntcuPGjagor0DPXr0wZeotAAHHj+cgPi4Oe/buwYULFyDLMlxcXBDgH4BRkaMQPToaXt5eajyt1cPTp08jPv4IEhKO4MSJE6ivq4coinBxdcGwYcMQMigEQ4YMQXdfx1sZ09PTEX8kHjExMSi6UAQC4Gp+PnJUJCJGRkDvpG9RJtkkIy09HYmJCTh8+DCKiopQX18PrUYLF1cXhISEYNCgQejffwACAvwbJ6aXAFn9x2Aw4MiRIzgUewhJycmoramBIAro0b0HRkWOQuSoSPj19WtX/AkJCYiPP4LY2BiUl5UDjMHT0wMRESMRERGB4cOHNT8ziAHlZeU4fOgw1n+xHqdP50EURFy4cAGffvIpJFmyCT5lyhSUlZUhNjYWANCnTx9MmjSpRbl++OEH9SB1X9+emDp1ikNjpCTJ+Prrr1BbWwdBYJgxYyY6e3nZNWAmJycjNjYWhw8dRmlZGWRZgnsHd0SMjMCoUaMQNjyssU9sQ508HBeHuMOHERcfj/LyMoiiCHd3D0RFRmJEeDiGDRvq8F1EMiEtLQ2xsbFwcnLCXXfdBWdnZ1RVViMm5iAOHDiAzIxM1NbVQqfTw6tTJ0SNHo2IiHAMGjSoZcHsYc5LeVkF4uPi8MV//oMzeWdAkFFbU4tP164FzH2ZJfztt09D124+qjHi558348L58+jVqxcmT5kMAKisrMTuXbuxbds2FJ4vBAODu4cH3nhjid2r240GIxITExEXF4fDhw+joqICjDF4dfJCVFQUIiIiMHjIELT1OLSGugbEx8cjJjYWKcnJqKquAgB07twZY8aMQURERJv0VV9bj8OHD+NIwhGkHU1DWXkZTCYTdDodvLw6Y/DgUAwaOAgDBg6Aj4/P1fW44nA41yfE4XCuPySi4ovF5NXJi0QmkrubO+WdziOSyPYjtxKPTGQ0mKivX1/SiBpiYLTk9SUOnzMZTVR4rpA6uHUgAMTAaM3HnzQLF9QviAQm0IxpM0gySTR3zlxzeIEEJhADUz+iIBIAmn/vfGqob3CYdlJiEmk1WmJgNDpqNJkMJrvhEo4kUNjwMCVuJqpywjy0Y2CkETWkETQU4B9I+WfyHer4naXvkMAUmd96863m6jPJ9PJLLxPAqKNnRzI2GGn3rt3U0bMTCRDU/FnkEJlIDIx0Wh29/dbbJEutFVCT9CSZCgsKydPDkwCoslk+1nq1fE4cP6Ho1JyUf19/AhgJTKD8s/k072/z1DKw1lHjR6CBAwZS/lkHerJWmUmifz32L9IIGiW/gqjWK0sZMAg0MmIkFV8sbr1+tqgMIskoUfHFYoocFUXMnCclD0zVDwBy0jvRKy+9Qkfij5AoiCQwgaZOmdosfVmS6ccfflTlnTt7rvqd0WCkG8bcoJarJe7GNG319/Hqj+mWm29R6pugUXVirV/rcvts7WfNslhXW0dzZs9Rw1inIaAx3ajIKCovLXeoz6yMLDW941nHSZZkWvr2UrXcLXGJTKR7593bPB6JKOFIInl39rZpU03blwCBdmzf4VCO+tp6Cu4XTAyM+vr1JaPBSK+9+ppNHAzMJm8MjHy6dKWTJ3IdxiuZZHP5Eb31xls2+rLEZx0nALpt6m124zIZTfSvxx5X66/yU2OTXwAUOSpK6a8cYDKaaN7/zSONqGmUgwnEINi0BYve7vv7/Q7jcoQsyXQs/Zga98TxE6m6qppGRoxU82vb9wlq/f9g5QcO45VMkjkBpQ5OnjS5WT237m8EJtDsu2aTyWiyLSOZaOCAgeqztm3U9iNAoG1bt9O2rdtUmYcPHU6GeoODzBPlnT5jk0efLj5UXlbusDwK8gtIr+DS5lQAACAASURBVHNS++uC/ILG96RZ7pqqGrr9ttub9aMCU3RnSevWKbeSZJKUPrzJu1Y2Nf5SWV5JN4y9wa7+rPuC+ffMt9F7U9k/WPkBMTByc3Wj06dO06HYw9TZq3MzPVq3aQZGixY+S3JbxgJWSCaJqquqKcA/wKbMGutS47vb8omNOaTqUZZkGnfDOAJAY6LHEBHRxaJi6t6tu027BkB6nZ5O555uIgCRod5AN02cZDNGaPqeE5hA9//9fpKMkuPMmGWqramlEWHhzd511uUhMJGeeuIpMhqMdsdPskmm3JOnKDgoWO0vm/ZdNv0OE+iHjT+0XfEcDudPA/dA4XD+zDBAEBi+/PJLTJg4AbIk44033sSgQYNw2+23NQtuMBhw6223oqq6CgITsHjxYix40M5Bm2ZSj6Zi6tSp2LFjBwQmICoqCmPGjIFer0dhYSF27tyJ06dPg4Fh3fp1OF94Hhu/39iyB0wrNDQ0IC1N8Y7R6XUYPHgwIiJGwtu7M4xGI2JjYxETE4O6ujqcOpWL2bNn48DBA6o+LLTH+5aBoaamBsuXL8eSN95AVVUlunXvhjFjxiCoXxCYwHD8+HHs3bsX5wrOwWQy4cUXX4R3Z2/Mv29+m1YwLWg0Wtw9924YTUYUFRVhy5YtkEmGTxcfTJ06tdkqtpeXV7O8MQDu7u74+/y/Y9fuXSAA4WHhiBodBXd3d9TXNyA2JgaHDh+GLEs4lpGB0aOjceRIPDp7d27mhSNLMgRRwMSJE7Fnzx4QCK7Orrhx/I0YPnw4BEFEdnYWtmzZgqrqasTHxSMsLAy//PLLZV2nXVxcjIk33YT09DQQCHqdHiMjRuKGcTdAYALKysqwc9dOZGVm4bXXX8OxjGPQaXUwmoyXlF5wcDACAgIgiAKys7Oxf/9+AMCA/gMwenS0qhBZlhESEoLc3Fx079EdoiAiIzMDBw4eAAPDoEGDMGrkKACASTJBI2oQEBCgpkMy4cL5C5h1xyzExMYAYHB2csJNN92EIUOGQqMRkZ6ejh07dqCqqgqxsbGIHhONXbt2waerT4t5KDxfiM8+/wxvL30bAhPg3dkbISEh8OrkhdN5pxExMsK2HUiEFStXYNHCRTBJJsgkI2RQCCZMmIBOnTqhtrYWmzdvRkZmBmTImDZ9Gl584UU8u/hZh/WaMYaiixcxd+7d+OmnH6ERNejfvz+io6Ph08UHJpMJcfFx2LlrJwDgQtF5hIaGIDb2EEIHh1jUrPwgJYmaqhrc/X93Y+svWyGTcjtZV5+uGDZsGPr27Yvy8nKkp6fj+PHjICIsX7G8mVxlpeWYPn069u/fBwYGnU6HcePGISxsBDQaEbm5udiyeQvKystw6NAhBPULwrZt29B/oNXV02ZPhzvuuAObft4EBgYPdw+Mu2Echg0fBlEUUVFegezj2UhNTUVeXh7AgDlzZrdYbq1BRDiddxphYSOQnZ2lenxFhIfDyckJhYWF2LFzB06fOg0ZhKeefArZ2dl49933oNPbei8JogCSCVmZWZgxcyaOH8+GTDI6uLlj8uSbERISAlmSkZySjF27dqGmtgbff/89zpw5g127dsHF1UWNa+rUqRgZMRKVlZX44ccfAABenbwwc+ZMyFbbCmVZRs+evujQwR1arRYmkwl5Z/JQW1cLD71H8wwzYNfOnWaVK5WhtLQUubm5GDpsaLPgokbEsYxjMBgMEMDg7++PTl6dGusnA3JP5GLGzBmqd6VWq8Wtt96KIUOGQJZlHD16FLt37UZlVSV+2foLRo2KxJ49e+Di4mzbv4oMJBFSjx7F7Nmzcfx4NggETw9P3DL5FvQf0B+SSUJCYiL27NmDmtpqfPHFFzh1+jT27PnN4buAMYba2lqsWbMGa9euRUlJKXy6+GD06NEYOGAgmCDg7Jkz+PW3X5F3Jg8A8M4778DLqxOeeeYZx5XHTjqMMdx2222oqqpGbW0NNm7cCJPJBFcXV+UAbKub8Bhj6NHj/9k77/ioirWP/+acsz2FtE0nhUDovUgLvYggShEUUa9yvdeuV30t1y7qtaJXUa+KXRCkKyhYkCq9iFRpSYBACoG0zZZznvePc/ZkN9lNNhRFna+fNSQ7Z+aZZ8qZeeaZGX9vLlIIAhNw7NgxbNm8BZeNuAxFxUUwGkxo26YNmmU1Q+mpUpScKlHLwYf9v+7HZZddhgMHD0BgAsLDwjFixAi0adsGHo8H69evxw/f/wCX24UZ78/A3r17sWjxYkTHRPlnROsjduzYgVGjRqmHfjOGuJg4XDbyMmS3yIbb7cbKlSvx/YofACiY9uo07Nu3D7NmzUJYhM84RAHKK8oxYEB/5OXlwSAaYLfbMWLECKSlp4GIUFJSgs2bN2PPnj0oOXUKiQkJGDhoYMh653A4fyJ+ZwMOh/PHRFv1cFQ5qKqiqmYl41xW3H3x8UARmEgR4ZGUeySvZiXN91NbrkDReWT66IOPyGgwEoNACfYEyjuS5xfG7XLTrbfcqq2siNS7Vx8qO10WMG6vB4p3RaZr5660bes2f5kUIme1k56Z+gxZLVZ9Vev+++4P6JkRqgcKKUQ3//1menXaq3Si4ETAfH+95GtqEtFEX5me9dmsutHISqM8ULwr3WHWMHri8SfUVSxtNc6bftnpMho5YqS+EhwXG0dlZ8oaVy98ynb7tu0kiRIJEKh3r941q6E+q6re1UevTlUPlJqVt44dOtLaNev8wnrDL/lqCSXYE/QVuqlPTa2rT62ee70tBAjUsUNH2rF9Bymy/2ps7pE8GjhgoL5COmTw0IDlE4oOHFUO6t9vgOrVBIFSU1JV7wfS8u8T76effEqREZH6ir8oiDRyROM8UPz0T0RzZn+hrY5K9Mi/H6nb3nx0TkT03rvv6fE+9cRTDXqJjblyjL76mtMnh37e/rNf+qQQ7d+3n/r07qt7R/Tq2YucjrpeEboHCgQaP2482aw2Cg+LoKeffJpKiktq9FU7nzLR8m+Wk9FgJFGQKDwsnKa9Mq1GBu+CuUeh5555Tl/1jgiPoL2799aJ0uuB4us1ldUsi75c9KXaXnyRibZt3UYts1vqq7m33XqbX33yyuF2eei+e+/T66nNaqPnn3ueysvK68hwouAEzf58tv9qv0LkdrrpusnX6Xpq3ao1bd60pU5fdKLgBA3or9Zhg2SgIYOHqO3Ghy2bt6ieHpr31t49+/x06tWby+miDes30EsvvhSgABrG1wPFW69FJtKokaPowK8H/fJHRFTtqKb/PPsfMkgGEiCQ0WCkJV8tCRCxt3311/vIoUOGUX5evl8YIrWMWmS10Mvo+uuur9GHT13du2efHqZv7771vou6dumqpssEmvP5nCCZr2kjMVExZDFbCAA99OBDQcM/9OBDuifJfffeV0c/Q4cM1dMd2H8g/br/gN/ziqzQ3t17qVXL1nqbG3nZyIB1t9pRTZf06Kl7+10+6nIqOFZQR3/r162njPQMzTNJ86jw+FcorweKrxdLmC2M/nXPv6iyvLJOVt0uD91w/Q1qG4NA0VHRVHiyqFH9rG8ZFhcVk8VkIQZGyUkpNe1e1sL5evFoesrp248AUEx0DHVo34FEJtKwIcPop3U/1StHeVk5dezQ0c9TrKiw2E9nRESbNm72e5c9cP8DdfPgUai4qITS0zJIYAJJgkQTJ0ykivKKOmF/+P4HSklOUdu1aKDXXn2tJk2t3d56y616HzPlpr/TmdIzPonV/Cw7U0ZfzP6Cln61tCE1czicPyncgMLhNBaZaN2addSndx+yWmxkMVloxKUjaPu27RfEgMIgkNlkpscefYz++9p/G/wsX7a8bnzadoirJ16jDxDatm7rF+TDDz4iACQJEmVmZNZMBgLgNaCITKTU5NQ6A0LfdEkmeved97R0RUpOSg4YNGQDijfeBnh26rO62+4N199QN4pGGFB8jUXvvTuDFFlRJ3qBJsgyUWZGpj4YXjB/YWjbrQKwccNGbYuMui3G4/YEj0srgmaZzfSJeWJCYo27cpDn/vf2//SJT7+c/lrG/cOsWrmKREEigQmUnpZOlRXqoD6QIayosEgfjAtMpPXr1p9V3n/Z+QsZJdXgZzFbaN/efcEDa8YG73aKczKgaOE+/uhjXY8PPvBgwDS9epU9Mk1/Y7oe78MPPRxY53KNrN4tGEaDkYpOFgXOl0x0suCkbuQySEbauH5jnWC+BhQAJIkGWvnjyuD60qiuqqa2bdrqRro5s+cErM9Eah6n3DhFM6IINHDAwDphaxtQDJKBdu3cFbT8FY9CC+Yv0NtKZnpmnTAet4fWrV2nb68wGU20ZvWaBvNWm2XfLCeBqUaFtNQ0kt1y0C12iqxQclKy3u7nzZ3n8yXRyy+9ok/sVq1cHbz/O0d8DSjeT0Zaht7+6j6gbnd65eVX9K08iQlJJLtlf4OSTPTuO++SJBpIFERq36593e05PrhdboqOitb1sXGDTx3UJqBbt2zT+5FLelzi/30tZn42UzUyM5GGDxseME1ntZMiwyPJaDDSA//3AA3oP4AMkoESE5LIE2BLhyITtcxuqed7x/YdfjIsmLdAN56kJqfW9KUB2qnb6SZ7XDyJ2ra81avW+MWleBR6/b+v6+/Ldm3b11sHKisqKSI8QjeE7fAaSzV8DSjedvzUk0/VBKgdtabz1q1a64aD9955L2j6DXE0/yiZTWbNgJKsbqsKVBdqGVAECPrWxWFDhqnvRVkJ+u6W3bJqiGUCSaJEA/oPqPfdkHs4lwyiOiYwSAbat3e/T2RqOdx37316Pz1xwsTgchPR5o2b9b7GYrJQsddwI6t56typMwGM4mLiLlib5nA4fw74yUccTihorqKOKgeunTwZfXNytG0iVXC5XFj69VL06tkLd9x+B1xO13lNmgGodlbj6aefxt133Y277/b/3HP3Pbj77rtx11134Z577sEnn3wCxaPUiUQQBXz00YcYPHAwiAi79+zGPXfdAxCwY/sO3H//fRCYCIPRiA8//EhNOEgP4b00RCYZt912W72HqBERJky4CkmJSSBScOLECXz0wUfnrhTvaf8E9QT/Wrue+/Tto10lSygqKjq7E/198sAYg81qw8iRl2lXRQfwwyYAAjBw4ED9ZpWTJ0+oevwdrj2899571YMfg9wCQwrpW1O8hz8CtcIS8P6M9yErHhAR7rjjDlitqgt/oINiY2Nj8X//939gjIFIwbPPPntWsk+fPh1ujxuMAQMHDERWVvN6wzdv3hxdu3Q9q7TOJ6y+ghYAj8eDSZMmgTEGSTTgs88+U7dNBQkfFxenHbTJIHs8+PiTj4NGTyBIooT/PPcccnJy1H5AQdBbbvbu24tf9/8Kj+xBs2bNcOnwSwPKAKj9x8uvvIyIyAgIAsPq1atx8ODBoFoAgBtvvBGt27YOKi8ADB06FDExsRAFEcXFxSg/U+73vSiJWLBgARRFAWMMV1xxJXr37t24PXgEzJo1E0QEUgh33nUnBFFQtygEiee2226DQgTGBHz66ac1t6IwwOw9XBYM06e/oafhp+uz726CoOr06alPw2KxBg0lCAx33nkXMjMyQUQoOHEcP6z4oaaPZoDD4cBbb70FRVFvj3rllWnqzTlBqq4kSRg4cKB6vS2AFStWnFMeR4++AlFRUZBJxqpVq1B4orDmSy3OadOmoay8DABw+eWXo1evXpBlGSdPnMCXXy6uE377tm04cOAAAKB169Zo36G9HqTaUY0nn3xSz8t7M97zvynIG4/2kYwSBg8apG9B+v777/yCVlRW4JVXpkFgAowmI2bMeC/gId5ezGYzevbsqW6LAcNPP60LGM77XjWbzbjuuutq9Fu7XLTfx48bD4UUyIqCo8eOBU2/0QS7Ncw3iM/3rVu1wbz589S/CyzwYbkECJKAufPmgkjd2vjIvx8Jfs07AU3TmuLSEWqfpMgKFi9erH8HpvZ3Xy7+Um/H9917n37Qd6D4Onfpgt69egMAnC4nFn/5pV8Qo9EIgQkoKy/Dl97vgsTF4XD+2nADCofTCB5++GF8/vksKIoM0v7z7sd3VDsw/c3peOutt85rmgoUCExEWtM0pGekIz3d/9M0rSnS0tKQmZGJpqlNERmh7ScP8JI3GA14+39v69esvjH9DcyZMwcTJ05EcXExDAYJb7zxOvrm9GlAKvWEfgECunXvFtw4wdQBVVhYGG666Sb1SSLM+WLO2SnD10jiNUp4bRk+IhABVqsVAhNAIFRUVPjtxz9bcnJyEBcXByhBxpeabE2a1OzVPnP6zDmnezbIiowePXrUnFMRaFBMQJNIrb5oEytdj9pPt9uNb5Yt086MMGHytZPrHtGnwG/yOHLkSIiiBAJh2/ZtqKqsapTspADfffedLvCtt90KQaxnRK991a9/v0alc/5h9U48SAEKCgqwZcsWEFTjyMiRI+uPUWQYNnyYNs8g/PTTT8Hjh2rou+qqq1SjqSSo7SSIAW/u3Llwup0QmYgxY8fCFmYDkWpY8/1AARSZEBYWhvT0dJBC+k1YgQVRDTnjx19V72SDCQxWmxUxMTFQFAVOlwulp0/7XeFKCrBy5SrvExg9+vKQJnj+4hDWrV2n/3v4sOHB24QmV9eu3aD2c8Chg4fg9nj078eNG4cmkVEACLPnzMYNN9yAHTt2wOPxXLBrThkDoqOjMemaScGzruVHFNV+2fsH75lRXkpPl+Lw4cMAAeHh4Wjfvl39+mRA165dITARDAybN2+uSa+xEGC1WdCmdWtIogSHw4HtO7b7BXFUOvDpp59CEESEh4UjNSUVvXv11o3SS5d+7W8UVIBly5ZBlmUoioJRI0fVRKYAhUWFOHzkMBhjaBLZBO3bt6+RX4B/G9Hy1L1Hd3jfcxs3bPQzZhQUFKCw8CQUUmC325Gdne13ZlTtjyAK6NK5i24g2bBhQ1DlMMbQvUd3pKWl+Z3fUgem9h/er4uLioLEeY745iWADABw3XWTYbPZ9DNTAsIAZ7VTM3KRfstY0DSZ+h7v2bOX+icibNniX++OHz+O3NxcEBFSUlPQrn071YAd4J2kLoIAXbp2UccFRPj55x1qRIIaZsqUKRAEBpfLhSuvvBKvTnsVuUdy6+b9d1gM4XA4Fxf8EFkOJwQUhSCIDHNmz9EHcXWXThhEQcDbb7+Nu+6+67ylzSAgMjIC3373LVKSU/y+I9QMDAAGgTEIoqiuNgZZtWrWrBm++WYZevXqicqqSkyYOEFfNb964tW44YYbaibdDaBAQWJiYv1X1jL1ELoRIy7D1KlTQUTYtWsXXE4XjCZjaEqolQcvpBB+3vEzdvy8AwUFBTh54iROnTqFklMlqKiogEf21O8RECIEgiRI6NatGwTWOLsznc9ZVCPSlEQJCfEJ9ZZlQNlqhT144CAKT55UD3E1GfGvf/0L1dXV9abvdDpB2mp1VWUVnC4nrAi+al6bEycKcPDgITAAVosVffo0ZNBT60J2dnbIafweMADHfFaKq6oqcdNNU1BdXQ2hnsnH6dPqVdYEwqlTpfWm0bx5c6SmpYYkz9q1awEAMin46ad1uGr8VVAoeH21Wiyq/JqoVY7AhjFRkiBKkm6obbgJqml664zfN6QgPz8PoigBROjWLcikqx7OnDmDo8eOgjEBYAyPPPpIUKEEphrBdMMnAxzVDj/Z4uLi8Nxzz+LWW28FgTDzs5mYOXMWWrVsiUcfexRXTbhKnbgJAMkEVp/xL0QEQUS8PV5rsw33au3atcPMWTMhMAGHDh3y6wcKCwtVYynUSe2tt9xa7+RXURTkH80HkQJBEFBScursM6Ilk9OvH9auWwfGGDas34ChQ4dqk2ZCwYkCHDp0CIoiIy09HcnJyQgLC1NzzaAfZK1rQQBWrV4FgnqwaU5Ojl9+y8vL4XQ6IZOMqqoq3H777aqHXD2G/2PHjusHqVZUVPhVl4LjBXC71YOqz5w5gylTptSrP7fLjcNHDoOgQGACCgsLA4bz5qldu3a612MoXNB3TACje206duwY3JPE57lt27ahrKwMBPUA35tuuglut2qY9O3/CJoXCWM4duyorhdvnSVF/X3FihVwupwQmABZlnHd5Ovgcrs1T58avH2aJInYvWu3/ndvvwqoRtMbb7wRixYtxpIlSwCoBzE/9thj6N27N6ZOnYouXbs0qC4Oh/PXgBtQOJwQEASG06WnUVxcrA8SmM//VQiyIuPo0WPwuD3q1okQDRH1wRjgcXtgNpthtpobfiCEsVSbNm3wwvMv4I4774RCqhv3gP4D8M4779S4IgdzH0bN3wUIaBLZJCR5UlJSYDQa4Xa7ceb0GbjdnsYbUACcKj6FN998E18t+QoHDx7C6dOnIcsefZDlnWAImrs0MVUA1kjDR208sqfBG1AAXBTuvQwMHtkDW5jtnP0MS0pK9AF6RUUFPp35aQjTNwbGAIEJ8Mhyo9Osrq7WJ2th4WGICI+o/wHNJTw6Orr+cL8zCin6xAsglJWVY/bsz8HAICvB9eTVPwODIstB+xWBCUhJSan7RRCKCovgnYyvXr06xIkY071hlCATUFn2QJKkereFaFE1SFVVFSorK0GKAqPJiMiG+psAlJeXw+VyQSEFiixj0cJF9ebV9ztFUSDXrsME/POf/0R2i2z85/n/YNWqVXC5XNi1excmTpyIO++4E3379sWEiRMwbvy4hvvSUCCC1Wat31jthQFRUVEQmQiZZJSUlPilXXqqFC6XC2AM1c5qzJ0/N4QoVfcMVtvd7yxQZAWXDh+OZ56dCkmUsGz5Mjz62KMAqRPZL774QjMqCrj7rrsgiAKiYqIw+brr8PHHHyE39wjWrFmDvjl9VSMIAb/s/AUAYDKa1O07Pvl1OByQZRkCE1DlqMLCBQvVhZBgqiRo/qWAyNS+1JdTpafgdrshQEBZWRm+mPtFAzlWdcY0/VE9RkoAsNvtoZUzQjGlXXjq3AQXRKTDhw9r/yKUni7F3Llztd983901+P6NQJA9ajv06jA3N0/9O8k4fvx4UM/WBpuf1p8yYpg1ayZmzZyFV6a9gv37f0V5RTmWLVuGH1f8iPSMdAwZPATXTLoGl/S8pD6VcDicPzncgMLhhAIBVqsNBqN6/WLwYOoqvfeZ34UQx1MFJwqgkDogkWVZnWS43TAYDSHHI4pincFlMHlEUVAHRKQOTT1ncdXstq3bccUVo5GXnweBCbBYLMjOzkZGRgZSU1ORnJQEs8UMq9WKw4cPY9or0yCfh607Xs7lHJU/Kt7VO1XfVgwY0F9fGVW/quvfrC8mEmCz2WA0NN5Q5kVgQsNGIIYa1+0/DAwREWEYMGAAPB6PvrreEHFxcRfEhbxnz16Ijo4KrY4ztYxTUpLPvyB1ktLOKmHqOT1iPectBUNR1G2WDIDRaMLgwYNDmsgKTPXkS0hI9DvjQj0DCRgwcAD69++Pbdu34bXX/ov163/C4UOHUVRcjHnz52H+ggVo/UQrvPPOO+jZu2ej5fZFn1yGaJT3Tj4ZWNB3FpECiyUc/frlhGBgrjHitWvfvoGw9SMIAnr26olmmc1w+NBhbN26DSdOnEBCYgLcLjfefPNNEBGSkpMw6dpJ+nP/+tc9mDnzM8iyjMcffxzffvsdREnAti3bUFBQAIEJGDR4EJISfa7cZfAzgFmtVvTv31+vEw3KKgrIzm6pexT5okBBTGQMevXqhYBnYvlRU9e6da3fi6qhevlHxpuzmOgY/SwjUi+0aNCA271H94B9PANDYkIiOndRPURU/TWsw44dO3oj0H/awmyYcvMUTPn7FMyfPx/vvTcD27ZtRVFRMfbt24e9+/bi9emvY9LVk/Diiy8iMSmRb+nhcP6CcAMKhxMCBILRZECLFi2wY8cOv3ezdzKpkAJJlNCrV6/z5n1yQWDA9999h+effx6iIGqHMwrYuGkTLr98FL5e+jWMRmONS249efB4PKisrAwp2aLCIrg9bghMgNlk1g8iDZX8vKPo1y8H5RXqIZPt27fH3LnzkJKSohqtap09sGrVKkyb9upFWQR/JIxGg+YaLyIlJRmLFy3Wda27mNfSfR3383MoBLfbDdkjN+jNIDTk7XAR4dVPWloaZs2cVeNZFpoDyHnvW0RBxJNPPoHBgwc3KANBnewosqL2c78hjmoHqqud5xSHzRaGefPmhWzU0z0BfPXtM+FiIkPnLp3x0UcfoqysHIcPHcJDDz+E5cuWQyEFu/fsxuAhg/Hpp5/iyjFXnrXcRGhw65wv5eXlej2LiooKWGcIhJSUZMyfPx+SFGJZ+p6p5HNeUoi7TVS0bZ1jxozBSy+9BJfLidmzZ+Ouu+/CqlWrkZ+fDwJh4MCB6nZULZ2sZllIS0vHwYMHsGH9BuTn5yE9PR2vvvYqFEWBIAq455576jW4piSnYO7cuTCZTVDk0AwVXmNbIINLdnY25i9YEJJhz2sI/Evi9zpgaNumLRYsWKD/HqrHjR5PrTFYv/798Nlnn6lfhWiAqrNFqtavY64cgyuuuAKnS09j+bfL8eijj+HgQfWg4pmzZmLVqlXYtHlTaJ6pHA7nTwU/RJbDCQHvy/25Z5+D1WqF71qJ78s6PDwCjz32uPbQbyxkKBCwZfMWTJo0CR6PBxaLFUuXLkX3buqBiatXrca0V1+tGZs0kAfGWM3NLQ2k+/0P30NWZAiCgBbZLWCQDI0Sfd68uSivKIfABHTt0hVr165Fs8xMmIzGunIywOVyg0gJaVtCo9ygBdQ9eNAnXTB1P7e6D1uoqR/nYVGRMXZeb/Txrqp7J8UIMPBsltkMVrMViiIjPz8fxwuOgwlMX4UPpHu/785C1oT4BMTGxEJRFJSWltZz24tPXkSGY0dr3URxIRdyGWrqQECBELCsYmO9N+4QCk8W1jU0NfQBzkv5kwJ07NRJP3vgq6++qkmjdh33+TCBQRAFSEapjuFMzwbTN4HofgAAIABJREFUzmNq1Kw6MFarBUlJSZAVGUSEPXt2N/xQLZKSkmC32wEAp0+XYu/evWAiC+kTch1mQERkODp06oAlS5Zg3bp1qkEKQHW1Ey+88EKj5a5NY84e2b1nj/7v5CR/T6G09DT9TJGTJ9Vzo7xtusGPWGuy693S2sgtkkxguHT4pRBFEYpCWLp0KaAAX3+9VL+t5oorrvB7xmKxoL92ULTL5cL27dtRUVGBhQsXAkzd+nLJJXW3VsTGxsJsMoOIcKbsDE6XntYOd2UhfZgAv3NsMjIyYTKZIDABx44fR1VlZUi6C7Xdhnr2yYXiQqXfq1cvGDRD3dZt21BeXq7ehuXbzkLp/zQZ+/scGr5m9Rp1e6T2/jnn8vC+y0UB0bHRmHj1RPzyy07MnTsXaWnpYIwh/1g+Xnvtv38wz0cOh3M+4AYUDqcRDLt0GL766itkNcuCzWrV3aQtZgs6d+yM9et/QteL8KAx7/mHZWVlmDJlCkpOlQBgeOyxRzF8+HAsWLgACfEJcMtuPPzwQ5g/f776QAO7X4gIv/zyS4Ppe92yGRgUUjBs2PBG9z57du/R0xw+fDisNmvdlVAf1q//qd5zJTihERMbg06dOoGgXgf64YcfXvABo8VqQdeuXbVtLQwfvP9B8MGuJovH7cGGjcFut7g4EEQBaWnpsNlsAAFFxUX6KuxvDWPAmDFXqt4kpGDe3HmoKPfxJrtIJgVMYGjbtq2+RWv58uX1PxBAboPBgBbZLQCoRsNl3ywL/mzt589CD0xg6H5Jd3zwwYeQJAMAUg9yPQeIFJw8cQKrV69Wf29gq5X3xhLGBLTv0N7P0B8VFYXIyEj9gNSgfXhtfQRJUt0q1HhatmoJm80GURSwd+9elJWX4fvvvwcR0CSyCQYPGuz/AANuuOEGdeuoImPO7DnYt28fystVr8TWrVvDZKp7TlhMdAxiYtVzOoqLS/Dzzz+fkxHSbrfDYrFAEAScPHkC+/bvC+3BEOsSETX47r3oaChvpBrukpKSQADKK8qwYX2Q/tpb7xrQQffuPWCPswNgOHrsKLZt3dZoseulVh0xmU0YM3YMXn75JQCAyERs2LC+RmYOh/OXgRtQOJxG0q9/P2zbtg0/rfsJs+fMxry587Bl6xasXr1aHaSf58UbBgZRUlfp6lwvGmTAr8hKrRVh9baFsWPHYvuO7drq3mjccccdUBRCfHw83pj+BgTNY+L2227DmdNnNK+EAGno8TLMmDHDL+1ALP92OY4cPgJAvTbzX/+6p9F6UHxuwdBXOzUDiu/kQJEVFBUW49VprzY6jYsNm9UGSZLAmHqYpvfGgt9ysMYEhltuuUVVtcDw9ttvo9pRrcugT+SCTT7PRlYG/POWWwDGoCgyPv/8c5wKsPruO4mUDBK+/+57vzguKrQJgdVmwfPPP695/QA333wz8vPyayYLVOsDQPYodfV9Hujbty8SExKhkIKCEwWYNWsmALUNeduUb3qKrPjL+BugeBSMHj1a9/r77LOZ8Lg9IFmdZAbVh8+fXS4Xxo4dC0EQQArh9ddfr6nDPttQ6tSZULdKBdFHUmIi0po2PX9nWjDgwQcehCJTjRdILQMHKYRFCxbpRhGDQVJvsfIJZ7PZMGjQIIDUbZi33347XNUu/flGla+2HSc6JhqCIAKAelMU1XwfjMTERHTq1AmAatw/fPgw9u3bB1EQcMPfboAtLMz/PSYwdO/eHa1bt4YkilizZg22b9+hexkOGTIEolR3WBvZJBKXX345BEGALHvwz1v+iVKvjAS1Lnl16ZP3YLpITEhA//4D1Ku3nS7ceOONcDqc/nGg7nMXJQRYLFYYjUYwMP3GIr9ron3CnguKrKB/v/4A1G2Dzzz7jF/c5E3T953uWya1DCqiKKJHjx5gWh189rln/eOTqY7MpNQdH/n+mxSqWx/gH7Zt23YANE8X322sWnjZo8DldMHtcoe8TYzD4fyx4AYUDucsCAsPQ7sO7TBu/DiMGTMG2S2zYQ1r3JkeIcPUQxABCuyCGmALRaBrjF95+RWs/HElGBiys7PxwQcfwGwxqy7KjOHKMVfi8Sceh0EyoLCoED179kRxSXFQF3Z15ZqwffsOXH/d9XBUOQK69K9bsw6333a7un2HCRg1ahTM5hBuE6pFixbqFbWMMSxcuACnS8/UuI8LTB+8HDp0COPHj0NJaQkEJkAI1M39QcY0VpsVRqMJgJqvX37ZWTOIrL06dyEMBtqAdvillyKrWRYURcHx48fRrVs3rFmzRk1Wm8iRz2RTkQnFRSVYvGhxo85t0CGgT5/eSE1NAWMMefl5uP3223HyhP/1n942cOzocQwbOkzdXgQW9HaY3xUfb6lbbrkFHTt0BECorKrEuHHjsHHTJtX4qSh1vKpESb36dMH8BSgrKwsSfSMrAFNvz7j77ruh3gKk4J577sFzzz5Xc94D1ZQvoPYr1Q4nNm3chDVr1v4m7UiQBIwcOQqtslsBIBw7fhRdunTFrt279C1FtSd7pSWlOFFwQv/daDJi8rWT0b59e8gk49jxY+jcuTPWrF6DOudN+pyxUFpaioULFqqTbR/WrV2H7779Dk6Hs14DzpdffokDBw9CYALs9nM/J4GIsGHjBjz15JNw+p4Fo0DvD9asWYMpU6ZAURR1kvrMM4iNi/XbgmI0GfH88y8gIzMDIGD//v0YNWqUurXJ25fWrk4KcPToUcz8dCaqKrXrq33eDXZ7PGKio6EQ4eDBA1i0aFFAndTmn//8JzyyB1VVVXj4oYfhdDphNBoxZcoUCN6tHT4YDAaMGzcOsiyjqKgI7777DgQmwGQyYcKECQH1xhjD1KlT0aJFCxARDh8+jHFjx2Hbtu2qAcj3mmmfdnryZCFmzfocZ86c8etvmcDw5vTpSE1NBUHBrl27MP6q8di3d39dg5yPMSY3NxeffPyJarxriN/QAGwyGREWFgYCweFwYNWqVYG3ip6LTJqR45FHHoE9Lg6yImPt2rW4dPilOPDrgTppMEHtk4gI+Xn5mDVrFty1DkMWBQGPPvoYwsLCoSgKFi9ejIkTrsbRvKNqHL71x8cAk5ubW+Nlq6VJCmHGezOwa9cu9bnaBkDv8wx46y31kGOP7FEPGPYp5+pqJ3r37oW4uDjExcXhuusmn4PSOBzOxQo/RJbDOUcUhSAEOmjwPMAYg6IoqKqswlXjrwp4aGPt1U1BEPDpJ58iLSNNCwAsWLAA/37k3xBFEVarFXPnzkVkk8iaQZ4m90MPPYTvv/seq9aswt69e/HQQw/h7bffDpguYwxNIiIBInz8ycdYsWIF7rrrLgwfPhzh4eEoKirCBx98gBkz3ke10wGRiUhKTsLTT09VV22CrO7W3NTjz2WXjcBjjz0Kp9OJnb/sRJs2rfHCCy+gb9++IAKOHs3H/PnzMW3aNBAI3bv1wObNm6Cf7+GTYO0DAUOdBzZ4nkqdReFzmGGSehZIamoK9uzZA4fDgYEDB2L69Ono27cvAGDfvv3o2LED7PH2WmLUvRKynmTUn76LdbUGjzEx0di0eTPat2uHY8eOYdfu3ejXrx/69++Pa6+djJYtsyGKEnJzj+DQocP46qsvsXnzFrhcLpSWlqoGs8a0DQY0adIEb735FsaOGwtHtQOff/451qxZgwceeADDhg2D0WBEYVEhFi9ajLf/9zZKikuQ3SIbubm5qHZWq5F4B7a+g+Ba6QRM3u8MgFAF90ksmOoZ9Mn+jBkzMGToEJSWlmLzps3ol5ODQYMGYfz48chumQ1RFJGXm4cDBw5g2fJl2LhhI5ggYOvWrWrbDRB3Y40oTGC4/4H7sWfPHnz40YeorKrEo489ijfeeAM3/+Mf6NnzEsTGxqKkpAQHDxzE2nVrsXLlShw/fhx///vf0adPb7/4/GwRjRHF5yEG+C/tEBDZJALLv12O7t17oODEcfy8cwe6de2G8VeNx7hx45CcnIzi4mIcPnQYS5YuwYoVP+KJJx7Hffffp0cT0SQCXy7+Er1790b+0Xz8uv9X9Ouv1uEbbvgbMjMzYDQacTT/KA4eOoilS5di5cqVABi2bt2CqOgoXZ6NGzfivvvuR0JCPMaNHYehQ4eieYvm6uHbAPbt3YePPv4IX3zxBQgEUZJw3eRzn0glJSah5NQpPPX0U1i4aCHuuusu9OzZEzabDQUFBZjx3gy8+967etvv2q0r/nHzPwLGZY+Lw//e/h/GjhuLM2Vn8P3336Nt27YYffloTJgwARmZGVAUBXl5+di7dw++/vobrF+/HoLAcLDPQaTZ0moiY4DRZMCgQYMwa/YsyIqM66+/Hi+//LJ+Dkxubi6SEpOQ1SLLT47x48bjzjvvRGFRIb7+5mswxpCSmoK0pmkgpZanjeaZMHDgQDz55JNwupzYsHEDDJIBnTt3RlpaGoJhs9kwffp0jBkzBmVlZfjhxx/QrVs3DBs2FNdcMwlt2rSG0+nEkSNHkJeXh6++/AqbNm+Co9qBXb/sRmSkT5tjgD3ejv++9l9Mvm4yKsor8NVXS7Bs2TJcMfoKjB03FhkZGVBkBXn5edi9eze+/vprbNq0CYwxDBo0GEnJifWWdZ2DuIOE0QU6BywWC9q2bYfjBcfh8XgwYcIETJs2DUMGDwGBkJebh+TkZGQ2y6wlAEDMu4rRcDpMYMjKysLs2bMxcuRIVFZVYtmy5WjVshXGjhuLcWPHISMjA45qB44cOYK9e/di6dKl+HnHzzAajbj88tEwGKWa9BjQrXtXvPXWm7jpppvgqK7GnDmzsWjRQkyadC0uvfRSpKamwOVy4ciRI9j5804sWboEu3fvQXy8HWPGjvFbhHnttdewe/dudO7UGROvvhrdunZFatNUaBUPq1avwvTp09VyBIPNasOkSZP88uhyOpGfn4+yctXQPWTIEJACNPKIIA6Hc7FDHA7n4kMmOlVyiuxxdmJgBIAYWMCPwAS/j0Ey0J7de9R4FKLiwmJKSU4hURCJgdF777xHpAROVpGJigqLqFlmFglMIFGQ6Llnn9Pj8tKieQsSBZFsVhutWrma4u3xujxGg5EsZgsZJKMmu/r3Fs1b0L69+2viqiXD1i1byWw0kyRK1Ltnb3I6nHXkWzh/IdmsNgJAoiCSKEhktVjJbLKQJEqazCLdecddVFRYRPFx8SQykXL65pDH7fFLW5EVeuXlV8ggGsggGuiF51+sWwxumaY+PZWMkpFEQaQ3p78ZUvE9+H8PkkE0kCRK9Nyz/yFFDqLw+tBk/GXnLoqLjSMGpufZZrWR2WQmSZDoxxU/+uUpq1mWFk6kY0ePN5jG0fyjJAkSGSQDZaRnqH+WKWAdOXb0GA0dMoxEQSQAJDCBAJBRMpJBMpLIRJJESa+XFrOFSk+VNj7vPixauIjCw8JJZGreGRiZTWayWqxkNBh1B+8e3XpQwbECSmuaRiaDiS4bMbJOHmSPTPPmzlfrCRPp2knXBk33ww8+JFHTy0MPPlSvjIqs0FtvvkWiIJLAhPrD++h2/9791L1rd/05gQnEwMggGchoUNuPJEiqriGQ1WKl/ft+rZOvvbv3kiRIJIkGumzEZfXKGoiqSgf997X/Upg1TJND1PVtNJhIEiQSmOgn3x2331k3nooqapndkgySgSIjImnvnn0hpd8quxWJgkgWk4Vyj+QFDqQQHT50hDq076i2f62uASCDZNDrvPfzwn9eCBhHwfECumzESBKg5kWPQzSQUTJq9VrtKwUIJECgnT/vrNG5QvTiCy/qzwoQSBINZDFbyGq2qvVSMur9kUEy0EsvvkRulzvE0vARV1bol52/6PG88fp0+nbZtxQRHqG/E0xGE1nNVpIESevj1XxdMfoKKi4qbiABte507tRZ719UfTAtDwa9nav9u/ozLzdwGe3ZvYdiomN8+gZGFpOFrBYbGQ1GmvnZLP+6q/VZQwcP1fs2SZDo/vvuV9uJt60oVPO7rNaz5KRkvYyMBiO9+PyLQd9rvuzetZs6d+qil78oiHockmggBvW9J0DtIwySgfbVU493bNtBrVq20mURmajXJ2/d8urP+34qOH7CLw7ZI9Pr/32DJFEio2Skp598WtdPfXl6/bXXtXYv0Z0B2mNj+HX/rxRvT9D6U0YGyajXaUk00IL5C/zawMD+A0kSJTKIBtq0YVONvKGgEO3ft5/atG6jj2/U8vCWg6TXRe87JjoqmhxVjoDRyR6ZtmzeSulp6ZqeRb0cTAYTGSSDnoaote2mqU3ryNyhfYeadxvUNmcxWyjMFkZWi03tD7SyjI2JpfU/rSfZI/vJcujgITJqYx+L2Ur79+4/u/c/h8O5qOEeKBzORYooiujduzfOnD5Tb7i61/8x9YpgApxOF+648w5kZ2ejRYsW6NKlC2686aagq1uMqTcWvP/+DDz15FMAA9auXYvysgqEh4fVCe9yudCieXP88ssv+PDDD7F8+XIcPHAQJadKYDYJiI2LRYsWLTB69Gjc+LcbIRpEdQU+wGqMzWZD3759ISsysrOz/b1etFWi0VeOxg8/rMAHH7yPjRs3Ijc3Fx6PerNPcnIWOnXsiCvHjMHll18OURLwtxv/ho0bN6JVq1Z1r9wlhuTkZPTNUb05EhPrrggygSElOQV9+vYBwBAfn1BvWXhJS09H35wcgEjdhuL1Smj0LguGNm1bY8WKFZj2yjRs3rIF+Xl5AACz2YxmzZohKSmpxu0ZDD2690B6ejoAqDcUNYDJZEJOTg6YwNQbYkhbLQvgRZGUlITFixdhyZIl+OabZdixfTvy8vNQ7aiGoigwmU1ISkxCQmICevbsiQEDBqBJkyaNy3QtLh99OXbu3IkZM2Zg1arVOHDgV1SUV0AQBaSkpKBtm7YYM2YMJk1WVwJHjx6NXbt2oX37dvoZPt42whhDTEw0+vXrB8YYWrZsFTBNUgj2ODtycnIgCAxNU5vWKyNjDAnxCeiXo8bbLLNZ/ZnSdNu8RXNs2LgBC+YvwLJly7Bt+zbk5eah2umEosiIjGyC5OQkJCUloU+fvuiXk4NmzTLr1CNbmA39+vcHQGjevEVDKq2DxWrGHbffgUEDB2H+ggX48ccVyMvLx6mSEiikQBAEREVFw26PQ8cOHdG7T2+MGjWqTp5EUUS3bt2RnJQMg9EAiyW0rXodO3VEUnISGGMwm02BAzEgPS0Nq1atwvx587Bs+XLs378PuUdyIcuy7rWUmZmJPr37YPz48QGjSUhIwKJFi7B06VIsWrQIO3f+jPy8fFQ51G0pTUxNEB+fgOSkJHTp2hVDhgxB69ata3TO1G0nsTGx+P7777Fv3z6cLDyJsjNl+pkIcSlxSE5ORs9ePXHlFVeiS7cuZ+WMxgR1lXvAgAFgYBgyZAhaZDfHxo0b8dmnn+HHlT/i8OHDKC8vh9liQUJCPNq1a48RIy7FhKsmwGQJoksfsltl46effsLcuXOxdMlS7N27F/lH8+FyuQAAVqsVCQkJSE1NRY8ePTBkyFCkJKcEjKtlq5bYsmUL/vOf/2DDhg3Iy82DQgosFgvS09ORnJzkX3c1r6lx48bB7fFAFAQwgeHOO++ss43NF4vVgieeeAKzZs3S+9UhQ4eEpNNWrVth8+ZNmDNnDr75Zhl27foF+fn56hZULe74+AQ0bdoUvXr1xID+A5DVvHngyAho3749tm7dirlfzMVXX32F/b/ux/Fjx+F0ucAYEGYLgz0+Hk2bpqJnz54YMngI4gN4DCYkJCCnbw6YIKBpmtrfENXvuZCQmIC+OX3BwJDZLNPfY6eRZGVlYd26tXj++eexefNm5ObmQlEU2Gw2NG3aVH3PaHkGgHbt2+llGRYW5s1IyDRv0Rzr1q3DF3O+wLfffotfD/yqvc89ABhMJhNSU1KQkZGBS3r2xLBhQ2EO0p8IooDOXTph06ZNmDPnC3z33bc4dPAQjh47Co9HBtNkTEpORrNmmejRvQcuHXFpjczamGTe3HmYO3cu1qxdg8OHD6P0VCmqHFVQFAUWiwmZmZlIT0/DwIEDMWnSJPVmL588K7KC5cuXw+PxgIGhU6eOyMjMOOsy4XA4Fy+M6HydbsbhcP4wBJvMhzjJz26RjYMHD4JIc+9NSb4we7bPwuhwXp493zRWlhC3mvxh+C3KMZRw5zOusyWIAZHzJ+Zi6ov+zJyfHS0XD2fz3riQeb/Y6vHvKU+QujZ40GCsWLECoiDip/U/oUvXLhef3jgczjnDPVA4HE4NF9tL/hwPrbtoaKwsvmd2XEz5OFt+i3IMJdz5jIvDCRVen34b/up6vtD5v9j0+3vKUzttUq/IXrN6DRhj6NixI7p06fK7iMbhcC48fB2Mw/krci7eAN5/cue1C8/FNmDlnDu8TDkcTijwvuKPAwE/79gBl9sNEHD9Ddf7bfvjcDh/LrgHCofDaRy1r2nkcDihw9sMh8Ph/LkQgF927UJ4eBjsdjtuvvnm31siDodzAeFnoHA4nNDReovs7Gz8+usBMIYLewYKh8PhcDgczkWOq9qF6upqmEymkA5w5nA4f1y4BwqHw2k0AhNAUEDEQGdzvQSHw+FwOBzOnwSj2QijueGb7zgczh8ffgYKh8NpNASC4L3rlm/l4XA4HA6Hw+FwOH8BuAcKh8NpHAx44fkXcPrMaSiKgqjoKG5E4XA4HA6Hw+FwOH96+BkoHA7n3OEGFA6Hw+FwOBwOh/Mnh2/h4XA4Z4/yewvA4XA4HA6Hw+FwOL8N3IDC4XDOHm8Pwr1POBwOh8PhcDgczp8cbkDhcDgcDofD4XA4HA6Hw2kAbkDhcDgcDofD4XA4HA6Hw2kAbkDhcDgcDofD4XA4HA6Hw2kAbkDhcC5mqNZPDofDqY/z1VfwPofDqR+CfzvhbYbD4XD+EnADCodzsRJocMYHaBwOJxTOtb+ofTA073s4nLrw9zKHw+H85ZB+bwE4HE5gSktLsWPHzwAIdns8Wrdp9XuLxOFwLnJOnjyJ3bv3gDGcU79RUV6BTZs2gTEB0dFRaN+h/XmWlMP5g8OAsrIybN26FUSE2JhYtGvfjt9Kx+FwOH9yuAGFw7lI2b59O4YOHQpZlnHZZSPx5VeLz0u8FeWV2Lx5M4xGAzp16gSTyQRB5M5oHM4fHUVW8N1332Hy5MlgYBg7bhzmfDH7rOLKzc3F4MGDQUTo3bs3Vq1aDXau3QQBLpcLGzdugqLI6N6tO8xW8zlGyuH8fuzfvx9Dhw6Fx+NB3745WLnyx99bJA6Hw+FcYPisicO5SJEkCYwJYIxBksTzFu+9996LoUOHIienH56Z+gwEgXcDHM6fAcYYRFEEg/rTYDj7NRJvvyCKIgRBOHfjCQAiwkMPPYRBgwZh8OAhmDRpEt/+wPlDI4kSAAaBCbBaLdz7hMPhcP4C8JkTh3OxQur/iAjsfMxeNA4dOgRZ9gAA9v+6/7zFywkCqZ4Bx48VoLio+PeWhvMnhmkTOQUEhZRzjotINcqcLxhj2Lp1KzweNzweD9ZvWA9Zls9b/BzObwoBTFDbh0IKFOX3sQaePFGIEwUnuDGSw+FwfiO4AYXDuUipGQsxBB0ZncWAqU+f3rDZwmC1WjBo0CC+YnahYUB+Xj6aN8/C9ddfzwe5nAsOQ40B5Gwh7XRMIjqvdXbytZMRFhaOyMhI/P3vf4conj/vOg7nt4bIe4osO6/GxlBRPAq6du2KnJwcOJ2u3zx9DofD+SvCz0DhcP5IqOO0c+KRRx7BtddeC8YY0tPSz4dUnHoghfDqq6+iylGl/oEbrDh/Bs6mL2LAjTfeiMGDB0MhBekZ6dygyPlT8DvYTgAAy79djmPHjiK7RfbvYsDhcDicvyLcgMLh/FGoPdHwTmACTUDqGUcJgoDMzGYACExgIIV0N2RAnfAzMBBIHZAFist38uRdgBPQuEmVr/zeZxR4l88bfhbQtjcFkNGrEx/9KAr5DXL1wWYo8vruhghFPh8ZKioq8cknn6h/UgiKrNQc2utbdr76ZAAp0M+dIEXLZ6h6rq1b3zKqHaaxNLK+BZUt0O8+8hL518sLRu38+NZF7++162mAOBRFAQNTZa6dH59/6+WvIDQfUAV6W9Tbai05vH+n87B1p0F88yH5ZCDU/AhA07SmoEDbHfzKX5uUBupnfFBkpeYcp8ZWlwBlqrc1VtMXeuWu/axf/1P7ynnB59/1fR+inKRt6WQC8+/fQng2YP31kcdbfxRFafhAcW/5ezS9e4N7q523fwpVvtoyev/d2Gdrx6P9TS/DENqx37uwdt8cTI++ckDrt1mtuqHUPKMomt7OpWvT9CQrCqZOnQrG1LJjQcq3zrMCoMgEQWSazAHeow2918nnp2+YQO+0UPLjG5f274Dtq6H3HrS+w7deCrXyeB4Wojgczl8bbkDhcP5gyB4ZZWfKUFhYiMqqShgMBiQkJMBmC4PFbG5w0umsdsLpcgIAbDYbJN+DJrUzD9wuNyoq1bjDwm36dw6HA5WVlcg9kovKqkrYbDYkJiQiPCICYWG2moFqCLhcblRVVaLsTBlKT5dCURQYDAbExcYhLDwMNpuWbrDBLhEqKipARDCZzDCZjPrgqKqqCnl5eTh9+jQEQYA9zo7YuFh9gCVKEixmc8iyVlZVQpYVMMZgtVogCmL9EyBt8FntrMbyZctQUloCSZQgShIqKiogy+psgzFAFFVZJGNNOVSUVQCMgTG1jJjAIHtkuJwuFBYVoqCgAAAQGxuLrOZZAUXwuD3weGQ4qqpQVFyMosJCMIEhISEBsbGxCAsLa/TtS26XGxUVFTh69CgqKiogCAISEhIQFRWFiIiI0PTJAI/LA4fDgVOlpThxogDOaidsYWGIjo5CTEwMzGYzjEbjbzPQZaquHA4HqqurceLECbhcLlgsVsTFxsJssSA8IqxeOYgIlRWVYIzBbDGrB7kKDESE8jPlKCkpwYkTJ6CQgrCwMKTxMQOmAAAgAElEQVSlpcFsMod2Aw2rMfZ5ZBmOiiocPHgIlZUVMJvMiIuLQ2xcLGw2G4jULTd0Ad063G4PqiorUVBQgMqqSkiShMTERISHhcNsMftPVgPgdGj9DwEmswkmk8kvr2oabjirnQBjWv0HQIDT5UR5WTny8/NRUVEBg9GIhIQExMfbYTFb1EmS6DMBrqfMZI+MivIKVDudKCkuRnV1NUxmM6KimiAiPELXJxNZ0MloZUUl3B43rBYrTBaTauwiQnV1NY4eO4pTJadARIiKjkJa0zS43W4AgCiJsNqsIeu8srJSPyvGbDbDaDLWTAhDgBTS62hZeRmOHz8Op9MJk9GEyMhIxCfEw2g0wmwyB58se9VKBLfLg2qHAycLC1FUVATGgKgmUUhKSkJYuNavhFIFCZBlBU5nNaqrnThxogAulwuiKCIqKgphYeEICwuDZKh/m5ej0gG3xw2DwQCLpeYgV7fLjeLiYhw+fASMAREREcjKyqqpc7XyyRhDRXkFHA4H8vLyUFVVBaPRiPj4eERHRcOi9f1+hkP9Ye2H9pWr2oWqqioUFhbCUe2AJEqwhdlgt9thtVrP3ltE06vb48HOnT9j7bq16kG2jKGsrAxGg1HPC4FgMppgNKt/I4XgcDhACkGWZYSHh+uyu11uFBUXIS8vD0SEJk2aoFWrVkHbkSIrKCsvQ3FRMYqLi6GQgujoaMTb4xEeEe4/rmgIBnjcMiorK1FQcBynTp2CohDs9jgkJibBYrFAFIUGxzaKQpBlD6od1Th9+jROFp6Es9oJyWCA3R6HqKgomEwmtY5wOBzOuUAcDueiZOWPq8ggGYiB0bWTriVFVujZZ56l1q1aU5PIJsTASBREMkgGigiPpFYtW9O/H/43VVZU1RvvE48/QUmJSZSUmETvvftezRcKEclEskemqU9NJXucnVo0b0Eup4uIiO64/U5qkdWCwm3hJAoiiUwkgQlks9ooLTWNrpt8HR3NP0Ykq/EEY++evXTnHXdS185dKd4eT2ajmUQmkiRKZBANFGYLp2YZzej6666ngmMFQeMpO11GbVu3pcT4RHryiSdJkYlKT5XSP27+B6U1TdN0J5AoiNS2TTua9dksSkxIpKTEJOrcqTN5XB41z/UhE1U7qqlli5aUGJ9IiQlJtG3Ltgafq6yopAfuf4Datm5LFrPFu5ZHZpOZUpJTKDkpmZISkygxIZES4xPp2+Xf6s+Wl5VTm9ZtKN4eT9dMvIZIIfK4PPT4Y49TRnommYwmAkAiEyk1OdWv/NxOtyqbQvTJx59Qr569KC42jiTRQAITiIGRxWyh5KRkGjJ4CO3ds7f+7HsU7adM7/7vXerWtTtFR0WTJEqqDIJIFrOFUpNTadyYcVRwvCC4bhQixaPQe+++Rx07dKS42DgySAYSBbUeCUwgs8lM8fZ4ate2Pf3j5n9Qfl5+AwV0bhw6cIjuv+9+6ta1OyUmJJLVYiVJlPS6bTFbqGlqUxo7ZhwdzT8aNJ6y02XUqWMnirfH03WTrycioi2bt9BlIy6j1JSmZDKaSICaR0mUKDoqhlq3bE0vv/Ry/XVJK0siovdnvE8d2negJhFN/GU0WSgjPUNtL8cLaOWPKwlgJAkSXT3xmrPWze5du4mBkSRKNHTIUCKF6L1336PuXbtTbIxadt48hYeFU0Z6Bt34txvpVMmpeuP9fObnZI+LpwR7Aj34wINqX6HUfBRZobfffJsSExIpq1kW5eflU7Wjmp5+6mlq364DRWr59/Z/JqOZEhMSacSlI+jIoSN6PxZQrwpRUWERPf7Y49StazeKj4vX+zOBqX2ayWii5KRkumL0FZSXmxc0Hy6ni9KaplN8XDw9/NDDREQku2V6+KF/a+3UTAITyCgZKcwWTt98/Q0lxCdQvD2eOnboSK5qV0hlX3a6jJqmplG8PYES7Am08seV9eq3Thwy0Y8rfqRhQ4dRQnwCmU1mkoQa/YmCSLExsdSieTaNGzOOln2znBRZqRuP9nPJV0uof7/+FG+P1+sAADJIRoq3x1O/nH60ft364O8ALa6K8gqa/vp06t2rDzVNaUrhYREkCRIJTNDLId4eT31696E1q9bUq6Nrrr6GEuwJlNM3h9wuNxERfT7rc+rQrgOF2cJIZKKe35U/rqqrd5lo546dNGrkKGqa2pSsFpveXwpMJLPJTPY4O7Vv157mzJ7jl/62rdt0PQwdMpSIiN7937vUqWMniomO0XVskAxktVgpOTGZhg8bTps2bmr4/RMkz2+8Pp26d+tONotN74cNkoESExIp3h6vfxLiE+mZqc/WZNOj0OWjLqcEewJ1aN+Bqh3VRET0wYwPqGOHjhRmCyemlafFbKGSohK/PsjLqh9X0dDBQ8keZyeT0UQMTP/Y4+x0SY9L6Juvv/GTWfH4R6LIitbeib75+hsa0G8A2ePsWttW+0lJkCgu1k69e/WmNavX1JR5bZVodW3h/IXUt09fircnkFEy6jIJEMggGigmOoZatWxF1066lrZv234WyudwOBwVbkDhcC5SfA0oV0+8mkaNHEWioA4Em0Q2ofS0dMrKzNKNKQBIgECX9LiE8vOCT/Yee/RxfcL6xutv1AxI5JrPgw88SADIaDDS99/9QG1at9HTiImOofS0dEpPy9AHiAITSIBArVq2orwj2qQjwEDHUemgjPQMv4FNdFQ0pTVNo/S0dEpOTCaBierEDAK1b9eeSopLAubjTOkZSoxPJAaBJl09ifLz8imnb44up9FgpKgmUWQymKhv777kcXuoRfMWJAoiAYy+Xvp1SBOY5597nqDJ26N7D/K4PQ2W3dH8o2SPtZM9zk5RTaK0gbg6mUqMT6R4uzqRssepn+XLltfk6/QZiouNIwZGvS7pRVUVVTRuzDhdxyajiaKaRJHRYKSO7TvWkffM6TK66867tHyCGBjFRMdQs8xmlJ6WTlaLVdd9mC2MPv3k03oNXsWFxTT52sl6+qIgUUJ8ImVmZFJ6WrpuHABA0VHRtGjhIt3w4kvZmTKafO1kkkRtkiRIZI+zU1azLMrKzKKkhCQymywETVcR4ZG0f9/+BnV9VmjiXdL9EhK0wboAgSIjIik9LZ2aZTbTJohGvewyMzLpwK8HA0Z3uvQMpSSnEAOj1q1a08IFC7V2KZBBMlByUgplZmRSWmoaWcwWEgV1kiAykSZcNYEqKyqDiuqoctCUG6foRjCBCRRmC6fmWc0pMz2TEuMT9bJp3aoNrfhhBRkNxvNqQLlsxGX0yL8f0dqtajBpmppGGekZFG+P19NnYNQso5k6OQzCJx9/opW/SPfde1+d7xVZoelvTNeNTd99+x2NGztO7d+YQJERat+XkZ5BMdGx+iQXYBQeFk4rV2gGhgBGlGpHNXXt0lWvY0x7Jq1pGmU1y6KkxCS9zTAwioyIDGowrXZUkz0ungDQ1ROvpoqyCho+7FJtoi6RKIgU1SSKzEazOlmtqqbM9EzNmMro/RnvN1gGikehWTNn6QbTtm3aNviMrzFK9sj04gsvkcVk8dFfJGVmZFJGeiY1TW1KEeERxCCQwEQyiAb67NPP/HWnvRNcThdNffoZvV8BQNFNoikrM4sy0jMoIjxS15vVYqXXXn2NZM//s3fe8VEVXR//zb1b0nsjEEilBAi9CAQBBZQqKigdRbGAWF5FH/XxUSwU0ccHRRGVKqhURaU3KYL0TiiB0EIqKZu25d7z/nF37+4mu0mAgFHnm89+kuzOzpypd+bMmTOuBxZZkmn8M+PV9ixAIC8PL4qqF0UJ8QkUVTeKtA5KX51WR99/971zHh3+7tunH2kEDcVGx1JpcSm99e+31DGJWfu1r7cv+Xj7KAo+h/zJEtEn//2EPPQear4ECBQYEEiRdSLV56tNlvKKAZsChYHRww89TKNGjFLbkI+3j9pWI8IjSGCCvewCg5Rx/waVKIrirgGFBodSUGCwWoYaURlPbc+UsJAwigiLoGlTp9nFtch0d9duJECgsNBwysnOdejXitI1KDCIvDy9KCIsQlHyOZSVxWyhWZ/NIg+dh6qQ8vP1o9iYWIqNjiV/P381fxpRQ2++8W+3dWbLy5QPpqjlJzKRAvwDKT42nmKjYynAL0B930PvQR/P+Nhlvy4pLqFXJ71KOo1OKQtBQyHBIRQbE0ex0bEUVS9Kfe6Jgkhent72cYLD4XBuAq5A4XBqKXYFirLQEplI4WERtGD+QjKWGdXdWmOZkeZ8+RXptPYdl9CQUDIUGlzG++Yb/yaRKZPgz2d94VKB8uqkV1VFhG3CnBDfkH795VdlUuzwnQ+nz1CVKCITqXu37pVOCt95+x3y8vSmhx58iLZv266+bzEr8X7z9TfqhEojaGjE8BGqFYwjBfnKolWAQD269aDOnbqQKGhIr9PTa6++RulX04mIKCszi1JOpZAsyfTGv95QFyPDhw2vsg4MhQbS6zysO6xaOrD/gMsdOZdYJ3o/r/5ZnVD369OPZIvs9JLMzosMRwVKYpNEGvroMGIQyMfLh8Y+PpbOnztPsiRTbk5uBQWDLBENHzZCXTx4e3nTZ59+RqYyE5lNZpIsEhXkF9DghwdbJ91a0mv1yiLRxVpHssjUq2cvdVIcEhxC33/3vVJXpEzIr6VnUO9evdXFgbeXt1r2dsGI5s9boIaJrBNJP/24Wo3HFuZ67nWa/cVsatO6DQ0cMLAahXwLyET//ei/5OnhSX379KX169YrFjxWLGYLrVq5ivx9/dVFysABAyvuzpNdgWIrJ5viYdDAQXT2zFmnsNfSr1H/fgOclA7Lli5zLaIk0ysvv+LUF58c+yRdz81TdnRlRc6d23dSw/iGBGs4raitUQUKc4j33XfepcICg9q+ZYtM69aup9iYWHWBElknkkw2a6hyLP52sbLAEjT00osvVQhjW6TZlBy2V2BAIC2Yv4DKSm1jn6IgWPPrGooIj1CVnG1at6nU+uGrOV+RVqOjrsld6acff6KykjL1M5KJdu/aTeFh4Wp59+vTz7UCpaSMQoJDSGQi9e7Vm8Y/O55EQdk1f+bpZyjtwkUiiSgvN4/OnT1HJBNt3bzVqoRUlCulJaVV1sNDgx6ylj+j9997/4YW3CePnyRvL2/V+u3DaR9SSbFzmiajidatXUf9+vSjkOAQKsgvcCovW1m+/H8vq9YJWo2O3nn7HTIZTaplQXFRMU0YP8GuHGci/frLr25l27/vAOm1ekpq3oLmzJ5D+Xn5Tummnk2lVi1bqQvohPiGTpYwjgwcMJB0Wh1F1Y2ipT8sVZTVWh316H4P/bH7DzKWGanIUERnz5wlWZLVPixZZJo6Zaq6MSEKIiU2aUrr1q4js9Gshjty6Ai98vIkaprYzPlZ5KBAUZQGWoJVYf3Rhx8p/YRIHeO3btlK3l7e1vGZkVajpeys7GrUpAMOeT954qSq2GmU0IiM1r7hro3IElHPe3qSKIgUFBhE7737nqocuqfHPXTwwEEylhmpML+Qzpw+42QlQjLR9GnT7WOBRkvPT3yeSh3aU2lxKf3bYX7BwGjWZ7MqyiQpVpWvTnpVVXjodXp6+623VStKWZKppKiEnpvwnGrxyMBo1YpVFcpj29Zt6pwhMCCQ5nz5lTJHciA/r4AWf7uEkrskU7OmzVRLJQ6Hw7kZuAKFw6mlOFqgMDCKrh9NaRfSKpjC2jh39hzFRtsXMXNmz3EZ7kYVKACjhx982HmCW461v64lvVY5WhLgF6AcvXAzicvLzaOLFy5WmvcfV/2omEUzgepH1Xee1FspyC+gupF1iYGpk9K2bdopixVXyERnz5xVjj9Yd85ysnLcTsqJFHN1ZedWpKTmSfZJ1w0sYn795VfV4sOmQHGLbFeg2CapGkFDjRIa0cEDB51kdVwI2N47sO8AeXl6qccqDh04ZN8FdghaVlpG06ZOU3dbmyY2raBwkywy/bTqJ9JpdQQwCgoMotRz512KXWwophdfeElddLZr295pAitLRI8+8qiiCBRE2rF9p729uSgOk9FEhfmFLpUVNUn+9Xw6k3JGKSPHoyQOsq1ds1Y9LlOvbj0qKa54RM7RAsWmRJnz5VfKh5KLl0w0ZvQYtW8/MHCQS/n2/rGXtKJWVWR8/tnn9qNn5V7Xc/NoyOAhdgVODSpQBAhUJ7yO3RrDRbVkXMugjh06qovDhx98WDWtd6S6ChTHXf/kLsl09fJVt7KmnEqhQP9A1cpi4/qNbsMaS4109sy5SheaB/YfUC0S9Do9pV9JrxCmrNSuQLEprxsmNKKjR466TVu2yJTYJNGqSGS0ft16NwGV15XLV9Sdc51GRxfOX3AbtyvmfDlHrcP3Jr/nPqB1PLme4+L4lXXc9Pf1V49WbN281WU0klmiRQsWqUdaIsIjKCszy20/PnH8pKJccOwb1jSJiDKvZVJgQKBqsbZrxy6X8Tww8AG1zXt7epOvjy/98P0PFfu1w0uWiNKvplNwULCirIOgKJgqOQJrLH/sqpwCRYBAMdGxFZSmjuFzsnMoIT5BVdos/cG18rQqZElWFSgiE6mhTYFS6XcUBYqtb4lMpNCQUNq8aYuiGHI33MpE+Xn5antnYLRi+Qqnz21tiEh55ums8wEfb19KPZdawarp3Nlz5Ofrp1qjbd602R6XQ7xmk5m+XfStarkYER5BmRmZTmH+9dq/VIXrt4sWV/rcsJgtVJBXcT7B4XA4N8KNeRDkcDh3HMYYtFot5s6biwYNGjjfwmCDgOjoaEx69VX1O5/N+qxG0o8Ij8DiJYvhH+DvOgAByV2TUbdeXQhMQElJCXJzc93GFxAYgPrR9e1e/l3QpUsX+Pn6AQAKCwtRUlLiOmnlagqUlJQiPCIcK1euQFxcnOtIGRCfEI8xY8aAZMUB7dtvv63cblHeUZ5VrsWLF0OAACIZAwcOvDHHeLcIA4PFIkGj0WDhokVo1bqVXUYGMIE53RhhNpsxfMRwlJWVQavRYtGiRWjZqqXdUaxD/vQeeowdOxZ1IupAhozzqedx6lSKU/olJSUY99Q4mM1meHl44peff0FsbIzzjURWvHy88PLL/4fQkFAAwMmTJ5CWlmbPiwAYjUZIJIGI4O3tpcgjwKWDQq1OC19/39t+C49/oD8SGiUoDh1tsji+ACQnJ8PH1wdEhIKCAkgWqdI4GRgGDhiIJ8c9obwhVHwRESaMnwDGGDQaDY4cOewyru+/+x5myQwGhr59++KZZ5+BqBHtfcfhZorAoAC89dZb0Gq0Ne5CljGGxx5/HC1btXTrmDU8IhwLFiyAt7c3RCZg0+bNuHz50s2naU2IQHjr328hsl6k27ANExrioYcfgsCUStyzZ4/LdgoAOg8d4hPibIm4pHWb1kjukgxA6VenUk65TZtAMJst8PP1w6+//oLmSc3dhpVkCY888giICKIgYO43c10HZIqT2+nTpqO0tBSCIGDo0KHKtc/VhRTnyIDi8NPbx9vps/LpMcYQGBzoHMb6mjhxIgoNhRAEAR/N+AjdenRzmaSgEfDQww+jcePGkCEjMzMT+/fvd+swNTGxiTI+OfYPqzwgICw8DI899pgyzhNh+44dlT43iAilZaX45L+fYMgjQ+y3BJXv10xx4D1jxgxcv34dAKFDxw54buJz8PT2dH1DFACdXus6YQACEyFqRHz22WeIj49X2l/5FwOCg4MxYMBAyLIMAuHgwQP28r6TkNJ2p0+bjh73dIdWp63UYfukSZNUp8gvvPACHnzwQafxB9abh0gm9O7dGx07dIDABJSWlGDLli1OY71FkjBx4vMoLiqGIAj4cPqH6NGjR8XnMAM0Wg0eeughNGvaDDLJyMnJwZ7de5zkMxoVp/hMdTptnSO5qANRFOEX4FczZcjhcP6xcAUKh1PLIQJCgkPQokWLCos7eyDlZofHH38MQUFBkGUZx44dw6mT1on/Ldxs2umuu1TP/i5hgLeXN5KSkkCkLBKys7Krvj2l/PWkDvj5+akTfpJJXQi4joZBoxExbdp0RNWPqnIi+uKLL0LvoQcDw6pVqxRljwtZMzMysXzZcsiQ4e3tg+eff6Gi7LcRAkEQBIyfMAHt2rWtdOEABhw5cgSnT58GEaFBdDR69eqtKphcERwUjA7tOwAASo2l2LFju9PnBw8cQGZWJghA4yaNcVenu+xKDxeEh4cjJiYGsiyjpKQER48edfo8Pj5eXRSPHj2m4pWXdxqHtG0TbpLIPom3vrx9vNGsaTMAymK6oLAQld0ULDABk16ZVGm6DAzNk5IQHBwCSZKQm5uLkmJnJSHJhE2bN8N2pfjgwYOdP3dRt4lNEpGYmFjjzVPUiHjyiSdU+V1BMqF+VH1ERUVBIgkGQyFSU1Mrb7eVYc1Eo4aNcG+veysPKjC0atVKXWinX0t3H9hx0Vf+PYf/E5smKjeuCCIyMzLdxkNWDeyjjz7q9kYsAMriTRDx0osvwdfXF0SEZcuX49LFSxXSlyUZxcXFWLlqJQRBgFajxf+9/H/u43YFA+Li4pQrbiFjypQpSlou8uCyjpjy7Em/lo7t27eDgSEsLBRjHhtTabKeXh7o2rUrBCZAq9Vi7dq1ld9gZVNWOPYpUt6XZRmdO3VWr5/NyLhmHzfKyWu7wjsyMhKjRo9S8+CO4uJifPXV1wAYBCZg9uzZ0OmU23lcblI4IldMHwD8/f3Rtm0bx2woOCgPSCY0adJYDaNuNtzBa3Vtt3R16NABYx4fY3vTLXl5+Vj6w1IwgcHXzxcvv/yyy3mIYL0pR9SI6NmrF2RSlETr1693GjOvpadjy+bNAGMIDQ3F6NGjlZuiZAJJFV96nR5dunRRE9ywcaM9MgY0bNgQDMrc44UXFMWM7TNFMKfM2xUqHA6Hc5Pwa4w5nFoOQUZ4RDh8fHzcB2IAZECr1aJNm7bYtGkjGBh2/74bTRKb3LiqlGzRMiS1SAKB1MWv2/Rt0srKNZ5urxEtt8NkMVlgKCpCSXExikuKYTAY1Ctl1V1oN4oAsqYhMME+ca1sIioDsbFxaN68Ofbt24eMzAzs2LEdgx4cVEHGTz75BGaLBQIEjBw5AkFBgSDZfk3lnUCr1eCJJ8aqC4jKyMrMgiAIkGUZgQEBOH78GARBcLv7y8Dgbb16WiNqcOzoMac6O5d6zhoOCAsLx8GDBytVyJBMCAwMBAEQmYDjx47j4cEPq58/8cQT+Prrr1FYUIjjx4+hTngd9O3bFyNGjkC37t2qXyg1RfkFtNWqp7CwEIZCA0pKSpCXlweLZEFJaQmqs8JhjMHHxwd16tSpdtruytRsMiP96lUQCBpBg053dXKqH5f1yhi6d++OI+WUV7dKZGQk6jeoX2kRMMbg4eWBtu3a4lTKKcgyYc+ePejeo/stpd22bdtqh2XMYeFbvp86jke2v60L8aLiIhQUFKC4uBiFhYUgImRmKkoTSbJAll2stqxWGwSCTqvDCy++qFwt7M5qitnbx/jx4zFl6hRoRA2mTp2Gz7+Y5RRUYAIOHDyArKxskEyIjYtFXFwlyhlXENCufTu0b98Be/7Yg+zsbDRu3Bi9evXCsGHDMXDAAOg9Kl4h7SSyAKSlpaGsrAwyCL6+vkhJSQFjQsXgTBlTlHbJQKRcK3v2zNnKnwXWOpNJhrHEhMKCAhQaClFkKILJbML58+etQe3Wdi4X70wZ61544QVotJoqx+rU1FQYigrBwFC3bj0ktUiqKJsrHNN26LpEhNDQUAQEBDoFrQrVutJdGd0uGPDUU08pf8uVp52RcQ1GoxFEgI+3D86dO4f0q+mVfEfZ1BCYAFEQcenSJae6yMzMhMVigSxL8Pb2xpmzZ6DX6d1FBpPZDFEUAShXd585c9rp84EDB2LatGlIS0vD5cuXUTeyLvr264vhw4ejZ89e0Or4UofD4dQsfFThcGo5DAx1IupAq3VvPmyb1MmSjISEBGzapOzQZGRmQrbIipl0dS1C4LwZVadOnRs6SsFsMyVXXyHAYDDg8KHDWLd+Hfbs3oPjJ07AZDKhrKwUJpMZACCTckxCFMTqpSkwBAcFu09XDQjodDpMnjwZAwYMgCRJmDx5Mvr36w+NbZJFgMlkwurVq8Gsi6yRI0ZWS4lRFWSdAFYHBgZfXz/4+/tXK90rV6+ACBAEAfv270OHDh2qlYZtESjJklM6ym618sb69euwfv26quNj1mUOA0xmk/o+yYSGjRpi3759GDVqlKK8ysrA3HlzsWDhAjRMaIgRI0egT58+aNasmTJZvgOLieKiYhw9egzr16/D7t27ceTIUZiMRpQZy9QFg9IEFAUiyQQiGe6qkIig0Wqh0VTj0Wq1lnD8LgBlMSMA2TnZyC/IBwD4B/grShkBlS60GIC7Ot6FT/73v2qWQPWoE1FHOQ5RGdbxp379+mobv1je4uEmiIuNq3pxyVB5AIfvm0wmHDl8BBs2bMDuPbtx9MhRFBcXo6SkBGWmMtXiB4BqgeKywh2UzH6+fmjYMKHycdLho0cffRQzZsyAJElYu3YNigxFioJc1REQZsyYAYvFDEEU8cILL8DLy7OSAnCdXmBgILZs2YwxY8Zg7dq1KCkuwerVq7F69WpERkZi8ODBGDJkCJKaJ9mP+JQr69zcXMiyDAbg3Nlz6NDR3bhSUcVORJBcKZ+gHC86efIkdu3ahS1btuDAgQMwFBpQXFJi7XuyWg8Cc3h+ubBcIyIQAaIgIDm5qxKssuZKQEZGhqo8Dg0NqyRw9YmqFwWdTmuX0xGHunWyfrO1rTuoPLHlu1GjRsobVXTtoqJiWCQLZJJw7do1dOvWHQS50k0VxhiICBbJAovF2YI0JzdHfe6kpqbirk6dUJkJjADn+Uv5Z2hEnQjs2bMHjz32GLZu2YpCQyGWfLcEP3z/A2LjYjF48BA88MBANG/WHB6eHsqX/kzrRw6H85eHH+HhcP4CaDSaaikxBEGAKNq7dVab6KgAACAASURBVFlpKQSNUL3JgtOOvPIFZUF8ozM790qCrVu3Iql5Erp264qpU6dh22/bkJOdjaKiIuj1HggOCkJERATqRtaFRqxEYVQOgQnV80/CAEFk6NWrF9q2aascdTp6DJs2bXIKk5aWhjNnzgAAIurUQZu2bWtkwkVElY+6DsUmCIJ1sV6N8icoFjvWoDbTaapCaAIpixxJgtFocsqjRbLA8Q2qxo+aLhFKS8vs2bK23bj4OGzfvgO/bfsNbVq3gSAIsEgWnDl7Bq+/8Qbat2+Pli1b4tChQ0o+pNszy5UsMs6cPoN27dqhS+fOePfdd7Fp02bkZGcjryAPoqhBREQEwsLCEBUV5VQGsiy7XewITABRJVYIgMsFIOCgQBHs/ysLVwa9Xm9v38zF6zaj9/CoXkCCdadYwZ3vohuBCbeuuLR9P/3qNbRt2xadu3TGm2+9iV/X/IrLVy/jev51iBoRIcGhCA8PR3T9aPh4+yh+KlQnSS6iZYIy5mpEu6+hasiSlJSkKjgvXbqEDRs2OAU5eeIk1q9fD0EQ0aBBAzz55JM3VwYM8PT0xHfffY+UUyl48MEHVeVeeno6Pp35Kbp3645GjRrh+++/V7+jQvYjNgwMzKpEsz0TmNNPRWRZQllZqUvRBj88GB3ad8Cz45/FihUrkZaWhuvXFR8bAf7+CAsLQ/169REYEOT8RRfHrWx1pPgLq96+oGzNl0wEjaZ6ivqqUPt9Jf2TyH6Exvb/nUfpU5VZfThiG5vstVyFRarjdxiD2boxYkOSJKsfIKXchXItqfyP7ZnCwCBJEsocni02wsLD8NOPP+HQ4UPo3r07tKIWjDGcP38eH0x5H507dUZSiySlr92hcZPD4fx94RYoHE4th6A4XavUPBxQz/Q6+gtRd1tsi7YbnjTU0CyDgG1bt+GBBx6AwWCAAAFdunTG448/jhYtWiA4OAQBAf7Q6XQQBBFlZaWIj4tH7nX3zmhvSRwijBg5Arv37AYR4bvvv8N9fe5TPpMJzz//vLJ4ZQyfffapfVfxT6H6daDsxBIGDngAU6dOUfxtVNPiJSAgwLUZPxhGjxmNV60OiquWQdmwDwkJcfm5qBFwV+e7sP/Afhw/dhw7tu/A4iWLsX//fljMFpw4cQJdu3bF008/jfffex86sRL/OzcByYQTx4+jxz09rA4kGe7q0BEjRo5AmzZtERYWiqDAIHh6eUIjaiDJEhISEnDp4qVKjzDdsByVKbgcd6jBYDabIUkyNNVshjW6NrAq54iqtp6yj0/KgONpHX9kiSCIf9KKxaoEOHzkMPr27YusrCzIsowmjZtgwoQJaJHUApF1IxEcHAwPD0/odFrIsuLTZMWKFUoUVdX7jTYLBsybNw8tW7ZEaUkpXnzxRfTu1RvevooVyA9Lf4AkS2CQ8ciQIbdWoValcWS9SCxdvhSX0i5hzx97sHjxYmzZsgWlJaVIv5aOkSNHYsH8BVi4aCFCQ0NdKgBatWyJBQsWQDXNqyppxuDr6+v0Xsa1DPTo0UN1zBsWGobnnnsOd93VCQ0aNEBQUCC8vb2h1WghiAJmzpyJF1980TliN8+yqhTGajirwsUWuirH0BwFxhgaNWqE5cuXV/cbEBiDpxvrKUmW0K5teyxauBByZY6lHBAEAd7e3i4/0+g0aNS4ETZv2YxzZ85h566d+O6777B9+3aYTCacPXcW/fv3x/DhwzHzfzPh41fJsWgOh8OpBK5A4XBqOQIYMjMzYDKZofeo3JkroPiuUBY7grIotp1v/hN3XIoMRRjyyBAUGgohMhGjRo3CrM9nOU2sHBdZJSWyctvIbUIQBAwePBiTJk1CUXExfv75ZxgKi+Dt7YXTKaexbv06aAQNYmJiMGjQoNq/W0VAeHiE+q/BYECjRo1u6RabsLAwa9QEQ6ESn1v/EjdJs2bN0Kx5Mzwz/hns2rELk999F5s3bUJxcTFmzvwU999/P3rc06NmErNiMpnwxJNPKLvdIPS5736sWLnCrmy0YXMSKpHbWzluGwwIDAiEj48PDAYDCgoKcP36ddSpE1HFSRVCXl5ejVmn25aZWVmZzo413R0hYgxpaWkgUgad+lH1AQBCNZV4twXr2PfB+x8gMyMTBELPnj2xfsN6ALAey1KUQ7ZjeowBgnDTWueqIeVGsA4dOmDbtm24ejUdv23/DX369IEsy1j902oAgF6vx4MPPVijSdePro/60fUx5JEhSLuQhrf+/RZWrFyJktJirNuwDh9/9DGmTJ2iBJYVx6g23zJmixkNohsoC1jHtlDh7A6cfZU4OKv9/rvvceb0GQhMQExMDA7sP6Dc8OammCWpesoNgr0uq4O/vz8UqxWg0FBY9QZFLUS2td3bLLeHXq8okyUJZWVG1I2sC/9AN7fyucOhKwX4B0AQRTBZQmlpCRo0aAAPr2pauVWT+IbxiG8YjzGPjcHhQ4fx7uR38fMvv8BisWDhwoVo164dnnn2mQqycTgcTnXgR3g4nNoOY8jIyEBxcVEV4QCTyYxDBw+BgUEmCZ06dXJ7Veyd5NjxY8jPz4dG1CCybiS+nPOl210pADAUGmAsM1bbeuKGYUBQYBDeeecdAIT8/Hx8/PFHEEQBW7duVUyFZRkPPPDAn1521SUqqh5kUo58pKScqmA2faMot7kwiKKI4yeO37r1hbuvW2+06JzcGb/+8gueeeYZEAgWixkfvP9B9eKoJrIkIy0tDfv37weB4OPtg5UrV8LDw6Ni3EzZqTYUGnAt49qtJXwTePt4K/6HmGKBcuyYg2NYN+XAGMPmLZvhwsXnTaIs0C6mXcTlS1eqVMQajUbs3bsXBEVp0tZ29K0W9KHikhK079AeIcEheO6553Dl8hV10Sww5RCBTU4i4MKFC9XeFb8pCBg5cqT1CIqMH3/8EbJM+OOPvTh27BgYGLp27Yo2rdtUHVclaVRGdEw0Fi5aiEWLFqpHMr7++mv16BWBEB4Wrh7LunL5iuKn6mbqUwZkWcbKVSshkQRBEPHccxOVhbi7+Ag4cfzETSRWNfHx8RAFDSySBZcuXcK1a3e+j986Tl5sb1sqoWGh0Ol11muEs2EwGKo/Fjsq0xzis/lUunr1KoqqmtvcAiQTWrZqiWXLluHjjz+yup4ifPzxx/abeGrB+MThcP5acAUKh1PbIUJubi5SUlIc3kOFv2VJxqJFC5F7PReCKKJJoyZomtj0jorqjuKiYpgtZghMQFBQELQuj8SQ+uvgoYMoKCyo0SMT5RFEAUOHDkVocCgYGBYt+hbFRSVY9O0iAIBer8PjY8feWiKyzRGuco5bluSKdefexUL1ERRrjpDgUMhQbhD56OOPnNNxpHyaLtaJzZo1g6enJyRJwoULF7Bk8RLF6L2qyaab/LisSga7go8UE+wZH81AUEAQQEBmVrnrY135P7BdPVwNZFlWbogCgyiICAsNg07v3g8AYwyHDh+q9i54jcKATp06qYv41atXV1r2siQjKysLGzZsrPZRhuoikYR5c+e6b6/Wa0HT0tJw5fIViEyAh6cnEhomVLRC+FNgKCkpAWMMdSIjcfHiReTk5Nj9OAiwO+glYPfu3Th69Cg0oga3RXBrskOGDEFcXBwAYM2aNTCbTXh38mQAin+K/7z1n5qZpVWSBVlSFMUtWrQAwFBSWoKioiKrmAyxcXGIt94AlJefj9df/5cSX3nFvGO7KP+59X9BEFTljCxLSIiPr1S+S5cuY+WqVfYk1EfErdUJYwzBwcHo16+vekTu2WefdX2Uh6BcwVtDzUDZE6iZFbtOqwOgOGuVSa5YHzVEREQE2rdrD4ChqKgIEydOVMZEW9m4gtz/jo6OVuu+IL8Ab77xZpUyqFaAlT27XDwfbNY5gkbA+PHjERUVBZkI169fh9FkrDJdDofDcQVXoHA4tRwZMkwmM55+6mkUFhRWDGCdNOXm5mL69OnKZEqS8NTTT0Gr/zN9d9jxD/AHA4PFYsGVK1eRm1PRt4nNTPzChQt4+umnFR8At9P0nynHXpK7JgMMuHYtHbt27sTevXshCAL69u2Lxk0auVQuVAurs0BvH28QFH8qZ8+dUyeetjA1MtElwM/fDzNnzoROq4Usy3jjjTfx6y9rKl5RWe5/WZKRn59fQZaIiAi88847EEURRpMJo0aPxtat2+xyu5ABUJQU169frzCxvX49F5K5EkWEVabjx4+jtLQUTGCoG1nXKQ5JlvDkE0/i0SGP4tEhj2L6tOk3dDxNFDUICAgEs8qZfu0a0i5ccEpfyYSSXmZGptUfTtUOeW8HDz9kuwaaYcGChTiw/4Db9ijLMubNmweDwcUYcYsITMDX33yNS5cuuS5v6zGIcU+OQ1FxESSScPfdXREbG+sU5s+CCcpVrJcuXsLFi2mIj4tHy5YtnWdA1urNzb2OV155GWaT2epI+XYJBXh5e+G1f70GQRCQnp6O77//HgcOHgCBEFU/Ci1atlAWjjfR9EgmFBYUwlhqrLTsBUFAfn4+rl3LAAPg5eWNAP8AJQ4QdDot5syZA1EjgjFg9pezsWjRIkUuR+VY+b8JyL+eD8kiAwLUfPj52Y9+7Ny5062FUmlJKaZ88AEKrDdRKWVAVoudmysTFabke8aMGfDw8IAgCFi7di1++umnigoB65EuJ2XQLSXN3N7idaN4+/ioz5bsrGxkZWU5JlRjCIKAWZ/PgpenFwiEn1b/hJn/mwmLxeL2tiObwuN63nXFL5uDeyStRovPZs2CTqcHgfDVV19h/rz57pUkDoqQwsJC52vFBSA/r0BRpJdX1JYrgytXriAnJxsMiu8dfSXKcw6Hw6kMrkDhcGo5zDorOH7iBDp2vAtbNm+1W2ZYf23ZtAWtWrbCmbNnIAgCPD09MWLECNfxVTaxcrVTXAMTscTERISFhoGsx2W6du2K86nnnRaDZaVl+PTTT3HXXXchKzPLegtG9ZetN2OsIggM06dPh0ajgdlswajRo1RHrBMmTFAC3eLuedOmTaHT6sAYw8W0NPTv1x9FhqpNlu11XI3ErTIOHfYo+vfrD+udOHj44YcxdNhQnE45bY8XBMiKwm3pD0sxYMAAdOnSRVHOlavrF55/AZ06dYLAGIhkDBwwAI8/PhZXr16tIEJWVhYWLliIe++9F7169UKp4+0bDBg/fjx69uqJJYuXwFBocJmN5cuW47777kOZ0QgQ8OJLdueRkiQjIyMD8+bOww/LfsAPy5YiKzvb2TdHVcUkAPXrR6F9h/YgEMqMpUju2hWnTp1yisNsNuPbb79Fh44dcPLkSXjo9aj8vhGHNJxWW+4COf/rztKqV+/e6NunLwBCcXERevTogU8/+xSWcjvludm5GDp0KN58U9nJrc4NTDcCEeHKlSto2bIllixeUuHz06fPoE+fPti5aydEQbnNZvHixVUXg5vBiKH6dWqPyyorXPvBaNWqFUpKS0BEeO/997Fnzx4lvIN/mx9//BHNmjXFnj1/OPhgqjwTt2ol17t3b3joPcCYgEmTJiEvLw8MDGNGj4G3j/dNK5GZwPDt4m/RvkN7fPbpZ7h6Jd1luEOHD6Fr167IzMoAYwyjRo2CTq/42rL5hOmS3AVjxz6h3oQy7slx6N+/Pw7sO1BBAVJYaMAvv/yCR4Y8gnbt2yE9/apTXAMG9FfDfjH7CyxauKiCTAcPHERycjK++vortXzVK+CtlixOeb3Jq4BjY2PV6+xNZhNGjBiBxx4bg2vpGfZApDhR3rB+Ax4a9JDzjW23yI3fcOfwXcYQHhaGpolNFWWZoRD33nsv0q+mu+87t9BWExomYNKkV6zHg2VMevVVdO/eA7/v2l0hrGSRsW3bNowaORqtWinzEkeZmMCQnNwFTzwxVrVqfOqpp9C3b18cOnDIKqr9C0VFRfjl51/wyOBH0Lp16wrPn6lTpqDjXR0x95u5uJ573aX8WzZvQdfkropyHgzjnhrHj+5wOJybhjuR5XBqKfaLDhjmzZuPjz6agRPHT6B3716oV7ceoqOjodFocPHSRVxMuwhJkiAwAY0aNcKqVasQHBzsOmLrDp66FHSxm2xbfjHHCZebnULbd2xBbJYXjt/z9vLGD0uXom/fviguKcKpU6fQqlUrNG3aFIEBgSgoLMCpU6dQUFAAURTxwgsvwGwxY+ann1aq8GFMuYYSAEi+CVMRplyt27dvX6z6cRWysrIUM/86ddCmTRunvN1M3IwxBAYG4n//+x9eeP4FGM1GrF2/Fk0SmyAxsSlIlpF6PhXvTn4Xw0YMs+aJWb+umGbfyJSXJMI333yDgIAAzJ03F2XGMixduhTLly9HeHg4QkNDYTabkZuTi6LiYtWvTlhYuPPusVV+jU6DpUuX4rkJz2HFypUoKinCgvnz8d13SxAWFo7g4CAYjSZkZ2ehuLgYpaWK0iQuLs55cUCK89Zt27Zh27Zt8PfzR72oeggNDYVOp4PJZMKZM2dw7do168SZYcTIEejWrbsahSAwnD59GhJJABi8PL3wyisv33i1CAyzZs1C9+7dYTAYkJ5+FW1at0FSUhICAgJQWlqKc6nnkJGRAYDhmWeeQYcOHfDYmMesu+zMRV+wtkGr8k2s6kpbdb1nrWtXjZwAjUbEkiVLMHjwYGzcuBGFBgMmPj8RUz6YgiaJTQAAGRkZuHTpEoqKixAeFo7Fixfj0UceRV5+3i0t7m0yySTj/Xffx+HDh7Fi5QoMHzEcL7/8MuLi4uHp4YH09HSkpKQofi0gIDAoEPPmz7M66XSRLZnAIFiLkFVsd0riyoIZgt3aoBr9UOkv5fJMipXVKy+/gtOnTyM1NRXFRUVI7pKMFi1aIDQ0FGVlZTiXeg7pV9MhakSMGjkS99xzD0aPGa2IJ7uXgYhc56Ga1K1bF0OHDcNXX89RFIIAIiLq4Nnx41UFM6EKxbcbZJlw7NgxTJz4PF6d9CpCQ0MRExsDjUYDURBxLvUcLlxIAxFBgICWLVsqfcr2jBDsA/uMDz+Et5cX/jdzJowmI35d8yvWrVuHsLAwREREwGK2IPd6LoqLihWnrCD4+frZlWHWqIYNG4bPP/8cqedSUVhYiNFjRmPK1CmIiY6ByWRCWloaLl66BIvFjLvvvhvTpk5D7/t6w2Aw2JVdjtYg5d66EQRRwDfffAN//wB8/fVXMBqNWLBwAZYtW4aIiAgE+AcgJzcHBQUFKCgsAANT/NaUj4cJYHCwLHQHWa+Yp4rXAJNMqpKpWjBA1IpYuHAhunXrhpKSEpw+cwYtklqgRcsWEJhi1dSnbx9M/3C6NXmlTh2VjdVNi2TCG2+8AZ1Oj8mT34HJZMLOXTuQnNwFISEhiKwTCVmWkZWdhbLSMhQUFkJgDBqNRjm6ypzjY4xh2rRp8PLywscffwyL2YJ169Zhw4YNCA8PR0REBMxmM3JyclFcVITCIgMYAE8PzwplZzabsW/fPuzfvx/PT3we4RERqB8VBZ1eB0mSkJqa6nSLWs+ePfH4449Xs6A5HA7HBcThcGolWzdvJU8PL6pfrz6RTGQymmjY0GEUEhxCOo2OGBgJEEhgAum0OgoJDqEB/QfQ9dy8SuN94/U3SK/Tk4fegz6d+WmFz2WJ6LVX/0Ueeg/y0HnQ7C++JJKrEFYmGth/oBrv2jVrnb9j/fvn1T9TfFw8aTVaEphAoiAq+WAi+Xj7UGSdSFr6w1IiItq5Yyd5e3pTWGg4XUy7WCHJgvwCqh9Vnzw9PCkwIJBysnKqENI9q39aTQCIgREDo0/++8lNx+UKi9lCb7z+BgUFBpFWo7VN+wkA6bQ6WjB/oRo2Py+foupGkV6rp8iISEq/ml51ArL1JZFa1suXLaeWSS3J18ePtBotMTA1TYEJpNXoyN/Pnxo3akyTXp5EZpPZHlf5eGWir778ipo0akK+Pn6kEbVO5WVrg4EBgdQ0sSm9/977JFkkp3g+nfkpRdePJi9PL9KKSv2rLwik1+rJ18eX6kfVpzlfzqnY5mSiz2d9TgwCMTC6u+vdN1gLDvkhol07d1FS8yTy8vRSy8TWJj09PCkhPoG+nD2HiIhyc3LJ19uXPD086fLFyxVky8vNo+gG0eSh86CI8Ai6fOlylaKUlpRSSHAI6XV68vf1p7LSMrdlT0T02quvUXhYOHnoPEgURLX8dRod+fn4Ube7u1HKqdMkWSRq0rgJeXp40qNDHr3xMrJy6sQp8tB5kKeHJ/2x5w8qLS6l5yY8R3Ui6pBep3dqwxpBQwH+AZTcJZkuXbxcoawdWbhgIXnolLHl/176vwphLGYLzfzfp+Sh8yAvDy/6z1v/cRuXI7M+m0WeHp7k6eFF454cR7JD8yOZSLbIdHD/QQoMCKLWrVqTwAS1/TIw8tB5UL26UTT57clkMVvo2NFj5OXhRXqdnhbMX1AhvbJSI4WFhpNep6fwsPAbKNmKFBYUUnBgsFqn458dT7IkK/3ZoU/fKDu276BGDRuRv6+/0ucgqGkAII2oJU8PT4qqF0WTXplkT6dcmra+bDFLtGnjZmrXtj0F+AeQTqsjkYkkChoSIJBG1JBOqyNfHz+Kj4uncU+OoyJDcYX4zCYz9evTj/z9/EkjapT+Z+3XGlFLYSFhNGzoMCorKaMiQxE1btSYPPWeNPG5ic4ZtI55/fsNIE8PT/Ly9KJ9f+yrdvnIkl2oRQsXUWLjRPL19iWtRksiE0lgIomCSAIT1LHp912/O8Wxb+9+8vL0Ir1WT/f0uLfKNE1GM305e461rXrS6JGjqy2vuzzMnzufIsIjSKfVK/Ja69lD70HPTXhODStZJLqn+z2k1+nJ29ObDuw/cBMJEu39Yy916dyFgoOCSa/zIObQrmztwMfLh2JjYmnE8BGUl5vnug1b+/WmjZuoXdt2FOAfWOFZZWunvj6+FBMdQ48/9jgZCoucolm2dBnFRseSr48v6XV6tc5szyaNoCEvTy+qH1Wfpk2ZVq3xhMPhcCqDEd1GL40cDuemKS0pxeVLl6H30KNBdANl90qWkZ2djStXruDgwYMoLiqGh4cHWrZqifr1GyA8LEwxPa9kFys3Jxc5OTkgAiIiwhEQGFAhTE5WDnJyc5Xd0DoRyjWTVXD1ylUUFRUDpJzf9/L2sn9oG2UYYCgswtUrV3D4yGFkZGSCAYiqH4VmzZohIiICfn5+AFPMgFNTU8EYQ0xMNDRaZ4M5kgmpqamQLBKYwBAfHw+hqp1/Nxw7cgwtWrYAYwIiI+sg9VwqdJVdGX2jWPOffjUdFy9dxKFDh2E0GhEWFopmzZohIaEhvLyVW4lIJpxPPQ+LJEEURcTGxEDQVJGv8ue+rf+XlZUhMzMT6enpOHL4CMqMZVbT73AkNExAcHAIwsJC7XXlUE8V4meKM+DsrGxcvHQRJ0+ehMlkAgNDREQE4hMSEBoagtDQ0IpXAlsxFBqQlZWFa9eu4fz588jLy4PABOj1eiQ2TUTdunURFhamXJPqQoZRo0Zj8bffAgD++8l/MXHiRNfyVlVO1jIqKS7BlatXcfToEVy9chUEQkREHbRs2ULZgQ4IUONOPZsKSZYQGxsLjUbjlCZJhAsXLsBisUAQRcRER0PUVnENNwHnrD5xRFFUHHVWdvqHgJycHFy7dg0HDxzE9bw8aDQaNE1MRFx8HCIj60KrU/rIxbSLMBqN8PPzQ0SdCDcRVo7ZZMb58+cBMMTFWfMM5ehXeno6Dh48iDyrDElJSYiJiUFERITiINpdOwJQVFiEq+npYAwICgpCSGhIhXzm5+cjMzMTAENISDCCQ4KrtPDIz8tHZqbiAyIwMEC5httFG7r77rsx95u5OH78OC5dugRJkhAUFIRWrVujbt1IBAUFAVCsVs6dOwcCIbJOJHz9fZ2jso4/siRDFEXEJcRVq1zLY7OqSExsipTTpwAA23/bjuTkZOeAN2piYS2vstIyZGVmISs7C+fPn0dGRgZkmaARRcQnxCMmJgZhYeEIDAqwf6+yNAkwGU3Iys5Cevo1HDt6FMUlxSAiBAUFoWHDRggLC0NISDB8/Xzdxmc2mZGerowDJ0+egNlsgY+PN1q1aoW6deshLCxMudaeFOfERqMRQUHBCLW1F4e4rl5JR1FRERiABtENoPeopm+LcrKVlpQiMzMTaWlpOHHiJCSLBYwpz5aEhgkICw2Dn7+fU9rGMiMuXrwIIsDH2xt1o+pWSKZ8moWFhdZbfxj8/f0RUSe8evK6kt8qS252Lq5cvYr9+/ahqKgIfv5+aN68OWJiYhEcEqSGv3z5CkpLSgAGNGgQDX11n3Pl+rTZZEZ2djauXcvA0aNHUVCQD8aU/DRs2FCxeAwJhV+AX7XyYCwzITsrC+nX0nH82HEUFRVBJhnBQcFo2KgRwsJCERISAl9fXyc5bN8vKSpBVlYWMjIzceHCeeTk5ECWZOh0OjRu0hhR9aIQGhaqzGVu0lqMw+FwbHAFCofD+edRbgL1n3//B+++9y4A4Omnnsasz2fdmDl1DctT43HjNsZfk+lUVg6k+JNJSUlBUFAQUlJO2xcGHE4VkEyQJBndu3fDml/XqAoR21XGqnPlO7ywIpmwfPlyDB06VLlytWVL/LF3LzRasWbHBce4yikS+WKSc8PY2k1taj/VkaU2ycvhcP6ycCeyHM7fBariVdsgN3/fYRnMRjMWLFgAAkEURYwaPcp+bv82pVkh7ts5oXNcFNZUnsrHY5uU3mo+Kvn+xYsXkZJyGkSEF1986fYpT2pjX3GHY1v6K8n9J1BaWopTp04iLDQM23dsh6HQAJIVnziqj4Y/YWFlNJrw2quvqf49P/roI0V5ghqWx4WvqxpP42baIG+/t4/bWaa1TXkCuLacdPztKgyHw+HcBFyBwuH8XWBVvGobzM3fdwBHw7u3/vMWLl++DAEC+vfvjw7tO9zexP/M+qipdN0txm4jc+fOBUDw8fHBsGHDbl9CL9eDLAAAIABJREFUtbGvuMOxLf2V5P4TyMzMRFmZEV/O+RIREXVw/vx51VG3IAp/TvkRsHXLFuV6aCLExcWhXft26me3jduV15uJl7ff28ftLtPaXme8bXE4nNsEP8LD4XD+cZBMMJlMWLVyFcY9NQ7FRcXQ6XXYv/8AmjZLtF+vzFXMtYbdu3Yj7WIaAvwDcH+f+/mkmHNz1JZdcwK2bNmK4cOGITs7G0wQMH/+PAwfMbz2yMjhcDgcDqcCXIHC4XD+9pAMHDl8GOvWr0NMTAzy8vIx58svceTIEciQoRE1eOmllzBt+jS+eOFwODULAWfPnsW8ufPQrHkzGI1GfPXVV9iz5w/1StnRo0dbrazAxx8Oh8PhcGoxmqqDcDgczl8bBiD1fCpef/11CIIABgaZZBAAvU6Pt99+G5MmvWoPzOFwODWEJEnIzsrG1GlTAQCMCQARCDJ0Wj1GjRqFqVOVz/j4w+FwOBxO7YYrUDgczt8fBsREx+D+++5Hdk42JEmCr68fkpKSMHbs42jRogVfuHA4nJqHAEEQEBYehn79+iMnOxsW6/W4rVq3wrBhw9D17q5/tpQcDofD4XCqCT/Cw+Fw/lk4HtGx+TqprY52ORzO3wqSoTqvVX0s8WODHA6Hw+H8ZeAKFA6H88/CNuLVxmsYORzOPwfHsYjD4XA4HM5fAn6Eh8Ph/LP4E69P5nA4HBU+/nA4HA6H85eDX9LJ4XA4HA6Hw+FwOBwOh1MFXIHC4XA4HA6Hw+FwOBwOh1MFXIHC4XA4HA6Hw+FwOBwOh1MFXIHC4XA4HA6Hw+FwOBwOh1MFXIHC4XBqL+Tw4nA4HM5fCz52czgcDudvBr+Fh8Ph1D6s1wubzWbIsgwA0Gq1EASB31zB4XA4tRiL2QKLxQJRECFqRD5uczgcDudvBbdA4XBqMwSQTP88KwwGgIDXX38DrVu3RqtWrbB585Y/WyoOh1MZ5ceof9KYxVGZMeMjtG7VGi1atsDPq3+uuYh5e+JwOBxOLYArUDic2ggBxjIjfvhhKRYtWoQlS5aguLj4z5bqzsKAjIxrSEk5jZSU0zAYCv9siTgcjisI2PHbDrRp0waJTRIx+4vZqhUZ559Hbm4OTp85g1Mpp5CXn1cj7YBkwuTJk9EwoSG6dumKi2kXbz1SDofD4XBuAq5A4XBqIUQEQ6EBEyaMx5gxY/DUuKeQlZX1Z4t1Z5EBxgQwxtQXAL4LWZv5p1lK/d0hVNsP0dJlS3H48GGcPXsWs2d/yZUn/2AEQQBAEAURNaM9AfLz8/HOO+/g3Llz2L1nNz766CM+1nA4HA7nT4ErUDicWggDAxgUxQEU5YEyKf2nQSBSXgD4oqyWQTLhrX+/hWFDhyEnO0epJ15Hfxt+/vlnjBgxEkeOHKk8IAOCgoIgkwySCcHBQXdGQE6thYiU46fALSs6iAh6vR5eXl4gEGRZRnx8/K0LyeFwOBzOTcCdyHI4nIrYJrxWXyR/6UWxbP39V9Y/1WQdVBXXDaSVmZmJWbM+R17edUydMhUhoSE1IGA1uJ1tsqbi/qv2Gwe5p06dit27d+ORR4YgKSkJjKwfOObL+vf48RPg6ekJg8GA4cOG37n8yw7p3Onydhwnb0fct7ONwyH+P6Ot3kDZMcbg5eWFrVu2YvmK5ahbtx7Gj3+24nerm4/bWW+1ib/qGMThcDi1HK5A4XD+rriYJJJMqnVLdSZWkkWCKIqVTzjL7y66m5STw3t3QjFDUC1XGFjVk2bbQqy8/NZ4GFPKzbaravu/UhFkAhOY3RkwY2A3uthzkEOWCYLIIEuyYp0k1FABlq+banL27FkYDIXO1lHu2sOtyFY+PttpLlv5VjcqV+Gt+SYZYILzezfdRtU4lf5GcIj7Br7v9j1bfQlVyOiYj/Ltvwol2qlTp7D3j70gkFq/an9y0fbDwkPx2r9ecy+/O9msf9v6GJG1rGzvVad+y+ex/GeOaZZ/70ZxLNNbjauSNIisY3X5NKqjAC3/v2M7sf12VDzdKcq3Ycf3KpPF+lnb9m3Rtl1b93E7/nYVnwwQHJ6BNYXN0KY67dVBTplkCGK5sdM2bghMdSDPRDfHV6ujCK/p8ZjD4XA4f+k9WQ6H40glC03Hz8kxYBWLDlEjOv3vEms6ioKgYhxO/wsO79+uXVuH30xw8J1SnUm640LMQU7HBaPtSBWVn7CXL0dZ+R5Jisk5E5iyMKyuksLB94RNaSNYJ9WCKNjzVVUc5eNzpdS6SRP7efPmQ5IkMDDo9XrlTVbuVV6OG8UxLoLdoohwwwokl+EdlGJVtuHyVJYvsreb6lRVlTfY2JR5NhkFh/ddxeX4/cranJv+/+2330Im+ypbab+V+yIiqdxRu8rKp5w8TLCWlUO+qKq26W7RXL792cLcQltXb0Oz/W87WngrbdsmV3mYMs6o8ctuwrmifL4dZ3kulCc1dcymShzzYFPq2F7V7cYynI8JunvmlVccONS7Opa7iuNGy8CxTbFqjke2tAW4PZZri4cJzK48Kf/9qpKqrC9wOBwO55bgFigczl8V62Rv69atWLFiBbRaLV5//Q2EhoXg+NHj+PGnn7Bt2zZcS0+H2WKGt7c3mjRugl69e2HQoEHw9/dXoiHC/n0HsH79OmzevBlZWdmQJAv0ej0S4hNwd7e7MWzYcASHKH4NnHbqrXKcOH4Csz6fBU8PT0ydNhVarRYpKSlYs2YNNm7ciMuXL8NoNEKv1yMmJgZdOnfBA4MGoVHjhre+228rCwakXUjD2rVrsWnzZpw5fRpGoxEarRbh4WHo1KkTBgwYiA4d27uOwyrDF59/geMnTqBJk8aY8NwEgIB1a9fhl19+wc5du1BWVgoGBi9vLyQnJ6PP/X1wb8971cmwZJGwdu1arFmzBvv374fBYADA4OnhgTZt2uC+++9Dnz594Onl6d7SwEGmkydPYt26ddiyZQvS0tJgsVggiiKi6kWh6913o3evXmjTro3bPMmSjA/e/wAZmZmoV7cuXn31VRCA33/fhY0bN2L79u3IyMhQgjOG6OhoJCcno1/ffmjeonkF2QoKCrBly1asWLEcy5evAAODJEt47V+vwdfXFySTqqRLSkrCuKfG3Xy9ysDGTZuwbt06HDiwH9nZ2ZAsEgRBQHhEODp26IiePXuie4/u7hcv1vKcPn06Ll68hNatW2Ps2McBABs2bMDq1T9j7969KCwsAGMMWq0WbVq3Qc9ePdG3b1+ln1RT/i2bt2Dd2nXY9fsu5OZeB5EMD70HGjdpgp4970X//gMQHhFWUblh/V1SXIo333wTFrMZ4yeMR6NGjQAAu3buwg9Ll+K337bBbDJDEEWEhYVi7Zq10HvqnfJ64fwF/LF3L/bs2Y2UlBRkXMuAxWKBVqdFcHAwWrRoiR49uqN3797QaDROfc9YZsTvv/+OFStWYPHixZCJwAB88cUX2LB+g1qvRAStVovp06crcQDYv28/5s+fDyYwdO7UGY8Oe9S9cocBxUXF2LRxE7Zv347de3ajoKAAZpMZWq0WUfXro2vXrujevRs6duioLCLdjA+SLOGDD6YgMzMTHTq0x8hRI2EsM2Lbtm3YuGEjduzcqdQtGDRaLRo2bIjOnTth0KBBiI6JrrJOt27ZirVr12L//v3IzsqGyWwCYwx6nR7xCfFo1rQZOnTsgPbt2itH2G6mrVvzJksy/vjjD2z/bTt27NyJ1NRzkGVlhR4YGIS7OnZEl+QuuP++++Hl7eWsBCiX7rp167F69WpoNCLenfwu/AP9cerkKaxduxbbtv2G8+dTYTKZoNPpEBgQiA4dO+C+++5Dt27doNHW3NTQNi4ePHQQa9esxa7fd+Hy5SuQJAkeHno0bdoUnTp1Qp8+fdCgQYNKy2/mpzNx5vQZMIHhrX+/hdDwUKfPzSYz3nvvPeTk5CIuLhYvvvgiiAi7du7CmrVrsWvXLmRnZYEJDAITEBMTg+SuyejTpw+aNWtWeUZIUejt2bMbhw8fxv79+3Hq1CkYDAZIFgkenh6Ii4tD+/bt0bdvXyQ2TXSpsJYlGRcuXMB/P/kviAjPPPMMmjVvBpAyfiz57jvs27sXJrMJgiAiObkLOnXqjH379kKWZXTp3AVDhw2tsp2RTEhLS8OMD2eACQL0eh2mT59u3xThcDgczs1DHA6n9iERZWdlU2hIKAkQyNfbl9IupDmHkYlkSaYPp39IoiCSwATauWMXff/d96QVtSRAIICRwARiYMTASKvREgOj+Lh4unL5CpWVGum9d98jvU6vhhOYoMbHwAgA+fv506EDh9zKumrlKhKZSBpRQyeOn6Ali5eQj5cPASCBCWpcoiBa5QLptDqa/flsIknJi6t4R44YSQITiUGglStWqvl2xcIFC8nP18+6H6jIraSpIQH2vDw/8XkqKy2zp+sYn0w0oP9AEiBQTHQslZWWUc97e6rf1Qgaa1nay0hgAo178ikylpkoKzOLOrTvSIK1LGz5FZgSFgCJgkh97u9DZSVlbvMtSzIZy4w058s5pNPq1PpT88ME0mq01rgFmjZ1GhnLjC7LxWK2UFLzJGJgFBsTR9dzr9P4Z8bb6waCWiciE5X3IZBep6fZX3xJsuRQPJJMk155lUQm2uWx/m1vZ4JaLg89+FCldeYOySLR5UuXqWOHjmo9agSNUgei1vpbo9Z1/34DyFBgcJK1PMldkkmv01Onjp2o2FBMDwx8QM2zyEQSBftvm/yJjRPpfOoFt/LLkkyyRJR3PY8GPTCIYG3jtrgY7HUOgIKDgmnL5i1qPZeP11BYRL4+viRAoCXfLiGT0URvvvFv0opKv9WISvvTilrq3KmzKoONcU+MI4EJSttzqCOl7dnbkACBHhnyiL3NyEQmo4k+/uhjNbzjuGFr/46v4MBgKi0pVfIhES35donaHp4c+2QllUt0+tRpSmqepJaNrZwc5bX1safGPUWlxaVuKkCRO7FJUxKYQC2TWlKRoUjts7Y8aEStOq4peWHk5elF27Zucyo/R67n5tE93e9R5bLJ6lgutj4tQKD27dqTyWh2n293WPNQXFRM458dT4I1345piYKo1j0Aat6sOZ04fqLi+OXA1A+mquX427bttOyHZeTl6aX2dZvc5ev4sdGPuR1LqsukVyapbWHTxk00838zncrP9lsjaNS+EeAXQDu27yDZIrvNl61eRUFDp1NOq+Vnw2wyU0J8QxKZSIlNEik/L5/GPjbW6dlny7MtXQZGnh6eNPebuW7bAhFR2oU0atyoMYnMPj646icCE8jby5sWLVxEkqXigCRbZPp91+9qHS9ftpyMZSZ64vEnVPlszzydVk9jHx9LS39Yqj5TWjRvUek458hbb75FsOZ90AODqvclDofD4VQJt0DhcP7K2KyvZWVvePLkydixYzvMkhn39boPDwx6AHUj68JgMOCXX3/BsmXLAACpqal46KGH0KpVK8z+cjYAoGtyVwwePBgNGjRAWVkZtm/fjvnz5/8/e+cdH0W19vHfmdnd9E4qEHqTAKFJDRA6iFJUqmADleu9CFaKBbFcrwqKXkWlKIJU6VioCoIoXTqhJpCQRgrpuzvzvH/M7GR7NqHF954vn2E3u2fOeU6Z2TnPec7zoKioCAU3CjBq1CgcO34MeoPeUQzVrFqWZbz44ovYvXs3iotL0K5tOwwfPhxNGjeBLMs4cPAAvvlmMTIy0mE2mTF5ymRkZWfh1VdfvalmmPrKVHzyyScoKS0Bg4DevXth1KhRiIqKQmFhITZu2IgVK1fCLJnw2Wef4+rVq1i5cqXNahzJpEY7Uky8r6WlYdCgQdixYyfCwmpg6NAh6NevH7wMXkhOScbixYtx4OABMDAsWDAf/v5++Omnn3D6zGkE+Adg6NBh6NOnD4KDg5GVmYml3y3Fzl92QpZl/PjTj5g8ZTLmzZvn2J+q+f4rL7+CuZ/MBQAwJuC++wZi5MiRCA0NRWFBIVauXInv134PkYmYPn06Lpy/gC/nf2m76qmOD1FUbvXZWVkYPXo0tm3bBlEQMXDgQAwYMAC1atWC2WzG/v37sXTpUlxLuwaj0Yhnn30WderEon///pqJ+n33DUStmjWh0+kw6623kJWZCYEJmDZ9GqKiomzKbdSoUZUsiw4cOIARw0cg+UoyAMDb2xujRo1Cr569EBgUiJycHPzwww9YvXo1GGPYvHkz4uPj8fPPP6Nho4Yuy5NlGRcvXcTDw4fj559/QmBAIIYMHoLEnomoEVYDBYUFWL9+PTas3wCjyYjTZ06jZ2Iift/3O6Jjoh3yIyJkZGRgwID+OHbsGBgY/Hz9MHbcWPTr1w96vR5nz57FN998g+PHjyM3NxfDhg7DipUr0a9/X4ctKJZw3YIoICUlBe+88w7eeecdEGQ0atgYPRMTUTu2Ni5duoy4uObKOVaWN5GRkVp/t2rdEr379EHbNm3g5++HrMwsLFu2DFu2boFMMlavWo3IyCjM/eRjzaKke/fumDt3LhhjmDdvHk6fPgOAMH78eLSIa2FTlr+fv7JtS7VgUbb3CJBIUq4re59Caj337t2LocOG4nr2dTAwREREYMjgIejdpzcMBi+kpaVi48ZN2LZtG0wmI7766iucPn0aO3bscGsZIZOMpHNJ6N69Ow4dPgxvLy88+OCDSOyRiKioKBQVF+G33b9h0aJFKC0rRUlJCQYPHowdO3agbTtHC65HH30UO3/ZCQYBYWGhGDPmESQmJsLH2xvFxcU4efIkft/3O/bu2YuSkhLMmTMHekMVHqkYIDABAwYMxJ49v0GGDINowID+A/DA4AcQHh6BsrJS7Nq1CytXrkR29nWcOnUKiYmJWL58OXr26llR9nj77bfw66+7YDab0LZNWwwdOhTN45qDMQEXL1zA8hUrcPDgAYAYvl78NXx8ffDZ559Vvi52EAgvPP8CTp0+DQBISEjA0KHDULdOHZjNZhw6dAjfLlmCq6lXkH/jBvr06Yv58+djzJjRTi3KRFFUfJgw5b2GtiWJQaemSUtLw4jhI7B121Z4eXmhf//+6N+vP2rWqgmj0Yg//9yPZd99h6tpV1FSWoKnn34asbF10Ku38/b09/dHRkYGwICw0DB069YNPbr3QO3YWBgMBpw4cRxffvklLl26hOLiYkyYMAEtW7ZCSzsrPgJBYAJkmUCQcf16Dl5++SV8/fXXIBCaNGmCXr16ISoyCknnkjBo0CD06d0HwUFByM3LxanTp7Bt21b07de3osbHuvXrIAoiJEnCiBEjb87Kk8PhcDjl3GUFDofz90IuX/EtLiqm5MvJlHw5mYylxltbjqcWKGbFAsV65SoqMoo2b9qsWTLIkqyt0q1bu44CA4K0FUgGRiHBIbTsu+UOlhgkEf2y8xeKqBGhWbMsmL/Qqaxr16y1WfEODAikhQsWlecplx+ZGZk0/OHh2ooqg0AHDxxymm9FFiiSSaJNGzdrq+uhIaG05NsljquXMtH2bdspJjpGq/vXi75xrLNMNGTwUG31FAC1b9ueUpKvOF0VnTB+gtXqrfLa4d4OdPL4Scf6yERvznxTs3ioGVNLWbG2y1cyS/T96jWkE/XEIFB4jXDasH6DNvZkSVZWaUlpdx9vXxKYYjHy5x9/2sooEZmNZmod31qzDGFg1KplK/p97z6bfrEchTcKqVdiL22luE/vvmQ2mR3rQ0Rx98RpK+ZZmVnlK6NO8vUUY5mR7m1/LzF1pbhf33508fxFbUxaH+fPnadOHTtp1jS9evZyeS0mdE3Q+kmAQB07dKTTp047Tbvv931Uu2ZtbUW5WdN7FGsL+/FCyhhV0onUPaE7XTh/waENiguL6ZWXXyEvvWLp5evtS1dTrtpeHxJRYUEhBQYEEgOjuOZx5O/nT6EhYfTJ3E+ptKTU+Qq51Ufnk87T1Fem0qmTp5xeAyQTffCfD0hULakiakRQZkZmeZta9dXAAQO18fLDph+ctpM1y5ct16wbJj4zsfy+Y1XH5EvJ5O/rr1kRDB0yjNKvpTsdI7/+8is1bthYsxZ44P4HHC0jrCxQrK0o+vTuo9wvnTTXmdNnKL5VvJZ24jP/cEiz/8/9Wp+2jm9N11KvObSj5cjOyqa1a9ZVepxbyz90yFDtHt64UWPa9esup9dOWmoaPfzQcPXewMjfz58uXrjotNx/v/NvG8uI0JBQWvzNYtt+sTqmvjJVs66oGVOTTEbn17wnWCxQLEd0VDRtWLfBcfzKRKUlpfT4Y49r1nRRkVGUlZnttE79+/XXrMbOJ53X8rCMX5PRRE2bNNP6VmACtW3dlg7uP2hTpiXv/Nx87b4gCiL179vfbb3mfzmf5n81n/Jy853KV3ijkDp26Kjl969n/+WQzmyS6I/f/9DuRc2a3qNci+ERtNDZ76vKgvkLlHstE6lVy1burYQkop3bd2r9GRkRRTfyb7itG4fD4XA8hytQOJxKUlZaRnNmz6GaMbW0CUa9uvVo6bdLyWQ0KQ9zN0slFSjWCpEvv/jS7YP8qJGjrczlBfrw/Q+dPqzLZmWy/tast7StEiNHjHQq69o16zTzeAECrV612kZOB7klmboldNNMoJ95+hnHdBUpUNR8ErokaP3w+X8/t2kby2H5bN7n87StEPe2v9etAkVgIsVEx9hstTDbTSpyrudQcGCwNlEIDgxWlC2WKlhMuNW8iwqLKDQkTNs242wCn5uTS6EhYQQw8tJ70b7f99nkYZHFMhH67NPPNGVDrZq1bJUdsqJkah3fWmtrby8fOnL4qPP+Ud9fSbmqbRvx9fGl7KxsBzmJyhUoelFPyZeSbetcReZ9Nk+TNSoymgryC8pls1OgyGaZjGVGiq0dq22nWLRwkdN8E7omaNsIIiMiKe1qmls5srOyKTgwmARVkbZj+w6HNBfOXyBvLx/lGvUPoPRrGeq4JAfloWyWqXOnLtq1N++zeeUZ2ShQgrTrzdvgTYcPHva88SzjQyLbyapFBkmmgvwCiq1dRx0L3nTm1BmHPGSzTP379deu6cooUBgYTXxmoqNCQSbtXsLAqFvXbhXWJfVKKoWGhJEo6MjHy4eOHjnqkKe1AkVgAtWJretceWR5K8m0ds1abSy0bNHSIc2qFas0ZdAncz9RPrT0qfUYtJxT1SEvEx0+eJgMegPpBB2FBIdQRnpG+fdS+X3YUpaxzEi9evbWFATTXplWLr9VHSwKFEs9v/ryK7eilBaXUniNcK0dtftOFbBWoAhMoEULnF+T1vImdk/UZP3ns/90qUCxKCfOJZ0rz0PtD7PRrClQLPf5E8dPuFRuyZJMFy9c1Lb3+Hr7UmZ6ZpXrLUsy7dm9Ryu/+T1xDmPDokCx/GYDoKDAYEpJTnE9jmSi/Lx8qhlTU9uOdMBaKeREDosSWmACffrJp1WuE4fD4XAc4VF4OBwPIZmQlZmNnj174YUXXkBq2lUtrOfly5fx2OOPYdCgQcjLz7sr8omCiOjoaIwbN865ma4aBaFbtwQAitl4ndhYTHl+ilNP/UxkYAJDp06d1U8IGRmZkC2RNuywtEVkZCS6d+9ulZF9QmWrwosvvghZPWft2rUoKSmpbJXx2+7f8Meff0BgAuLjW+PJ8U+WF2uJGqJGMSAChg8fDn//AJglM44cPoLk5GQ3uZOydcUKUW/rgC8kNAT3dih3StulaxfExMRYRc1Rb7HqNgdfP1/069cPpP47fPiwQ6nHjh1DQcENiIKAli1bok2bNuWm19b9o5q4P/rYY4iICAcDw9XUqzh16pTz2pCSyeDBDyC+davy7SN2UWdIBmrVron4+HgQCCUlJUhNTS1/3C9vHq3PNXkItmE5K0lpSSne/+B9NfoL8MUX8+Af6G8rq9Vhcfo6c+ZMECmm8d9+uwSyWbbNmJSTGQSAgO7duyO6puOWHGvCwsIwYOAAAAQBAtatXedQ/xdeeAFlZWUAA+bMnqM4iLVEkrGLgsFEhjFjRkOAAEEQsGr1KtsC1agzpIavZQBefPFFtG7b2rZcd1iVycBs+0z9zj/AHy1btoBMMmRZRklpiUMeTh3yeioDyrf0WY8ts9mM+V/NV+vG8NLLL7nPkwFR0VEYOnQIiGQYTSZ89NFHDucwNTS4JTrQv/71zwojrHTo0FFtYcUpMtlFX7I4aNUJOixatAg513Ns5HKIHlPFbRFEwNLvlsJoMkKSJfTq1Rvh4eHl/SaU34ctZegNevz73++q5xPmfTEP+Xn5TusJKL8LjRs3weOPP+4yDQDo9HoMHTpU+/vIkSNVq5QdtWrVwugxo51/adVub8x8Awa9F2SZsHXLVtX5toc4iTLDGMPw4cPRvHlzh7K0NAJDvXr10LJlS+VeV1qK9Ix01+VYqz2sP9PEYOjYsSOiIqMgiiJu3MgHuRnkDAyioMNzz01C7Vq1yx06OynH398f9913HwgESZKxZMm3LuU5d+4cTpw4AYEx1KhRAyOGj6jU9cvhcDgc93AFCofjCeoe/8mTn8Pe3/c6fSiSJAlbt27FnDlz7oKAygNjhw4d4O3j7TyB+sDv5aV+z4Dmcc2VCa/9Q5gVOp2oTTYks9l52VbvY+vEIjQk1LWgqhwDBgxErZiakImQmZWFo0eOuque00J//OknmM1mSLKE++8fBIOXoVwgB4UDEBoWimbNmmqRY3799Ve3BXTs0NGxglaQDHgZyqOgJPZIhCgK5RNQB+UEwcsiI4CioiKHPLdt2wZZVhQAil8Ig0M+kFW/N0QwGPSIjIwCEwSIgqjs07dOq04sBSYARBg37lHXdbLMI0nxO2Lp9/T0dKeTlFv9TJ6amoqszCwITEBISAg6d+5iVQ8nhzqWOtzbQfVfI+D8+XNa+1mjTLIBmQiDBw+uWBgGDLpvkKLMYcD+A/tt6n8j/wb++OMPCAKDj4+PrU8C+7Cz6vXVuXMXxYcDGE6ePAnJLNmUByh9qvh5EDBiZBXrQ+yVAAAgAElEQVQmPvbKJpS/MkEJvx0QEAAGAZIkKZNv+zJutmOdnH/s2DGkXL0Cxhhq1aql+dVxhyAKmDRpkho2nLBjxw6YJat7kMV3jEVZBKB9+/bl9zM7JRag3Cf9/HwhCCKICEVFxZryz0Lv3r1xzz33wCyb8ddffyEhIQHr1q3DtbRrtpPcm4awY8dORbUnCBg79hGPQuG2b98e8S3jAQAFBQXYs2ePQz21EojQsWMHW/8xTooQBEHzoQMAaalpla2MU3r06FEe4twVBDRq2Aj+/n5gDMjMykR+fr7TpAzMMYS7lUIVAJgaJu6JJ55w2iaWMi2Rdazly87Kdi2nE8UcWYe3FpQxa/AywCyZUVhYiKKiYtfZMYbgoCC89NJL5Qo5+0MtV2ACpk+bDn8/f4AIixcvRlZWlmPdGPDjjz+iuKQYBKBbt25Vjw7F4XA4HKdwJ7Icjieok9+tW7aqc1LBZvXdgiAI+PbbbzHrrVl3XERZltGsaTOP0xOR8sBsPde8iYcsS3M0atQYol5UnLK6mQzodCKaNmuK9Ix0kEw4feY0OnXp5Hl5EuGvvxSlC4Ew/6v5WPbdMkiy5PIcnahTygNBZCKys6+7KwGxsbHKg62HzvcaNWrk+ktV8VERe/bsBQODWTbj22+/xapVq5TQvaIy5pgWQ1oRyqDXIyUlBUQyZJJhNJpc5m0wGNC4sRsZXaBZ0lhD2n+3jMKCQpjMivyhIaHw9fXx6LxatWuDiGCWzMjKzEL29WxERUc5pLNYqbRq2cqjfNvf2x6Cus5w7do1m3GQk5ODwsIiyLIMY5kRiYmJkCQJRASdqIMgCJBkSbUqkTUFj0V5ZzQaUVZaBl9/X3spwcAQHl4DTZs0rfw1yQCTyYQjR47gp59+RnLyZaSmpqGg4AauXUuH0WhEYWEBCDIEQW8xzrGTALeua9WJ6sEDBwEQRFGPuBZxHofKjYuLQ40aNZCVlYXU1FQkJyejQcMGTopR+jYsLKzCNiMiCAKDJGn6RZtzvLy9sGTJUrRt2wYyyThz5gyGPTQM/n7+eOihh/DWW2+jVu2aHsnvjry8PJxLSgIA+Pr4IqFrgoMsDshKXVu0bIG/jv0FADh18hTuG3Sf8+Qku78vqRDJkCRZu7/ITn7fqkLr1q09GsOBQYHw9vaGTDJKS0tRVmascpmMAQa9lxYG3HkilI9xrark9vfDQkFhAbZt245du35FZmYm0tPTkZ+fj4z0DAiiiMyMDM3Syl7XY09cXBz8/f09qBRQp14djBgxAosWLcKNGzfwxRdf4LXXX7NpX1mS8eGHH6pKOYYZM2aUKwi5EoXD4XBuCVyBwuF4AgF5efnIc7EqpiRRHr6yMrNQVlpWvqp1hx5aiAh+fn4ePygRkbJSf4vt0CwPg56spIaFhUGSJAiC4HLF0RVEhMKCQnV1GriWka4+E3v24C+TDJPR/UO6t486gfewDy2T/5vBbDZBlmUwMKSlpWmr79a1EiyrsKpcpPizUt8719IQEUSdqIzLavowbbEcUWTV2UbacIO3lxciIiKQmZkJmWSYTWaXddTpdQgICPAo3wD/AOh0OpjMJhTcKEBRUTH8/Hwhy6RZQhAAs2TG5cvJIJI9Hn9Go9F5WlJW2QMDA6HzJKqLuorOBGDxN4vx1Vdf4eyZs8jJzYW9FoRB2Q4iyTJEJtqMm9uJsj1C3SpkuU95iCAKCA4KRmZmJhhjMJlcX2NEBIPe4PJ7+7SWLVPOiG/dCpcuXcKihYsw74t5yM7KRlFRMb5Z/A2WLVuGJk2aYODAgZg8eQoiIsIVJWNlrikZMJnMMJqMYIxBFEXoDYaKr011e1ZUVBQIBJLVtnVxHgOzsZLzWDwPFAkVwcAQHBzsUVq9Xg8vg5eiPDabkZ+f57D9zFOICIIoVmz54kReB+sWlZzrOXj33X/jxx9/QPLlZBSXFkNgFqW2co5sde8VPPxh9fX0WlDFGjduHL7++msAwJrv1+C116wUKASsWbMG165dA2MM3bt3R3x8vM35HA6Hw7l5uAKFw/EEAnx9feDv7+fGtFiAwBgCgwLLH1jvxkNLdXlQ8lSR4/CmEqj5C2AYMmQIGjduDMnJ9g2npzElrGZ1xLLNY8jQIWhQv4FHk3IGBplkNGzY0EWeajorxUt1xVMlhAbT/nN7PmMCZFm23QbisUyuv/Hz88fjjz8OHx8fzf9NeZm27W1xD2LwMijbsxyErLRoAAiPjnscS5cugUwyfLx9EBfXHG3atEHduvXQsEEDBAUFwdfPF95e3vjnv/6JY38pYZfvCDero7kNYiqTXheCqR/HxsZi5qyZePHFF7FkyRJs3rwZ+w/sR25OLo6fOI7jJ47jyy++xFtvv4WJEyfahEWvmkyoRF3LE4qiWO2vabfYdANz8llVuQWNQsCpU6cxdOgQnDt3DgAQGhqKdu3boVWreNSqVRP16zeAn68vfP18QUQY/MBg3Ci8cfNlO6FTp05ofk9znDh5AqdPn8aff/6JDh07KF8yYNXKVZpScOwjY//e44LD4XCqKVyBwuF4iJe3F+Lj4/Hbb785+FhgTDHXlUhC3z59y7d9/A+SmZFRcd1V5UpGegagrqIGBQVVriAGzeRbgIDhI0Zg+PDhYH9zz056vV55w4CHH34YI0eNvKvyEFyv0t9qRJ1Oc6JqNpsgSZ6tghcXl+B6tuK7QCfq4OPjausPwWQ2IysrC/Ub1HedoTo+s69nw2Q2gUAIDAiAn7rdRhCZ6rxUcQLp6+OLV199DRER4eV5VHbiQpZJfSVPZMAH73+ApUuXKJY7gohNmzYhoWuCrU8gSzEyITS04m0uN4O9TxEACAkOURQ2jFXKQajZZEZeXr5miaX30MLkprDoVtRX/0B/THx2Ip555hkUlxRj4cKFePPNWcjJvY4bBTcwZcoUnD9/AR/P/cjzMgTAz88PgYGByM3NhdlsRnFxMfz83VgkWPl2uZaWpllM6HS38FFO1fC5ssSoVFYgZGVmeZS2rKwMJSUlEBiDl5cXAgID7v7kX23r8U8+iaRzylarrp27YvMPmxEUHOR0kaCkuBSiWO437FajN+ixcNFCdOrUCZIs4dFxj+LU6VPKlkGzhB07dyhWR95eGDxkyG2RgcPhcP7X+ZtPNTicO4SqEPnoo49U02mrr5igme42qNcAM2fOvBsSVhsuXLyoRCZxBwOKCotw4uQJxQwahOZxcZUqRxAExMXFKc5RAezYsf1vrzwBFJ8BFn8ZW7ZsUR7S7Z2SOuP/gcIuNCQEvr6+YIwhLy/Po4k2yUBKSjIkWdkKFhISgsDAIKeTL5lkiEzA/j/3u89UnTjv3btXmaCKOsTUjLGxLgkNDYVBr4csSygsKkR2tjpRrKqD0Sr2X35ePmbNegsgQK/TY8XyFejVq5dT5QkASGYJ+fl5NtsNbgtWk30mMLRr305TjJ08cRJlpRXcI1SOHDmiOMsEUDOmJurUqXP7ZLbGiW8UJjL4+fth0nOTcPbMGbz+2utgjEGSJHz33VKkp7mJ4OIEPz9fNGnSBIwxFBcXY89vezyTCcCx48e0z+Li4qrt9X/kaMXOwQmE3JxclJSWAqoCxc/X821etw0GJJ1JwqFDhyBAgJfBC98s/kZRnqjf20BAQcENlJSUVN6KzlMIaNOmLZo1awYiwtlzZ3H06F8gInw4+0Pk5eUDDHj55ZcRHFLJRQkOh8PheMT/g+kGh3OHYEB863j8+uuv6N2zF2rUqAG9Tg+DwYCYqBgMGzYMBw4eQL169e62pHeVq1eu4Pr1HFsnfRasnPatW7cO169fBwiIiYlBq1YtK1cQAwYMGACAgUD4/vs1ikWLp8+thKpPdm8jffv2hV6nhyRJ+PWXX5GXl+fU0eddR12lVprQOixF1bOMio5Cndg6kElGbm4edmzf4cFZhH37/gBB8enTuElj6HSiUzmYOlY2btoEWZLdymoymbB582bNOW3Xrgk2q/IhISG4914lhHVpaSlmz55d7lPIk766RWMvJycHRcWFAFMccQ4eMgSyJSyvkwlebl6u4lvHnZCqDwkAN7+SrtaxaZOmaHaP4uQ67VoaNm7Y6NG5n/33M02O3n16Q6e/uW0yt4oa4TUwbdo0NG3aFIASUeuGp5Y1Vv2uRYRiwLdLvnXYAuZ4KmHv3r04fvwEAAY/P3907dq1+t0fVHbv3oXS4lLlDxe/B4wxHD9+HIWFBZBlCeHh4QgMCryjcrri6F9HYTKbQSC0bt3aqQNja3788SeUGT1TDlYJpiwePPLII5q13u5du1BYWIiPP/oYAmMICQ7BpEmTqt1vG4fD4fx/gStQOJxK0rBRQ2zZsgVJSeeQdC4JSeeScOLkSaxYuRIhoSHlV1U1faC93dwouIGVK1cof7gIHylJEj7+6GNl4s2A0aNGw9vbRfhlN/To3gPxrZSIKvl5eXjppZe1Mpxiv+hehR0Tt5v27dtrK5wpV1LwzjvvwLLNySXW0STuxEOzWkZISAgssqWkXLnp9tTpdXjjjTfA1Ito4sSJSlhRF3WSzBJKS0sxa9ab2naGsWPHunToaVGAHDhwACkpKS5lJYmQkpyCnTt3QhSUCfugQffZpmfABx9+oChuSMbKFSvLLYbcoIU9vUXjzrJ9EASUlJQAINfbLxiwaOEiNdS1awGYyBAWFqqEygYhIzND2cZV1bGlTvomTpyoOD4lwvsfvA+T0eQ2z7TUNGz+YTMAZevCpEmTFMVXdYAB3j7eqFGjhrqVS3QercrFuRYGDx6sbjlj2L59O65eueryNJIJkiTh1RmvwnKx/+MfEyu//fEOkpaWhvkL5jv9jqj8vjZ12lSQTBAEAcOGDvMsMs0dQFESK86hc3Jy4M5wq6ioGP/5z3uaD6vbBhGee24ywsPDodfr8d133+HUqVO4nnMdEklo07ZNtR4THA6H83eHK1A4nCog6AQEhwShTt06qFW7FkJCgiGI1WwmfkvxvG4mswnTp0/H3I/nKh/YhUnOyMjAyBEjceTIEW3709hxY6sklcHLgHf//a5mBbFixQqMGTNGc/bngABcz76OtWvWYs2aNdVyhS40LBSff/45DKoj4g9nf4iJEyciNTXVMbEqf3p6OlatXIUlS5Y66arbUEmmTH6aN2+ulkCYMWMGSiwrzTfB0AeHYuDAASCSUVxSjCGDh+DkyZNOq3H2bBISExOVEMNQnAKPHTvOufWTFQUFN3D/oPux/w/nW3l27NyBDh07qqb4QPt27dGlSxeHPJs3b47xT4wHA0NJaQmeeOJJLFiwwO0WtlOnTuODDz7E+XPnHRQyVSEqKgqRkZEgKAqU8ePHo6iw0CFdaUkpZr05C6+/8boa1cm9IqJJkyaQofhUmfvxXEXpcjO3OAaMHDkK9evWBwg4evQoHn74YSQnJztNvnvXbnTv0QPXc66DAeiZ2BNxzeM8V1K4wcGlj93fu3f9ho8/+hiXL152m8/G9Rtx+PARAAwBgQEIroIfpyZNmuDZZ/8JEKGoqAidu3TGlp+2OE2emZmJceMexZ69eyAwAQH+AZgwfkK1UwLbCzRr1iwsX7bcwacRExgKCgoxetRonD59Bowx1KpVG1OnTatSnW7HtpkePXrA18cXAhNw4cJFrFyxwum95dSJUxg+/GEkJSVBgHB7f1oY4O3jhX/84x8wmow4feY0PvvvZzCbzRCZiOeem/z3dyzM4XA41RjuRJbDuRXcpWg7VXPuSVr4RU8RBAZZVsPpkgzAtRl9fKvWOHXqJKZMeR5fffkVhj04DB06dIDABOzavRtLvv0W1zKuKY7u9F746OOP0KJlC8/n+XaTzn79+2HO7Nl49dVXUVxSjOXLl2Pjxk3o0qUz2rVrh9jYWOTn5+PixYs49tcxHD9xHEWFRXj0sUfx4EMPWjeL6utGWXVXjWMUBZCzORtZXjxvR7I6D4DL1fQHH3oQZ8+exdtvvY2SshJ8+dWXWPzNYgwYOACtWrVCTEwMMjMykZySgqNHj+D48eMwGo0YPXo0xo59xLaNCBVuC3CGJQy1q6HNBIYnn3wSixcvhtFoxK7dv6Jfv76YOHEiIiIicPVqKvLz8jBp8qRKlz1v3jzcf/8DOHHiOPbu24s2bdpi2LCh6Ne3H6Kio5GWmorNP2zGuvXrNB84derUwVdffgW9JfSvE8GJCIGBgWjatBkOHNiPxJ6J6NOnD/r27Yv69esjLy8PK1euwsaNGxXnxIyhQf362LFjB/QGveMYZcDsObORdC4Je/fuRVZWJp566im8/vrrGNB/AFq0bAGDwQvp6deQkpKCvXv34tKlSyAitG/fDg0bNbSRlUhZgSd3ViR2ePt449NPP8WY0WNgNBuxdMlSHD9+HBMnTkSjRo1QUFCA3bt2Y8WKFUhNS0V0dDQGDhyIBQsXWgq1tYhR348ZPQbv/fs9FBcX46/jf6Fjx0547bXXUK9eXeTm5mLvnr1499/vwtvHieWYJT+7azWsRij27N2Lrl27IDk5GRs2bsCvv/yKBx98EH379UNgQAAuXb6ETZs2YceOHTCblWhJHTt2xPoN65U+cNKnshbC29OwzKSKxMpllctlTktLw5Tnp2DK81PQqWMndOvWDe3bt0dwcDCICCdOnMDaNWux9/ffIZMEH28f/GPiP1AjooYHZdvCBIb33nsPly5dxOrvVyM1NRUDBw5EQrcEDBs2DI0bN0FhYQF2bN+BNWvWIOt6FhgYQkJCsHz5ctRv6NwZMqkVExjT7mce/U6p4+5mHEdbhq5er0e3bt2w69ddGDNmDD755FPcf/8gtGvXDsXFxdi1azeWL1uGjKxMAAQ/Xz/MmTMbgUGuw4yT+vtVXpjNl0ClrT/c1zM8Ihy9evZSLaEI4x4dhw0bN+DRcY9Cp9cjIyMdP2z+Aes3bEBZWSkGDhyI3Nxc/P777+Xt7gQtzDFpPyQeP0cwxkAy8PBDD+Ptt99GUXERvlv2HQRBQHyreNw3aKBnGXE4HA6nahCHw6l+SERZmVkUXiOcBAgU4BdAly9ddkxmkuiD9z8gAMTA6J233qkw64XzF2rpH3v0sQrT/7LzF2JgxMCoa5euZDaZHWRdt2YdMQjEwOjVGa/SwgULydvLmwCQwAQSmEiiIGrlChDIz8ePvl/1PZHsug3GPjKWBCYSg0BrVq9xKaMsybTr113UoF4DtTzlEJlIAgS13PLPGRg98/QzDuXJkkz3D7pfk/OXHb+4lk9Wzhk0cJDWPt+vdlMfmUgyy/TImLFa+i8+/8JpOlmSSTJLtHPHTgoNCSVREJV2Y4JNfQCo3ymfT/rXJNvy1bxaxrUkBkbeBm9KSU5x2Y6WOpFM1LVLV2JgBIC2btnqmFYiMhlN9Pzk57W+t8ioE3QkMJF6JvZyXZY7ZKKc7Bx6ZMwjNn1m6VOo+xcEprTBQw8+RDnXc9y2fbeEbgQw8vfzp9ycXLp/0P2KrKLOpj2VQ6lLh/Yd6Fpaennb2LeVSllJGb3x+hvk6+2rtRkD0/rNcgDQ+m/Pb3sdxCwsKCJ/X38SIFCD+g08biuSiF6Y8oJVWQLBMl5YuQxNGjehy5cuU9KZJBKYSAITlTHurF4y0fJly23kF5hAelGvtVtuTq522ndLvtP646kJT2njyJm8WRlZNHDAQKt7gqC2uaC1PwDSiTqa9K9JdCP/BsmSk8wkImOZke5p1lyT8ezpsxW2V052Dul1ehIgUFhojfJ6q0V8v3qNzXhQxrNAoqC0mfX4E5hA8z6fR7LZ1eDzAImotLiUPprzEXkZvLV+sx6LlvEDgFq1aEWnTp5ym+U7b7+jjcMP3v+gYhHMEk2fNkMbF1NfmVrl6rz04kvEwCg0JIzSr6XTnNlzbOqgE3VKW0LQxkBYaBgdPnTYph/s6d2rDwnqffxc0jmHdGaTmZo0akIMjPx8/CgzI9O9oOr9sXPHztq1uX3bdodkmRmZFN8yXmtPZnVtWfqEgdEjY8ZSUWERTZ86nQBQcFAwFRUW2cko0R+//6HVo3/f/q7vWxUgmSUaOGCgzXhcuGBh1TLjcDgcjsdwCxQOpzrCAF8fX4wbOw4FhQXw9vZGQIDjqhwTGOLj4zFh/AQIgoDWbdpUmHWTJk3w1PinAMbQuVOnCtNHR0fjqQlPgUBo2LAhBMG9E8ecnBy89fZbSEhIwA8//Ijff9+Ls2eTYDSWQa83oFnTpuiakIAHHrgfderWcbsA2KNHInx9fQGCktYFTGDo1q0bjhw9ip9++hG///47Tp08haupV1XHoUBkRARq1qqJVq1aoWOHjmjbrq3tqh9TVqT79euHmOgYgAExNWNcC6ee16dvH8TUrAkAaNSokdv0jDH0TFTrBCiWNy7qw8CQ2DMRFy5cwLZt2/HLLztx9uxZXEu7pvqRAGJiolG7dixatWqJzp07o2Onjo4yEjB4yBB06tQJer2+Yt8C6ir8Aw88gLjmcZBJRmxsrOMKqQDoBB1mz5mNPn36YPX3q3H8+HHk5+dDp9OhQYOG6Nevr/uy3MgQEhaCJUuXYMqUKfjxxx+xf/9+XLp0STFTF0U0bdIUcS1aoHfv3ujatYtHq7cCGMxmMwoLCrFx40Zs2bIFW37eguMnjiM1NRVEhLCwMLRq1Qo9e/bEfQPvUywsXK0Oq2PX4GXAzJkzMXrUaGzdtg0HDhxAUlIS8nJzAQZ4GbxQu3Zt1KpVC506d0Lnzp3RsEFDh+x0OhGPPvYYzGYTwsLCPG4rMODDOR9i8JDBWLVyFU6eOqmNk5DgEDRt2hQJ3RIwdOhQxU8TAS+88ALy8/MRGRXpMt+Ro0aiZkxNrFm7FocPH0JmRiZEUUTt2rXRtFlT+Pr4askbNmqI8U+OhyAI6Ny5s+sNwkxxwLphwwb8se8P/PDDDzhy9AguX04GQPAyeKFxkyZo27YN+vTpg9atW0MQXWSm+lYZMWI40tLSAKA8QoobvLy88OST40EkO70ehg0bij/+2Ic9v+3BwUOHkJp6FZmZmQCU8iIjI1G3bl106NAR9903ELVq1aq6FaJq+ebl7YXJUyZjyJAh2LhxI/bu3YtTp07BaDRCFEXUqVMH99zTHN26JWBA/wEweBlAsmqp5KTsNm3aqL8LohKlpwIEJuDee+/FhAnKlrROHvw2uKJ9u/aYMGECatWqjYjwCEx5fgq6d++BHzZvxuEjh3H2zFnIsgwfXx+0iGuBhIQEDB4yGBEREW633903cCAaNFC2gAU5ibTFGMOwB4chNycXOr3eTThzq3PAMGToUMS1aAHGGGrXjnVIEx4Rjj1792DNmjXYvn07Tp8+jYKCQjAGxNaORfO4OAwadB969uoJABgydAiu51yHXm9wCDEtCAyRUZGY8NQEAMA999xT5bEjCALmzJmD7du3w2QyQa/Xo1fPXsqXt9DPEofD4XBsYUQ3YafJ4XBuL05M612lI3L9MO00X2sqc459WhlYv349hj34IADC0089jXlfznOfj6cPdtZyVvZh0Jm89mW7k8WydaeCdnf4rrIPrlVpDwezdTd5uNqC5GlZlrwrkpMqkbYqeNKfbs7t3r079uzZA51Oj6Sks+UKOft8Pb3mXMloPwFkdp9b521dLpStVpatU1XCch+wzsNZfcjqvafXvqdtUtn2u9mx4uwJpir3Cpt+AJigbLETRMH9faOi6+9WUtly7cejp/3m7O+q4ixfiyyVbTv7e5mrsc2cpPVUVlfyWK4ZV3k6u/bsZbyVkOKM/eWXX8ZHH30EQRAwfPgILFv+XdXv+RwOh8PxCH6L5XCqK5Y9+Z48ZDKr/fwVQJZ8LXlW8HBn4z/Doz30UGS3loWsXqsyuamMmte6vezLsvxtL5+r861fneHsO3fKFk/zcFeeszq5y6Oqd3kG27w97Xtn3Co1vWVs3WK0dQTra6MqWE/g7K9dZ5NfGyGg+T2RJapym1kmcNp1a68wIUtxShnuoorYy2fz6lIAu/Iqi9X17pFs9uO0KthbMqiKU4vDWrL4ibHqT5KpfCzeLuWJO0V3RXW2V+JVJCNz7ZOp0ri73zu7NjzF/l5m3x7WY7yS9z2qqC+dtaHdNcEEJ7/B9sojV9dPZZpezSMrMwuffaaE+fb19cMnc+feunsth8PhcFzCt/BwONWVyoZD9jSCZiXz1VbUPH7QZeWWG06+qhRVmRh5kt6TtrrVk6I7YZFxO/B0Imw/mXH1XVXLt+Rh3Xc3W3c1b83ppLsJmqdYn+NK1goUb1WO6GV1ms1KuJOyLcqaylzWHp9QGasWN2OFVVb5dyuvBVdt6eazW86tUOZVAs3a5laUbZ+Hs3xv1z22Ckp6j8aas7F6swp3C56OdfW6IZmwdt06lBmViF8dO3ZEWI2w22fxwuFwOBwNrkDhcDi3FG211hr+QHfruVNterf77haV73S36t2u2/8yvO1vPzerALyVVOf+vsOKqptClfXixUuYMWM6AMCgN2DatGnlFjDVua05HA7n/wF8Cw+Hw7mlkMd7AjicO4jqo4CchbrlEw733E6rAc7/Jv+fxtFtrsv1rOsoLS4FAOTm5OHDDz5E165dcOPGDTAwTJw4EYmJPe6ILBwOh8PhFigcDucWI8tcgcKpfpQrTbiTAA6H8zdA9Zky95O5+O9//wu9Xo+SkhIUFRUDIAhMQNduXTFjxgyuOOFwOJw7CLdA4XA4Nw1jDDpRhCiKEJjA56icaocgChAFZYwyPtvgcDjVHQbtKb20tBQ5ObkoKy2DIAgIDQ3FO+++i507diI8IvyuisnhcDj/a/AwxhwOp+qo+61zrufg7NkkAEBkZATq16+vfM/nqZzqAAEnjp9AQWEBAIa2bdvA4GW421JxOBxOheTl5CE5JRnFRcUAA7y9vVGvbj0EhwZznyccDodzF+AKFA6Hc3M4e4DjD3Wc6gQfjxwO5/8b/L7G4XA4dwWuQOFwOIXmU7oAAB6wSURBVBwOh8PhcDgcDofDqQDuA4XD4XA4HA6Hw+FwOBwOpwK4AoXD4XA4HA6Hw+FwOBwOpwK4AoXD4XA4HA6Hw+FwOBwOpwK4AoXD4XA4HA6Hw+FwOBwOpwK4AoXD4XA4HA6Hw+FwOBwOpwK4AoXD4XA4HA6Hw+FwOBwOpwJ0d1sADofDuRucSzqHX375BQBDy5Yt0LFTx7stEofD4XA4HA6Hw6nGcAUKh8P5n8NskrBv3z5MfGYiZMiY8OQErkDhcDgcDofD4XA4buFbeDgczv8cOp0Ig8EAAGBgEHXiXZaIw+FwOBwOh8PhVHe4AoXD4fzvwWxfie68CJJZwp/7/sTRI0cBgnJwOBwOh8PhcDicagvfwsPh/B0hlCsBqhPVTS4P5bnTIpNMOHnyJLp07YJGjRrj9JlTd1gCDofD4XA4HA6HU1m4BQqH83eB7F5vNp9biazkS7fKlMNdNp4WQXBt2aHKapGXMebwvUMet6Jqaj6MMfz222+QZAkGg/6mspQlWZONZFL6wgMZPP68Iuzbyv7zqsAtcjgcDofD4XA41RCuQOFwqiv2ChPrbSc3YzJh2bZiPdGuaNLtCotsAlzLVJWJsCUv64m0fTtUJJfdNh2PyrMux5KHdT43O6ln5cfy5cvBboHtiyAKmoxMYEpfuJGT7K1yrNu4KuLYj0vrvKrSXrIT+TgcDofD4XA4nGoA38LD4VRzCgsKkX39Og4fPoTMjEwUFhXCx8cH4TXC0aZtGwQEBCAkJERxiupuAkxAfn4+UlNTcfDAQeTk5IAJDBERkbj33vaIjIiEf6B/xdte1AltQUEh8vPzcOXKVZxLSkJJSQn0BgNCQ0PQokULREREICAwoPwcJ3lmZ2WjqKgY3t7eiIyKAFRjiqysTBw+dBgXLlyAWZIQFBSIvn37IqZmjFORiguLkZObg9OnT+PC+QsoLimGn58fwsPD0SKuBcJqhCE4OFhRNtjBwBTLDQCQgby8PKSlpeHgwYMoLSuFwATUqVMHTZs1RVhYGHz9fKu2VUm1esnNzcXPP/+MP/74AwBgMpmQkpxSbkWivgkLqwH/AD/t9Iz0DJSWlsLHxwcRkRGKuBIhMzMTR44cxoXzF2CWzAgNCcV9g+5DWFiYo4wEFBUVIi0tDYcOHkJ6RgZEQUB4eDjatmuLyMgoBAUHltfPVT2tvs/NzUNWZib+3P8nrl/PAWNAdHQ02rRpg6ioKPgHuBlTVvnk5eUhKysbf/11FJmZWSgrK4W3lzeioqLQokULBAUHISQ4BDq9rnptE+NwOBwOh8Ph/O9AHA6n+iETlZWW0Qfvf0iNGzYmXx8/EphAAhNJFETS6/QkMIG8vbypRlg4tW3dlpZ8u0Q71zofkolks0zvvvMu1Y2tS95e3gSAREEkgYmkE3Tk6+NLTZs0U/KQ7fKwzouIziedpwnjJ1Cjho0pwC+ADDqDKpOBBAgkQCBfH19q3Kgxfb3wa5f5yZJMYx8ZSz7ePpTQNUH5zCzTSy++RBHhkQSABCaQyEQSmEA7tu9w2lRLvl1CDeo3pKDAINKJSrswMBKZSADI18ePYqJj6PvV39vUZdl3y4iBEQOjZ55+hooLi2n8E+MpKiKKvL28SRREEpmo5CWIFOAfSE0aN6Gff/q5cn1pVeYLU16gmKgY0gk6rWyBCeTr40e+Pr7k5+tHvt6+5O/rT18v+trm9N49e5Ofjx/169tPy++5fz1HYaE1lLEBQcvz2F/HnIow7/N51LhRY/Lz9bdpW4GJ5OPtQw0bNKQ5s+eQZJaUcSPJbsfCe+++Rw3qNyBfb18S1bEkCjoS1fyaNWlG33y9uHwMOBmbJUUlNG3qNIqtHUs+3j6aPMqrUidvL2+KjoqmTh060daft1at/TkcDofD4XA4nJuEW6BwONUQs9mMKVOm4Kuv5kOSzBAEAQ0bNkR0dDQEQUBxcQmupaUhIyMD2dezUFRUhMaNGzuu9DOgtKQUo0aNwoYNGwAAOp0OzZo2Q1RkFCRJwsVLF5GamoozZ8/g8cefwNkzZzHzzZmOoX2Z4m/j9Tdex7LlyyAwAYwxREVFoU5sHXj7eKOkuASnz5xGfn4+zp07j6efeRqiToex4x5xUksGk8mEsrIyXL2aivy8fDz+2ONYv2E9GGPw9/NHeHg4ysrKUFhYiMaNbOtnLDPi2WefxaKFizSrDYPegHr16iLAPwD5N24gMzMDRYVFKPX2QtcuXW2Lp/LsysrK0K9/P/y25zfoRB1iomNQq3Zt6HQiCgoKcObMGRQU3sC5c4UYMmQo5s37HI899lilLSHOnj2LGjVqwD/AH+fOnQMA6PV6NGhQH4KgWMcQAbIsISAg0E5WQllZGdLT01FaUorhw4dj0+bNEBiDn58fIsIjUFxSDJIJjRo10s6zyPjUhKewYMECAIAo6hAbWwf16taFTDKuXLmC5OQUXLhwAS+++CIuXLiA2R/OhpePl9N6FBeXYOzYsVi3bq1Wh0aNGiE6OhqSLOHypcu4mnoVZ86ewfjxT+LcuSTMnPkmdHqrMUVAUXERxo0bh/Xr10MmGXpRj+bNmyMsLAyMMZSWlCI5ORlZWVlIT09HSUkpGlrqxuFwOBwOh8Ph3GnutgaHw+HYIksyrVuzjqBaJ0RHRdPO7Tsd05llSrmcQlNfmUrjxj7qNC9TmYm6d+uhWZyEhYTRti3bSDbLmgWAZJLo/f+8Tz7ePgTVguGTjz9xIRxRVmY2RUZE0uOPPUHHjjpaOtzIv0Hdu3XXLByCA4MpLzfPaT1HjhhJACg0OJRefOFFEphIfj5+9OqMV8lYZtLSlpaUkWSSbOo+8emJJDBBq9v4J8dTWmqajaxlpWW0dMlS+uez/7Q5n2Si5d8t16xcGBgBoIb1G9LuXbttZJQlmc4nnaeOHTpqdaobW5eKCouIJHJuoVEBV5KvqBZAAsW3jK/4BJmoZ2JPEplIDRs0pFdefoUYGAUHBtNbs96mgvwCm7bSkIjMJjMNf3iEZp0S6B9Iq1auUmRX5TebzLTgqwXk5+tPAEgn6mja1OlO5ZDMEnVP6K5ZvETUiKAtP2+hMqtyJbNEH77/Ifl4+2hWNnNmz3HI7uOPPiaBCaTX6alJ46Z05PARpT2l8kOWZDp54iRNfOYfNPm5yYpVDIfD4XA4HA6HcxfgChQOpzqhzg2nvTLNEq+Fli5Zavu9Zf6oTn5lSSaztXLAih9/+FGbqNerW49SLqc4TvrVPBfMX0BMnRQ3adzERh57+a5nX9feO5vQlhSVUFzzOG1Lz5rv1zjkZ61AsWyTCQ0OpUMHD2l5SibJYeuHbJZp44ZNmtLDz9ePdu7YSWaT2XNlhrqFx6JAESBQm/g2dD2rvF72bZ2RnkGBAUHEwEgn6ujXnb96WJgjZ06dUdqGCRTfynMFisAEbWtRndi6dOrk6XJZpfK01ucd2H+QvAxeJECgqMhoOnnipEslxLq160kn6kgn6ig6MtpW6aSy5ectpNfpSSfoKLZ2Hbp4/qJTeUkiWrTwa03p1KhBI4f+GTZkmNb327dttx3b9odMZDKaiMPhcDgcDofDuVvwKDwcTnVC3W4hyZIaoUVxOgoZioNVS5hgghb5hjEG0YlzVMjAf977D2RZhiAIePPNN1Grdi3nEXMYMGbMGMTG1gYAXDh/AZs2bnIpX2hYKMAAksg2BLCq9jF4GdC/f39law0DMjMz3TpeZYzB398fW7dtRZu2bZRoMgQIOsEh6hATGFauWAGBCRCYgFGjRiGxZ2L5liNnIXDdRqUhGLwMWPztYoTWCHUe7UgAIsIjMH78kwAAWZbx408/KvlWIYKRTDLAmGP45ApQtvfI8Pb2xvr169DsnqblslqGgN0WrtmzZ8NoNAIMmDx5Mu5pfo/SvvZ5y4TBDzyAVq1awSyZkZ6Rjk8++cQh3Xv/fg8mswkEwltvzUK9+vXUDGDb9gwYNWokateuDYkkXLx4EevWrrMt0/KPFKfEsqw2puDkYFAcyPKoPBwOh8PhcDicuwRXoHA41QzZLKN58+YQBEVB8Morr2DLli2QZEmJFuMsjLHd35JZxsVLF7H7t91gjCE2NhajR42G2WSGyWh3qJ+Jog6DHxgMQJnYrl69ukIfH0xkDhN2ywQ3JkaJmCOTjJycHJcTX52og0wyOnXqhFat4qEK4KZQYOcvv0AiCUSE8ePHO7ZFBe1jjSCIaNasGeJaxLkvmwGdOnXS/rx27drNh5SuNIpwnbt0Rnzr+ApTZ2dlY/36dWBgCAwMwqRJ/3Lsf6MZslkGyQQiwqPjHgUDgyiKWLN2jU17XLp4Cbt271b8xMTE4JFHHlHOk0h5tRyqok8n6jB4sDKmGGNYt95WgdK+XXvVlw7w5BNPYP/+/TCbzOVKKWd9wSPwcDgcDofD4XDuEtyJLIdTzRAEAcMfHo5NGzfh+7Xfo7S0FIPuvx/33HMPRowYjieffBKRUZHlJziZUBLJ2Ldvn+aY1N/fHytXrYTRaHRr9VBSUqJaBBAuXrxYsbAE5OTkIjs7CznXc5Cbl4vr2ddRUlqCP//cr4qnludCXSvLMkQmon//AeVORt1Mks+ePovMzAwITEBERATi41tXLKcbJNmsOKhV6+My3C5ZWQABykS/AllvNQSCTtBh4sSJHqU/duwYysqMYAwIDQ3F+nXrYTQZHdJZ+ogJDJmZmSAQzJIZly5dhslkgt6gBwD8+eefIJIBiAgODsaKFSthNpncylBSUgKBCZBlGadPn7auDJ555hls2boFu3bvQm5eLnr27InmzeMwbtxYjBw5EuHh4VULGc3hcDgcDofD4dwGuAKFw6luCIC3jzfmL1iA6JhofL/6e6RnpOP48WM4fvwYZs2ahZ49e2L06NFITExEzVo1HbLQ6XXKRFid8B87fkyxFkDFc1EGBiKCyaIgsKDqDoqLi7F16zb89NOP2LdvHy5cuIDikmIIzFZDQqRs7yGiciWKE4gUq5qGDRtU1DIAgJSUFEiyBFEQUbdOXXgZDNbCVxoGhpDQEI/Ot1Y+OdsG43GZTACRDMYqbwTIBIYWLVpUqFiQzTJSUlIAdYvMpUsX1TFQ8R4YBgEEGfYmIJmZmQAASZJw4sQJPPLIGE+lVmSSZJuPQsJCsHrVarz08kvYtGkTcnJzcPDQARw8dAAzps9Anz59MGbMGCR0S0B4RLhyHleocDgcDofD4XDuEnwLD4dTHWFAcEgQPpn7Cc4mJeGNN2bC398fgGL58PPPP2PsuHGIjY3FzDdmQjJLbrMTIEAQBOgEUdkaVMHBGNOsVyxzaCIlDG+D+g0wdNgQLFiwAMdPHEdpaSm8vbxRv359dOzQEQkJCejdqzfq16vveX0JbpUsHCdUorks/anT68BU3yvuD2X7jSiKLvMjkDZWKjp0Oh0EF5ZP4RHh+GbxN7h48SKmPDcFBr0BDAyFRYVYt34dHnz4QdSpUxcL5i/gyhMOh8PhcDgczl2FW6BwONUZAQgI9Mcbb7yOKZMn48TJE9i8aTMWff01MjIzQAS89dZb2L59O7Zv3w5vH2/lPNnWWmLkyJGY98UXkGXFbwjJ7q0QCAS9Xq8pT2RJRlLSOfTu3QtZ2VlgYGjXrh1effU1NGvWFFFR0fD19YFg5cx2+rTp+M9//uN5XT2cGFssKIgIkiTZ+F3hk2srmNXWHMbQo0cPrFmzVrH4oYqtUGRZhiCKyjhQIVKcvgpMwIiHRuDLr770aCwp5wJ6vZOfHLX/goKDMOejOXjt9ddx9OgRrFy5EqtWrkJefh5KS0vw1FNPY8OGjdi0aWP5eRwOh8PhcDgczh2EK1A4nL8DDAgMDkTnLp3RuUtnTJ02FXNmz8F/P/svcnJysG/fPjz5xJP4btl3AACT2YTIyHI/KZeTLyMwKKBqK/ik+GV57733kJqWCgaGbgndsHPnTiVKjppGe1XzNxrd+8ZwVo4n1KtbT3U8ynDhwgWUlRnh5W2o+MT/MRgTUDs21vIXrl69iqCgQLtEbjJwopSKjo6GKOjAmLKVKig4yHOBPBx7IaHBSExMRGLPRLzzzruYNetNLFy4CMXFxfjhh82YMWMG3nnnHc/L5XA4HA6Hw+FwbhF8Cw+H83eDgMDAQMycNRP79x+At7cPGGNYv349sjKzIMsy9Do9EhISlOREOHrkKK5euVqlVXuzWYIkSfjrr6Oan5OXX3nZVnlidcgSAQRcuZJyS6prT4OGDVEzpiYkWUZOXg5+2737tpTjDPLAcqPaQITWrePh4+MDIhkXLlzAgQMHKmetYxcSulOnTiCSIUkSDh8+jCspVyshT2VkV17CaoRi7sdzsXHjBnU7EcPXX3+D0tJSHs6Yw+FwOBwOh3PH4QoUDqe6YT8xJOfvSQZq1oxB3bp1IMsyzGYzTGaTso1GAGrVroX+/fqDQCgtK8Pzzz9fHjnGk3JVRFHxm2I2m7UtHH5+fuUJGJQ7iXowBiQnJ2Pb1m2VqranCAJDn759lGKZgPkL5rs/wU4JAKBKiiTLVhQbXy1VnMT7+fpqDnZLS0qrlkkFMJEhJCQEI0eOVLftAC+//LLTKDzOMwAgqLt91HrWrFkL/fr1gyAIMJqMePHFFxT/O5VVjpAyfh2UOfavUMJgt2zZEuE1aoAxQJLMMFUQ+YfD4XA4HA6Hw7kdcAUKh1PdYMDVK1eRkZ6p/W39neVgAnDxwkWkp2cAAHz9/BAYGAiSSTumT58Og94AgLBx40bM+3weigqLnSsVVExGE5IvJZcXyZTIL0FBwZryYL8aotjG+kTl6tVUDB8+HHn5eTffFk4gIjz26GOKNQwBGzduxJfzvoSxzIVigAHGMiMkk3tHu56WfSsICQ1BcHAwAODS5Us48OeBW5KvM55//nn4+PhAkiXs3bsX7/37PeTn5TsfAwRAVtorJTlF8aUjQBuDgsDw+muvQ6fTgTEBa9euw2effY6ioiLXAhBQWlJaHhbbevxevIjc67mO51iNeUEQcPLkSeTfyIdMMsLDw+Hl5cV9oHA4HA6Hw+Fw7jhcgcLhVDcImDt3Llq2aIGnJjyF33b/ZmulIANFBUX49JNPcW+He5GblwNBEDBl8mT4+fmBCUw7OnfujKlTp0ImGSaTCc+/8Dw6deqoOOfMLVdw5OXmYe/e3zFj+gy0bNkSgwYNKi9Pnaj27tULMpQwtK+99hqmT52uOHFVKS0pw38//S/i4uJw6NAhhNcItw1hfIu2XDDG0DUhAZOeew5gQFlZGf416V/o168/ftn5i6YoKSkuwamTp/DmzFmIbx2PpKSk8iaWLdYkgppn5W+FsixXWaHiH+CPbt26gYhgNpsxfMQInD93vjxvSUZxUXGV8ranadNm+Pijj0FQfOO8/fbb6NixI+Z/NR/ZWdlav+Tl5uPQocN4Y+YbuPfeDkjskaj8QtgpWv6vvfv5jeOsAzj8nZ317nrt3XUSO3GiUokkzg/aY6X2RAWXpNDSC4ggUokeEuAC/ZGmhTaCAAKJVpzhD4DAsULAhVaqQKJqkEA9FIlAe6CkoCSO47WdEMf7cljHcVynb5xCmrbPc9lVvPu+43dWkebjnZm777k7Dh06FCn1orewEI899mjcc/c9ceynx/qfqcUIM3V2Kn7/u9/H008/E3fddVc88MADb9u2p576Rtxx553x9a99PY6/8seYv3zdnMU5u9PdOHr0aOzde19cOH8hiiji8OHDUavVnMIDAMDNl4BbzqOPPJaKKFKlqKRKUUntVjtt/ejWtHPHzrR920RqD7eXvvtRKSrp4S89nBYuLbx9oF7/4blnn0vDzeFURNF/T1RSo95ImzZuShvHNqb6QD1FFEs/37Z1e//tC72lMaanptO9H783VSvVpW0b3TCadu/a3d+mVjuVlTJVy2p6aP9D6YXfvpAqRSVFRPrB93+Q0sKV7bk89r7P7+uPFZX0q1/+6voWZ3GMSxcvpae/+UyqDdRSRKQiilQWZWoNt9KmsU1paHAolZUyRRSpWg6kE3/921XDHPvZsaX1++pXvpqds7fQS7/4+S9SJfr7ZN/n9121PWvSS+nlP7x81f6oltU0sW0i7ZjYmcZGx9KzP3z2yti9lD75iU+miEgD1YF04q8n1jbdpV76yY9/ktavW5+KqKQiilREJZWVMo2NjqUN6zekeq2eyqJc2rebxzf357/G7/ej536U2q12KqKSYvE99VojbRzblMY2jKV6rZ4qUVnaNxPbJ942xoOfeXBpvrIo0/p169P2rdvTrp270rat21NzsLm4rf11Onzo8NJ6AADAzeYuPHAL+tznPht/O3Ei/vTnP0V3uhvnL5yPN954I4oooizLqNVrsWV8S4yPj8cTh5+IfV/Y139j6p9mUlSKK98cKCIef/zxuO++T8W3v/2tOH78eEyemYyZ2Zk4depU/442lSJGOp1oDbdi98d2x/4v7o+IZbdCThGtTiuef/75ePLwk/Hr3/w6zp6disnJszF5ZjLKsozh1nDccced8eWDB+Pglw/G3NxcjI+Px/z8pf4FQJefcpEiIopotzsxOjoaRVFErV6/vsVZvO1tOVDG97733di7Z08c/c7ReO21v8S5c1MxOzMb5+fOR4oUzWYzWq1WTExMRLvdumqYSqUSoxtGIyKi0Whc18T1eiM2LF6LY3BwMKIXN3YqSdH/JseLL74Yhx4/FH9//fXodqfjxN9PRKPWiMZgo79Ny8Ye6YzE6IbRqFarUS3X9l93USniwIED8elP3x9HjjwTL730UkxOTsb09HScOTMZRRFRltUYGh6KTqcTt3/k9v5navktold45NFH4v4H7o8jzxyJV46/EpNnJmPu/FycPnUqUqSo1WrR7rRjeGg4du3eFfu/uD9Sb/GzGf1v2Rw4cCDmL87Hq6++Gt1uN2ZnZ2N6enppjmazGVs2b4kdO3fEk4efjD1799zYnaQAAOB/oEjp/XRbCfjw6C30otvtxsWLF2Nq6lxMT5+L3kIvymoZY2NjMTQ0FK1WO6rVsh86Vh5ULj/QXHy+cGkh5ubmYm5uLv75z5OxsNC/qOzIyEi02+1oNBrR6XTeeazon+4xM9ONt956K1JKUa/XY/P45hhutaLZHFx6/eTk2YhI0Wg0otlsXjkg71/TdHFbZqMoiuh0OjFQG7ihtVq4tBDT09MxOzsbJ0+ejJT612657bbbojnYjyjlQHnld4nor+vZqaiUlRhsDMZQa+jaE0T/tJ/5+fmlA/zBwcEYGh561wf0/zn/n5iZmYl/vPlmzM3NRqfTibGxsei0O1EfrC9FsdmZ2Th/4UJUKkWMjIxEWS3XPlnqXxR2ZqYfK06fPh3dbndx/Udi/fp1Ua/XY2hoKAYGFvfFddzqeGZmNma63fjXv/8Vc7NzUSkrsW5kXaxbvy5qtVp//VdGtMtD9FJMnZ2K+UvzcW7qXJw+czp6vV40m80YHx+PRqMRreFWVAeqwgkAAO8pAQVuVde43ezyv+KvaazVoshlxSr/tvJn7zT2yjGK/l1Wli4tsjLmrDbHuwkRq723F9e+ytPK11/P3Gu5/e/1uryNy8dOqzxefv5u5748zvJ5V1u3YsXrcuNd4zNw1Vg3sp2Xny8fGwAA3iMCCrzf3OxTGFY7gL3e4LDawfVaxvgwWOs6/L/XbbW4FGuc074FAOADyDVQgHe22oHw9RwcFyseb2SMD4O1rsPNXjf7CQAAIsJtjOH9xwEt/0//i8+XzygAAB9AAgoAAABAhoACAAAAkCGgAAAAAGQIKAAAAAAZAgoAAABAhoACAAAAkCGgAAAAAGQIKAAAAAAZAgoAAABAhoACAAAAkCGgAAAAAGQIKAAAAAAZAgoAAABAhoACAAAAkCGgAAAAAGQIKAAAAAAZAgoAAABAhoACAAAAkCGgAAAAAGQIKAAAAAAZAgoAAABAhoACAAAAkCGgAAAAAGQIKAAAAAAZAgoAAABAhoACAAAAkCGgAAAAAGQIKAAAAAAZAgoAAABAhoACAAAAkCGgAAAAAGQIKAAAAAAZAgoAAABAhoACAAAAkCGgAAAAAGQIKAAAAAAZAgoAAABAhoACAAAAkCGgAAAAAGQIKAAAAAAZAgoAAABAhoACAAAAkCGgAAAAAGQIKAAAAAAZAgoAAABAhoACAAAAkCGgAAAAAGQIKAAAAAAZAgoAAABAhoACAAAAkCGgAAAAAGQIKAAAAAAZAgoAAABAhoACAAAAkCGgAAAAAGQIKAAAAAAZAgoAAABAhoACAAAAkCGgAAAAAGQIKAAAAAAZAgoAAABAhoACAAAAkCGgAAAAAGQIKAAAAAAZAgoAAABAhoACAAAAkCGgAAAAAGQIKAAAAAAZAgoAAABAhoACAAAAkCGgAAAAAGQIKAAAAAAZAgoAAABAhoACAAAAkCGgAAAAAGQIKAAAAAAZAgoAAABAhoACAAAAkCGgAAAAAGQIKAAAAAAZAgoAAABARjWl9F5vAwAAAMAt7b9XFH1kWLJmFwAAAABJRU5ErkJggg==;" vertex="1" parent="1">
          <mxGeometry y="10" width="1104" height="582" as="geometry" />
        </mxCell>
      </root>
    </mxGraphModel>
  </diagram>
</mxfile>
